<svg width="50" height="50" viewBox="0 0 50 50" fill="none" xmlns="http://www.w3.org/2000/svg">
<g clip-path="url(#clip0_17_64)">
<path d="M50.0001 24.8776C50.049 38.6701 38.8225 49.9781 25.0517 49.9999C11.3733 50.0216 0.108788 38.893 5.72205e-05 25.2527C-0.108673 11.4384 11.0471 0.0814242 24.8125 -0.000124153C38.605 -0.0816725 49.9511 11.1231 50.0001 24.8776Z" fill="black"/>
<path d="M50.0001 24.8776C49.9511 11.1231 38.605 -0.0816725 24.8125 -0.000124153C11.0471 0.0814242 -0.108673 11.4384 0.00549698 25.2527C0.114227 38.893 11.3788 50.0216 25.0571 49.9999C38.8225 49.9781 50.049 38.6701 50.0001 24.8776ZM35.0006 26.6988C34.8919 26.4976 34.7886 26.2911 34.6798 26.0899C27.8189 26.0899 20.9525 26.0899 14.0916 26.0899C13.3685 26.0899 12.6129 26.1769 11.9387 25.9812C11.5473 25.867 11.1504 25.3233 11.0254 24.8939C10.9656 24.6873 11.5038 24.1382 11.8572 24.0403C12.4498 23.8772 13.1076 23.9262 13.7382 23.9207C17.7124 23.9153 21.6919 23.9207 25.666 23.9207C28.6942 23.9207 31.7224 23.9207 35.2833 23.9207C34.2286 22.8008 33.5817 22.0886 32.9075 21.4036C31.5756 20.0499 30.1892 18.7506 28.928 17.337C28.6072 16.9728 28.6779 16.2552 28.5746 15.7006C29.1237 15.7006 29.9065 15.456 30.1947 15.7333C33.299 18.7125 36.3271 21.7733 39.6652 25.095C36.4739 28.221 33.6143 31.0915 30.6622 33.8533C30.2164 34.2719 29.3248 34.2121 28.6453 34.3752C28.8355 33.6902 28.8247 32.8095 29.2596 32.3528C31.108 30.4011 33.0869 28.5744 35.0169 26.6988H35.0006Z" fill="#9C4434"/>
<path d="M35.0005 26.6989C33.0706 28.5691 31.0917 30.4012 29.2432 32.3529C28.8083 32.8096 28.8246 33.6903 28.6289 34.3753C29.3139 34.2122 30.2001 34.272 30.6459 33.8534C33.6034 31.0862 36.463 28.2212 39.6488 25.0951C36.3108 21.768 33.2826 18.7072 30.1783 15.7334C29.8902 15.4561 29.1128 15.7008 28.5582 15.7008C28.667 16.2553 28.5908 16.9729 28.9116 17.3372C30.1729 18.7507 31.5592 20.05 32.8912 21.4037C33.5653 22.0887 34.2122 22.8009 35.2669 23.9208C31.706 23.9208 28.6778 23.9208 25.6497 23.9208C21.6756 23.9208 17.696 23.9208 13.7219 23.9208C13.0912 23.9208 12.4334 23.8719 11.8408 24.0404C11.4929 24.1383 10.9547 24.6928 11.009 24.894C11.1286 25.3235 11.5255 25.8726 11.9224 25.9813C12.5965 26.177 13.3522 26.09 14.0752 26.09C20.9362 26.09 27.8025 26.09 34.6635 26.09C34.7722 26.2912 34.8755 26.4978 34.9842 26.6989H35.0005Z" fill="#FEECD8"/>
</g>
<defs>
<clipPath id="clip0_17_64">
<rect width="50" height="50" fill="white" transform="matrix(-1 0 0 1 50 0)"/>
</clipPath>
</defs>
</svg>
