<svg width="29" height="20" viewBox="0 0 29 20" fill="none" xmlns="http://www.w3.org/2000/svg">
<path d="M24.0005 11.6989C22.0706 13.5691 20.0917 15.4012 18.2432 17.3529C17.8083 17.8096 17.8246 18.6903 17.6289 19.3753C18.3139 19.2122 19.2001 19.272 19.6459 18.8534C22.6034 16.0862 25.463 13.2212 28.6488 10.0951C25.3108 6.76797 22.2826 3.70719 19.1783 0.733392C18.8902 0.456128 18.1128 0.700772 17.5582 0.700772C17.667 1.2553 17.5908 1.97293 17.9116 2.33718C19.1729 3.75068 20.5592 5.05002 21.8912 6.40372C22.5653 7.08872 23.2122 7.80091 24.2669 8.92085C20.706 8.92085 17.6778 8.92085 14.6497 8.92085C10.6756 8.92085 6.69599 8.92085 2.72187 8.92085C2.09123 8.92085 1.4334 8.87192 0.84082 9.04045C0.49288 9.13831 -0.0453377 9.69284 0.00902748 9.89399C0.128632 10.3235 0.525501 10.8726 0.922369 10.9813C1.5965 11.177 2.35218 11.09 3.07524 11.09C9.93618 11.09 16.8025 11.09 23.6635 11.09C23.7722 11.2912 23.8755 11.4978 23.9842 11.6989H24.0005Z" fill="#FEECD8"/>
</svg>
