<svg width="330" height="489" viewBox="0 0 330 489" fill="none" xmlns="http://www.w3.org/2000/svg">
<path d="M4.19078 147.75C2.65078 190.01 5.34078 232.58 4.19078 274.87C3.90078 275.28 -1.46922 275.01 4.19078 276.2C5.35078 303.22 1.55078 341.41 6.85078 366.49L5.08078 367.38C2.69078 357.99 1.33078 348.44 0.640783 338.76C2.16078 280.31 -1.37922 214.06 0.640783 156.62C1.97078 156.76 1.84078 155.54 0.640783 155.73C0.830783 150.86 1.02078 145.94 1.53078 141.09C4.95078 142.43 1.62078 148.48 4.19078 147.75Z" fill="#EC8A6E"/>
<path d="M161.701 0.440002V0.880003C110.531 2.74 61.7508 26.46 31.7008 68.1C14.0508 92.56 5.29079 117.51 4.19079 147.74C1.62079 148.48 4.95079 142.43 1.53079 141.08C10.0308 60.13 81.9208 1.9 161.701 0.440002Z" fill="#EC8A6E"/>
<path d="M6.85077 366.49C8.54077 374.47 10.9308 380.93 13.9508 388.45C13.9708 388.5 13.3008 388.84 13.5108 389.34C13.8908 390.27 15.5108 389.52 14.4008 391.56C19.1108 398.43 22.2808 406.3 26.8208 413.3C56.8208 459.57 107.011 484.6 161.701 486.73C161.741 487.13 162.221 487.07 161.701 488.5C136.861 488.01 105.721 479.38 83.8308 467.65C45.6808 447.21 15.7808 409.39 5.07077 367.37L6.84077 366.48L6.85077 366.49Z" fill="#FC9970"/>
<path d="M0.640765 156.62C0.650765 156.33 0.630765 156.03 0.640765 155.73C1.84077 155.54 1.97077 156.75 0.640765 156.62Z" fill="#FDE9CF"/>
<path d="M161.261 2.66001C84.4908 1.26001 9.94079 64.28 5.08079 142.2C7.23079 139.78 8.68079 142.42 12.1808 140.87C18.5308 65.37 86.9508 8.86001 161.261 7.98001C161.261 8.09001 161.261 8.27001 161.261 8.42001C87.8308 9.93001 19.4108 65.55 13.0608 140.42C14.6208 141.97 19.1308 140.77 18.3808 142.64C11.1908 141.27 13.9008 141.97 12.6108 147.96L12.1708 341.86L14.3908 360.5C24.9708 362.08 20.2408 355.73 19.2708 344.08L19.7108 143.08C25.4408 71.78 90.9708 16.63 161.251 15.96C161.241 16.26 161.261 16.5 161.251 16.85C91.8108 17.1 26.4408 72.34 20.6008 142.64L20.1608 344.52C21.4308 349.65 20.2908 355.66 23.7108 360.05C23.8608 360.82 22.5508 361.02 22.8208 362.27C36.5308 424.19 98.6308 470.1 161.251 471.2C161.251 471.35 161.251 471.5 161.251 471.64C96.5608 470.65 36.2508 425 21.9308 361.38C13.0808 360.24 14.4108 363.58 17.9408 375.13C36.1508 434.82 99.3308 478.43 161.261 479.18C161.261 479.33 161.261 479.48 161.261 479.62C94.2008 477.65 37.9608 436.94 16.6108 373.35C15.3408 369.58 15.7708 364.49 12.1708 362.26C15.0308 359.83 12.0108 351.34 11.7308 344.51L11.5108 142.4C9.09079 142.34 7.11079 141.94 5.08079 143.51L4.64079 342.29C8.86079 424.24 81.0108 484.13 161.271 485.83C161.271 486.32 161.631 485.96 161.711 486.72C107.011 484.59 56.8308 459.56 26.8308 413.29C22.2908 406.29 19.1208 398.42 14.4108 391.55C15.5208 389.51 13.9008 390.26 13.5208 389.33C13.3208 388.83 13.9808 388.49 13.9608 388.44C10.9408 380.92 8.55079 374.45 6.86079 366.48C1.56079 341.4 5.36079 303.21 4.20079 276.19C-1.45921 275 3.91079 275.27 4.20079 274.86C5.35079 232.57 2.66079 190 4.20079 147.74C5.30079 117.51 14.0608 92.56 31.7108 68.1C61.7508 26.46 110.531 2.75 161.701 0.880005C161.931 2.91 161.271 2.56001 161.261 2.65001V2.66001Z" fill="#FDF4EC"/>
<path d="M161.261 471.65C161.341 474.27 161.251 476.63 161.261 479.19C99.3308 478.44 36.1508 434.83 17.9408 375.14C14.4208 363.59 13.0908 360.25 21.9308 361.39C36.2508 425.01 96.5608 470.66 161.251 471.65H161.261Z" fill="#EC8A6E"/>
<path d="M161.261 2.66C161.091 4.27 161.301 6.28 161.261 7.98C86.9508 8.86 18.5308 65.37 12.1808 140.87C8.68078 142.42 7.23078 139.78 5.08078 142.2C9.94078 64.28 84.4908 1.26 161.261 2.66Z" fill="#EC8A6E"/>
<path d="M328.531 274.65L326.311 275.32L328.971 275.54C328.861 296.46 329.051 317.4 328.971 338.32C328.721 338.69 328.091 340.63 328.081 340.76C326.051 340.66 326.351 341.47 328.081 342.09C321.471 425.18 253.141 484.64 171.011 488.07L168.571 486.74C246.171 485.34 314.581 430.36 324.971 352.52V145.31C320.001 68.86 256.481 9.16 181.431 1.77C175.521 1.19 166.851 2.14 167.901 0C248.791 1.55 321.191 62.43 328.521 144.42C330.441 165.9 328.671 245.9 328.521 274.65H328.531Z" fill="#EC8A6E"/>
<path d="M328.531 274.65C328.531 275.07 328.981 275.12 328.971 275.54L326.311 275.32L328.531 274.65Z" fill="#FDF4EC"/>
<path d="M328.091 340.76C328.091 340.86 328.171 341.07 328.091 342.09C326.361 341.47 326.061 340.66 328.091 340.76Z" fill="#FDF4EC"/>
<path d="M326.541 223.62C328.651 223.08 328.121 225.52 326.101 224.51C325.671 224.29 326.401 223.66 326.541 223.62Z" fill="#FBFCFA"/>
<path d="M161.261 16.86C161.221 17.93 161.491 23.64 161.041 23.96C94.5308 24.63 33.5808 76.91 27.7108 143.98L27.2708 344.53C34.7108 412.21 94.5508 461.79 161.491 464.11C162.321 466.84 161.251 470.85 161.271 471.21C98.6408 470.11 36.5408 424.2 22.8408 362.28C22.5608 361.03 23.8808 360.83 23.7308 360.06C20.3108 355.67 21.4508 349.66 20.1808 344.53L20.6208 142.65C26.4608 72.35 91.8308 17.11 161.271 16.86H161.261Z" fill="#EC8A6E"/>
<path d="M22.6008 222.73C23.1908 222.51 28.2908 224.09 22.1608 224.5C21.5808 224.2 22.0408 222.93 22.6008 222.73Z" fill="#FDF4EC"/>
<path d="M24.1508 275.09C20.8608 273.81 24.5608 272.59 25.0408 273.98C25.1108 274.17 23.7708 274.07 24.1508 275.09Z" fill="#FDF4EC"/>
<path d="M23.4908 155.73C25.8708 154.92 27.7408 157.11 23.0508 156.62C22.6108 156.5 23.2508 155.82 23.4908 155.73Z" fill="#FDF4EC"/>
<path d="M22.1608 340.31C26.9508 340.31 26.8108 340.84 22.1608 341.2V340.31Z" fill="#F3F1D8"/>
<path d="M24.1508 275.09C24.4908 275.22 25.1708 274.85 25.4808 275.31C25.0008 275.69 24.4008 275.77 24.1508 275.09Z" fill="#EEE4BD"/>
<path d="M161.261 479.63C161.271 481.69 161.241 483.81 161.261 485.84C81.0008 484.15 8.86077 424.26 4.63077 342.3L5.07077 143.52C7.11077 141.95 9.08077 142.35 11.5008 142.41L11.7208 344.52C12.0008 351.35 15.0208 359.84 12.1608 362.27C15.7508 364.5 15.3308 369.59 16.6008 373.36C37.9508 436.95 94.1808 477.65 161.251 479.63H161.261Z" fill="#EC8A6E"/>
<path d="M7.52079 273.31C8.22079 272.77 9.83079 275.21 9.29079 275.53C7.61079 276.53 6.52079 274.08 7.52079 273.31Z" fill="#FDF4EC"/>
<path d="M6.18079 340.31C11.0708 340.1 11.2308 341.59 6.18079 341.2V340.31Z" fill="#FDF4EC"/>
<path d="M7.74078 224.06C7.83078 224.08 8.87078 222.21 9.51078 223.39C10.4408 225.09 8.32078 224.04 7.74078 224.06Z" fill="#FDF4EC"/>
<path d="M7.74077 224.06C7.65077 224.06 6.38077 225.24 5.97077 223.84C5.23077 221.34 7.60077 224.04 7.74077 224.06Z" fill="#FDF4EC"/>
<path d="M6.63076 155.29C7.40076 154.81 7.57077 156.84 7.07077 157.06C6.25077 157.43 6.14076 155.59 6.63076 155.29Z" fill="#FDF4EC"/>
<path d="M8.40078 155.73C10.0908 155.5 10.1108 156.96 9.29077 157.06C9.21077 157.06 7.60078 156.27 8.40078 155.73Z" fill="#FDF4EC"/>
<path d="M161.261 8.42999C161.221 10.91 161.341 13.47 161.261 15.97C90.9808 16.64 25.4508 71.79 19.7208 143.09L19.2808 344.09C20.2508 355.73 24.9808 362.09 14.4008 360.51L12.1808 341.87L12.6208 147.97C13.9008 141.98 11.2008 141.27 18.3908 142.65C19.1308 140.78 14.6208 141.98 13.0708 140.43C19.4008 65.56 87.8308 9.93999 161.261 8.42999Z" fill="#EC8A6E"/>
<path d="M15.5008 155.29C15.6308 155.28 17.9208 156.05 17.9408 156.4C13.8108 157.6 12.6408 155.6 15.5008 155.29Z" fill="#FDF4EC"/>
<path d="M15.0608 339.87C16.5508 339.51 18.5908 342.29 15.0608 340.76C13.3608 345.54 13.1708 340.33 15.0608 339.87Z" fill="#FDF4EC"/>
<path d="M14.6208 223.18C16.1208 222.75 15.9108 224.27 15.0608 224.51C13.5608 224.94 13.7708 223.42 14.6208 223.18Z" fill="#FDF4EC"/>
<path d="M16.3908 223.18C17.4908 222.77 17.9508 224.08 17.2808 224.51C16.8908 224.76 15.7208 223.8 16.3908 223.18Z" fill="#FDF4EC"/>
<path d="M15.0608 273.31C16.1808 272.8 17.9508 274.32 17.5008 275.31C16.5908 277.3 12.4108 274.52 15.0608 273.31Z" fill="#FDF4EC"/>
<path d="M15.5008 274.2C15.8708 273.97 16.6408 274.81 16.6108 274.87C16.2708 275.61 14.5108 274.81 15.5008 274.2Z" fill="#C6390A"/>
<path d="M167.911 0C166.861 2.15 175.531 1.19 181.441 1.77C256.481 9.15 320.011 68.86 324.981 145.31V352.52C314.591 430.36 246.171 485.34 168.581 486.74L171.021 488.07C167.891 488.2 164.881 488.58 161.701 488.51C162.221 487.07 161.741 487.14 161.701 486.74C161.621 485.99 161.261 486.34 161.261 485.85C161.241 483.82 161.271 481.7 161.261 479.64C161.261 479.49 161.261 479.34 161.261 479.2C161.251 476.63 161.341 474.28 161.261 471.66C161.261 471.51 161.261 471.36 161.261 471.22C161.251 470.87 162.321 466.85 161.481 464.12C94.5408 461.81 34.7008 412.22 27.2608 344.54L27.7008 143.99C33.5708 76.92 94.5308 24.64 161.031 23.97C161.481 23.65 161.211 17.94 161.251 16.87C161.261 16.52 161.241 16.29 161.251 15.98C161.331 13.48 161.211 10.92 161.251 8.44C161.251 8.28 161.251 8.11 161.251 8C161.291 6.3 161.081 4.29 161.251 2.68C161.251 2.59 161.921 2.93 161.691 0.91V0.469999C163.691 0.429999 165.791 -0.0100012 167.901 0.0299988L167.911 0Z" fill="#FBFCFA"/>
<path d="M168.141 16.86C239.691 17.57 304.601 75.85 309.011 147.97L308.571 350.3C300.911 418.37 236.091 471.98 168.361 470.54L168.581 464.11C235.531 463.18 297.481 411.43 301.911 343.2V146.64C295.861 79.06 235.891 25.44 168.581 23.96L168.141 16.86Z" fill="#EC8A6E"/>
<path d="M305.241 273.31C307.121 273.08 308.321 275.65 303.911 275.97V275.08C308.491 275.23 302.381 273.65 305.241 273.31Z" fill="#FDF4EC"/>
<path d="M304.801 222.73C305.501 222.61 307.301 224.15 307.241 224.28C306.991 224.79 300.611 223.47 304.801 222.73Z" fill="#FDF4EC"/>
<path d="M304.351 340.31C306.941 339.46 310.141 341.8 303.911 341.2C303.461 341.08 304.121 340.39 304.351 340.31Z" fill="#FDF4EC"/>
<path d="M305.681 155.73C308.131 155.6 307.411 157.84 304.131 156.4C304.711 156.37 305.601 155.74 305.681 155.73Z" fill="#FBFCFA"/>
<path d="M168.361 462.77C168.541 461.67 168.021 456.52 168.581 456.11C169.291 455.61 178.631 455.93 185.881 454.78C241.341 446 288.431 402 293.921 344.96C293.311 293.35 294.541 241.7 294.361 190.11C294.241 153.01 296.941 130.01 277.501 96.49C255.321 58.24 212.761 33.32 168.571 31.49L168.351 24.39C235.181 26.77 293.831 78.2 301.021 145.3V344.97C295.431 411.61 234.311 463.27 168.351 462.77H168.361Z" fill="#EC8A6E"/>
<path d="M297.701 273.31C299.681 273.36 299.541 275.36 299.251 275.75C298.611 276.62 292.561 275.67 298.361 274.86C295.201 274.42 296.241 273.27 297.691 273.31H297.701Z" fill="#FDF4EC"/>
<path d="M297.251 222.73C297.361 222.71 299.191 223.74 299.251 223.84C300.421 225.95 293.141 223.3 297.251 222.73Z" fill="#FDF4EC"/>
<path d="M296.361 340.31C301.711 339.84 297.791 342.03 296.361 341.2C295.991 340.99 295.991 340.52 296.361 340.31Z" fill="#FDF4EC"/>
<path d="M299.031 155.73C299.141 155.75 299.911 156.38 299.471 156.62C296.721 158.11 295.611 155.19 299.031 155.73Z" fill="#FBFCFA"/>
<path d="M168.141 8.87C242.701 9.4 310.691 69.42 316.561 144.42V345.42L315.671 357.4C306.301 358.68 305.261 358.19 315.231 359.62C303.681 427.87 237.171 480.28 168.371 478.53L169.041 471.65C237.481 471.87 301.971 418.73 309.471 349.85L309.911 149.3C305.991 75.78 241.231 17.46 168.591 15.97L168.151 8.87H168.141Z" fill="#EC8A6E"/>
<path d="M311.891 223.18C312.221 223.12 313.491 223.11 313.661 223.18C318.281 225.17 306.531 224.19 311.891 223.18Z" fill="#FDF4EC"/>
<path d="M312.341 155.73C312.451 155.66 314.891 155.66 315.001 155.73C317.491 157.23 309.831 157.23 312.341 155.73Z" fill="#FDF4EC"/>
<path d="M312.341 340.31C314.591 339.54 317.351 341.77 311.901 341.2C311.461 341.08 312.101 340.4 312.341 340.31Z" fill="#FDF4EC"/>
<path d="M312.781 273.31C314.791 273.13 314.751 275.45 313.671 275.97C311.041 277.22 310.631 273.5 312.781 273.31Z" fill="#FDF4EC"/>
<path d="M312.341 274.2C313.841 273.2 314.241 276.31 312.341 275.09C311.961 274.85 311.971 274.45 312.341 274.2Z" fill="#E07E48"/>
<path d="M319.661 357.17C319.121 359.36 322.351 359.59 321.211 357.61C321.141 357.5 319.921 357.25 319.661 357.17C317.531 356.48 318.291 357.66 316.551 357.84C316.361 352.99 317.411 348.01 317.441 343.2C317.791 277.56 316.531 211.85 317.441 146.2C312.361 69.53 244.391 9.38 168.581 7.99V1.78C248.041 3.19 317.391 63.48 324.101 143.54C324.421 188.38 323.791 233.22 323.661 277.98C323.581 307.02 327.401 349.37 319.671 375.59C303.831 429.36 253.451 472.4 198.761 482.74C195.291 483.4 169.241 487.14 168.371 485.18C168.221 484.84 168.081 480.06 169.041 479.63C224.321 479.76 278.141 447.39 303.261 398.21C313.961 377.27 314.981 361.72 316.131 360.05C317.001 358.78 317.191 361.4 319.681 357.17H319.661Z" fill="#EC8A6E"/>
<path d="M321.431 275.09C321.511 274.98 321.511 274.37 321.211 274.2C319.331 273.18 320.781 276.01 321.431 275.09C319.961 275.93 318.561 275.69 319.211 273.98C319.781 272.49 324.131 273.55 321.431 275.09Z" fill="#FDF4EC"/>
<path d="M320.321 222.73C320.461 222.67 322.891 222.78 322.321 224.28C320.451 224.17 317.171 224.17 320.321 222.73Z" fill="#FDF4EC"/>
<path d="M320.321 340.31C323.021 339.43 325.371 341.72 319.881 341.2C319.431 341.08 320.091 340.39 320.321 340.31Z" fill="#FDF4EC"/>
<path d="M319.661 357.17C319.931 357.26 321.151 357.5 321.211 357.61C322.351 359.59 319.121 359.36 319.661 357.17Z" fill="#FDF4EC"/>
<path d="M319.881 156.18C320.471 156.18 321.061 156.18 321.651 156.18C325.551 156.24 322.611 157.29 319.881 156.18Z" fill="#FDF4EC"/>
<path d="M321.431 275.09C320.781 276.01 319.331 273.19 321.211 274.2C321.511 274.37 321.511 274.97 321.431 275.09Z" fill="#E07E48"/>
<path d="M158.371 24.4C159.611 24.39 161.011 24.08 161.701 25.07L161.031 31.5C95.2808 33.68 38.7808 83.81 35.2408 150.63L34.8008 340.98C40.0508 404.66 98.2708 454.34 161.031 456.12V463.22C95.7808 461.65 34.6708 410.58 28.1408 344.53V153.3C28.3808 98.83 67.5308 49.95 117.991 32.39C128.461 28.75 147.491 24.53 158.371 24.4Z" fill="#EC8A6E"/>
<path d="M30.5908 273.31C30.7208 273.25 32.2908 273.26 32.3608 273.31C33.9208 274.25 28.1608 274.11 33.0308 275.31C29.4108 276.54 29.1708 273.97 30.5908 273.31Z" fill="#FDF4EC"/>
<path d="M30.1408 155.29C30.4808 155.07 32.7608 155.19 33.0208 155.96C33.3808 156.99 27.4208 157.11 30.1408 155.29Z" fill="#FDF4EC"/>
<path d="M31.0308 221.85C32.7508 221.69 33.5408 223.92 32.3608 224.51C29.6808 225.84 28.2708 222.1 31.0308 221.85Z" fill="#FDF4EC"/>
<path d="M31.0308 222.73C32.0108 222.78 31.9008 223.84 31.4708 224.06C30.6108 224.51 30.1108 222.68 31.0308 222.73Z" fill="#E83710"/>
<path d="M155.271 32.39C156.171 32.37 160.981 32.21 161.261 32.61C161.461 32.89 161.321 39.29 161.041 39.49C98.7808 40.93 43.5208 92.22 42.7908 155.52V340.54C49.0808 400.65 101.451 445.79 161.041 448.14C162.071 448.6 162.071 454.78 161.041 455.24C159.741 455.82 142.641 453.58 139.741 453.02C90.4608 443.5 43.4108 400.21 36.5808 349.42C32.5208 319.22 38.2008 190.09 36.1408 148.42C38.7508 99.43 74.7408 56.09 120.221 39.94C128.791 36.9 146.451 32.62 155.271 32.4V32.39Z" fill="#EC8A6E"/>
<path d="M39.9108 155.29C40.5008 155.16 41.8608 155.37 41.9108 155.96C42.0108 157.16 36.3908 156.1 39.9108 155.29Z" fill="#FBFCFA"/>
<path d="M38.1308 340.31C38.5708 340.31 39.0208 340.31 39.4608 340.31C42.5208 340.38 40.1508 341.42 38.1308 340.31Z" fill="#FBFCFA"/>
<path d="M39.0208 221.85C40.8008 221.69 41.9508 223.68 40.3508 224.51C37.7208 225.87 36.2208 222.11 39.0208 221.85Z" fill="#FDF4EC"/>
<path d="M39.0208 222.73C40.6608 222.68 39.7908 224.08 39.0208 224.06C38.3708 224.05 38.3508 222.75 39.0208 222.73Z" fill="#E07E48"/>
<path d="M38.1308 273.31C38.9708 272.89 41.6308 273.35 41.0108 274.86C40.1808 276.89 35.1708 274.77 38.1308 273.31Z" fill="#FDF4EC"/>
<path d="M39.0208 273.76C39.3508 273.72 40.7608 274.9 39.4608 275.09C38.3608 275.25 38.1908 273.86 39.0208 273.76Z" fill="#DD662F"/>
<path d="M168.801 440.59C222.851 439.41 271.961 397.93 278.391 343.64C276.291 301.91 281.861 173.21 277.951 143.09C276.361 130.83 268.961 112.83 262.421 102.27C242.851 70.66 205.711 48.67 168.361 47.47C167.751 46.34 167.471 40.87 168.581 40.37C171.421 39.11 194.311 43.94 198.751 45.25C244.241 58.65 281.231 101.11 285.491 148.85V340.08C281.791 399.47 227.381 447.14 168.581 447.23L168.801 440.57V440.59Z" fill="#EC8A6E"/>
<path d="M281.281 155.29C285.611 153.62 281.691 160.63 282.171 156.18C279.641 157.71 280.511 155.59 281.281 155.29Z" fill="#FDF4EC"/>
<path d="M280.841 222.73C280.961 222.66 283.391 223.1 283.501 223.17C286.271 224.85 277.571 224.67 280.841 222.73Z" fill="#FDF4EC"/>
<path d="M280.841 340.31L283.721 340.98C282.111 341.57 280.361 341.14 280.841 340.31Z" fill="#FDF4EC"/>
<path d="M281.281 273.76C282.121 273.34 284.781 273.8 284.161 275.31C283.331 277.34 278.321 275.22 281.281 273.76Z" fill="#FDF4EC"/>
<path d="M282.171 274.2C283.271 274.04 283.441 275.43 282.611 275.53C282.281 275.57 280.871 274.39 282.171 274.2Z" fill="#C6390A"/>
<path d="M154.821 40.37C161.641 40.12 163.111 39.48 161.031 47.47C105.121 48.68 54.3808 93.66 50.7708 150.19L50.3308 336.99C53.6108 385.98 93.8908 427.77 141.071 437.93C150.501 439.96 160.731 439.89 161.481 440.59C161.861 440.95 161.831 446.99 161.481 447.25C103.111 446.13 48.8008 399 43.6808 340.1V154.19C44.4708 106.48 78.7008 63.33 122.881 47.48C130.391 44.79 147.231 40.66 154.831 40.38L154.821 40.37Z" fill="#EC8A6E"/>
<path d="M45.6708 155.29C48.4308 153.54 50.8808 158.98 47.0008 155.73C45.7808 158.69 44.7908 155.84 45.6708 155.29Z" fill="#FDF4EC"/>
<path d="M45.6708 339.87C45.7608 339.81 47.7108 339.8 47.8908 339.87C51.1008 341.14 42.3608 342.05 45.6708 339.87Z" fill="#FDF4EC"/>
<path d="M45.6708 273.31C46.9908 272.67 49.4808 273.4 48.5508 275.31C47.5608 277.34 42.8508 274.67 45.6708 273.31Z" fill="#F3DFD6"/>
<path d="M47.0108 273.76C47.4108 273.76 48.6908 274.78 47.4508 275.09C45.7108 275.53 45.7708 273.74 47.0108 273.76Z" fill="#DD662F"/>
<path d="M46.1208 222.29C47.0208 221.9 49.6208 222.33 49.0008 223.84C48.1508 225.94 43.3608 223.48 46.1208 222.29Z" fill="#FDF4EC"/>
<path d="M47.0108 222.73C48.5508 222.54 48.0808 224.41 46.5708 223.62C46.1308 223.39 46.9208 222.74 47.0108 222.73Z" fill="#E83710"/>
<path d="M168.141 48.36C223.681 49.81 274.141 96.1 277.961 151.96V337.43C275.421 393.47 223.751 439.62 168.371 439.48L169.041 432.6C218.901 431.67 264.771 392.72 270.871 342.75L271.311 151.07C266.551 99.37 220.201 57.15 168.591 55.45L168.151 48.35L168.141 48.36Z" fill="#EC8A6E"/>
<path d="M273.291 222.73C273.941 222.3 273.981 223.65 274.181 223.62C275.131 223.46 275.391 222.72 275.511 222.73C280.791 223.32 268.321 226 273.291 222.73Z" fill="#FDF4EC"/>
<path d="M274.621 155.29C276.911 154.64 277.331 156.26 273.731 157.06C273.011 156.26 273.871 155.5 274.621 155.29Z" fill="#FDF4EC"/>
<path d="M273.291 340.31C277.931 340.07 277.471 341.16 273.291 341.2V340.31Z" fill="#FDF4EC"/>
<path d="M274.621 273.31C275.611 273.22 277.591 275.34 275.951 275.97C272.801 277.18 271.771 273.58 274.621 273.31Z" fill="#FDF4EC"/>
<path d="M274.181 274.2C274.601 273.92 275.731 274.55 275.731 274.87C275.731 276.22 272.671 275.22 274.181 274.2Z" fill="#DD662F"/>
<path d="M160.811 55.01C109.781 57.23 63.4708 96.78 58.3208 148.41L57.8808 337.43C62.8208 389.51 109.711 430.56 161.261 432.6C161.241 432.97 162.661 437.73 161.041 439.7C106.511 437.42 56.3708 393.97 51.2208 338.76L51.6608 147.97C56.4608 93.12 106.861 48.9 161.481 48.36C161.771 48.57 162.261 54.92 160.811 55.02V55.01Z" fill="#EC8A6E"/>
<path d="M53.6608 339.87C57.9508 339.68 58.0908 341.15 53.6608 340.76V339.87Z" fill="#FDF4EC"/>
<path d="M54.1008 155.29C56.8008 154.41 59.1507 156.7 53.6607 156.18C53.2107 156.06 53.8708 155.37 54.1008 155.29Z" fill="#FDE9CF"/>
<path d="M54.1008 222.29C54.8008 221.99 57.0008 222.11 56.9808 223.4C56.9508 225.86 50.8708 223.67 54.1008 222.29Z" fill="#FDF4EC"/>
<path d="M54.9908 222.73C54.9908 222.73 55.8908 223.38 55.4308 223.62C54.2908 224.23 54.1508 222.83 54.9908 222.73Z" fill="#B22400"/>
<path d="M53.2208 273.31C54.0108 272.75 57.0708 273.54 56.1008 275.31C55.1608 277.03 51.2608 274.7 53.2208 273.31Z" fill="#FDF4EC"/>
<path d="M54.1008 273.76C55.1508 273.59 55.4108 274.95 54.5408 275.09C53.4908 275.26 53.2308 273.9 54.1008 273.76Z" fill="#E83710"/>
<path d="M161.261 55.9C161.601 57.12 162.381 62.41 161.041 63C111.101 64.88 67.8108 104.84 65.4208 155.51L65.8608 338.31C70.7308 386.65 114.011 422.98 161.481 425.5C162.391 426.35 161.251 431.4 161.261 431.71C110.491 430.02 64.1308 389.25 58.7708 338.31V154.17C60.4808 100.83 108.911 57.3 161.261 55.89V55.9Z" fill="#EC8A6E"/>
<path d="M160.811 55.01C161.121 55.45 161.111 55.38 161.251 55.9C108.901 57.31 60.4708 100.84 58.7608 154.18V338.32C64.1308 389.26 110.491 430.03 161.251 431.72C161.271 432.11 161.271 432.21 161.251 432.61C109.701 430.57 62.8108 389.51 57.8708 337.44L58.3108 148.42C63.4708 96.79 109.771 57.24 160.801 55.02L160.811 55.01Z" fill="#FDF4EC"/>
<path d="M61.6508 222.73C67.6408 223.68 63.2408 223.11 62.9808 223.17C62.8008 223.21 61.1308 226.62 61.6508 222.73Z" fill="#FDF4EC"/>
<path d="M62.9808 155.29C65.0608 154.66 66.2208 156.59 62.0908 156.18C61.5708 155.99 62.9108 155.31 62.9808 155.29Z" fill="#FDE9CF"/>
<path d="M62.5308 339.87C64.9808 339.03 64.1308 341.78 62.0908 340.76C61.6608 340.55 62.3708 339.93 62.5308 339.87Z" fill="#FBFCFA"/>
<path d="M61.6508 273.31C64.4908 272.07 65.8908 277.21 61.6508 275.53C60.5408 275.09 61.3608 273.44 61.6508 273.31Z" fill="#FDF4EC"/>
<path d="M62.5308 273.76C62.8608 273.72 64.2708 274.9 62.9708 275.09C61.8708 275.25 61.7008 273.86 62.5308 273.76Z" fill="#E83710"/>
<path d="M168.581 55.9C219.161 58.34 264.551 98.6 270.411 149.3V338.32C266.781 389.9 219.821 430.55 169.021 432.16V425.06C213.931 423.97 256.471 389.2 262.861 344.08C266.471 318.57 261.951 189.53 263.751 151.96C259.841 103.68 216.601 64.46 168.581 63V55.9Z" fill="#EC8A6E"/>
<path d="M266.191 222.29C268.681 221.51 270.611 224.06 267.081 224.95C268.051 220.58 265.971 224.43 265.751 224.51C265.141 224.73 264.801 222.73 266.191 222.29Z" fill="#FDF4EC"/>
<path d="M267.521 155.29C268.711 155.06 271.191 156.98 267.081 156.18C266.621 156.03 267.371 155.32 267.521 155.29Z" fill="#FDF4EC"/>
<path d="M267.081 339.87C269.531 339.03 268.681 341.78 266.641 340.76C266.211 340.55 266.921 339.93 267.081 339.87Z" fill="#FDF4EC"/>
<path d="M265.751 273.76C266.751 273.28 269.571 273.96 269.081 275.31C268.351 277.31 262.531 275.3 265.751 273.76Z" fill="#FDF4EC"/>
<path d="M265.751 274.65L268.191 274.87C267.281 276.1 265.391 275.57 265.751 274.65Z" fill="#DD662F"/>
<path d="M168.361 24.4L168.581 31.5C212.771 33.33 255.331 58.25 277.511 96.5C296.951 130.02 294.251 153.02 294.371 190.12C294.541 241.71 293.321 293.36 293.931 344.97C288.441 402.01 241.351 446.01 185.891 454.79C178.641 455.94 169.291 455.62 168.591 456.12C168.021 456.52 168.551 461.68 168.371 462.78L167.481 463C168.091 458.39 166.501 450.97 168.371 447.91C167.041 447.39 166.811 438.9 168.811 440.59L168.591 447.25C227.391 447.16 281.801 399.49 285.501 340.1V148.87C281.241 101.13 244.241 58.67 198.761 45.27C194.321 43.96 171.421 39.13 168.591 40.39C167.481 40.89 167.761 46.35 168.371 47.49L167.481 47.27V24.64L168.371 24.42L168.361 24.4Z" fill="#FDF4EC"/>
<path d="M168.581 32.39C170.241 31.65 188.121 34.4 191.211 35.05C245.111 46.41 289.581 94.33 293.481 149.75L293.041 346.31C286.691 407.41 229.091 455.55 168.361 455.02L169.031 448.14C228.931 447.33 283.711 399.18 286.391 338.32V150.63C282.161 90.4 228.311 41.46 168.591 39.48C167.561 39.02 167.561 32.84 168.591 32.38L168.581 32.39Z" fill="#EC8A6E"/>
<path d="M290.601 222.73C293.151 223.42 288.431 225.13 287.721 224.28C287.271 223.4 290.451 222.68 290.601 222.73Z" fill="#FDF4EC"/>
<path d="M289.271 155.73C289.681 155.58 292.001 155.49 291.711 156.4C289.831 156.88 286.671 156.7 289.271 155.73Z" fill="#FBFCFA"/>
<path d="M289.271 340.31C291.651 339.5 293.521 341.69 288.831 341.2C288.391 341.08 289.031 340.4 289.271 340.31Z" fill="#FDF4EC"/>
<path d="M288.821 273.76C292.771 272.03 292.491 277.49 288.821 275.98C287.711 275.52 288.541 273.88 288.821 273.76Z" fill="#FDF4EC"/>
<path d="M289.271 274.65C290.131 274.62 291.071 274.48 290.821 275.32C290.671 275.83 288.821 275.07 289.271 274.65Z" fill="#E83710"/>
<path d="M165.031 63.44C213.501 63.52 258.781 102.77 262.871 151.51L262.431 340.08C254.761 402.51 188.531 440.14 129.991 417.95C96.6408 405.31 70.4808 374.25 66.7608 338.31V151.07C70.5808 102.07 116.631 63.36 165.041 63.44H165.031Z" fill="#E1BF95"/>
<path d="M88.4908 119.79C88.9908 122.32 92.9508 120.47 96.4808 121.34V233.6C95.6808 235.4 89.9208 232.97 88.0508 235.15C86.9908 236.38 88.0108 236.41 88.0508 236.48C89.7908 239.55 95.9308 236.64 96.4808 238.03V353.84C95.7608 355.47 87.4308 353.4 88.9408 355.61C111.241 356.29 133.611 356.25 155.941 356.28C156.001 357.15 157.471 356.4 157.711 356.95C157.821 357.2 157.631 357.91 157.711 358.5L87.1608 358.28V120.46C87.7508 119.61 88.2008 119.87 88.4908 119.79Z" fill="#E1BF95"/>
<path d="M246.001 237.37C246.021 277.5 246.911 317.69 246.441 357.83L175.891 358.5C176.021 357.77 175.661 357.11 176.331 356.28C199.111 356.22 221.921 356.06 244.661 355.61C245.241 352.59 236.811 354.71 236.671 354.28V238.03L245.101 236.92C245.481 237.06 245.631 237.33 245.991 237.36L246.001 237.37Z" fill="#E1BF95"/>
<path d="M246.001 235.6H244.671C246.461 233.15 241.321 234.88 236.681 234.05V121.35C239.441 121 241.891 121.26 244.671 120.68C245.331 120.54 245.071 118.87 246.441 120.46C246.941 158.83 245.971 197.25 246.001 235.6Z" fill="#E1BF95"/>
<path d="M175.461 119.35C175.461 119.35 175.601 120.24 175.241 120.24C169.261 120.24 163.191 119.79 157.271 119.8L158.381 103.38H174.801L175.471 119.35H175.461Z" fill="#FBFCFA"/>
<path d="M161.481 116.69C162.821 116.46 174.781 117.13 175.011 117.8C175.041 117.88 174.421 119.32 174.341 119.35C173.641 119.68 159.441 119.8 158.811 119.35C156.701 117.86 160.361 116.88 161.471 116.69H161.481Z" fill="#E1BF95"/>
<path d="M159.261 104.26C160.301 103.9 175.711 103.87 174.571 105.37C168.381 106.01 154.341 105.98 159.261 104.26Z" fill="#E1BF95"/>
<path d="M176.341 356.29C175.661 357.12 176.031 357.78 175.901 358.51C175.061 363.13 175.781 367.64 175.231 372.26H157.931C157.281 371.8 158.001 360.5 157.711 358.51C157.631 357.92 157.821 357.21 157.711 356.96C157.461 356.42 156.001 357.16 155.941 356.29C162.741 356.29 169.551 356.31 176.351 356.29H176.341Z" fill="#FBFCFA"/>
<path d="M158.821 357.17C159.541 356.88 173.701 356.74 174.351 357.17C179.921 360.87 152.221 359.8 158.821 357.17Z" fill="#E1BF95"/>
<path d="M159.261 370.04C160.291 369.68 175.711 369.65 174.571 371.15C168.221 371.76 155.081 371.52 159.261 370.04Z" fill="#E1BF95"/>
<path d="M244.671 120.68C241.901 121.26 239.441 120.99 236.681 121.35V234.05C241.321 234.88 246.451 233.15 244.671 235.6C192.471 235.6 140.231 235.97 88.0408 235.16C89.9108 232.98 95.6708 235.41 96.4708 233.61V121.35C92.9508 120.47 88.9908 122.33 88.4808 119.8C91.8008 118.92 148.041 119.81 157.251 119.8C163.171 119.8 169.241 120.24 175.221 120.24C175.581 120.24 175.401 119.35 175.441 119.35C184.461 119.35 241.081 118.99 244.441 119.79C244.771 119.87 244.671 120.38 244.661 120.68H244.671Z" fill="#FBFCFA"/>
<path d="M244.671 235.6H246.001C246.001 236.19 246.001 236.79 246.001 237.37C245.651 237.33 245.491 237.07 245.111 236.93C237.771 234.13 107.481 238.16 88.0408 236.49C88.0008 236.42 86.9808 236.39 88.0408 235.16C140.221 235.97 192.471 235.6 244.671 235.6Z" fill="#FBFCFA"/>
<path d="M105.571 121.13L124.871 121.35L125.091 152.19H149.941C155.601 168.89 176.531 168.72 182.771 152.19H208.061L208.281 121.35L227.141 121.13C228.001 121.57 227.461 129.28 234.901 131.56V234.05L185.431 234.27C182.141 211.36 151.001 211.87 147.721 234.27H98.4708L97.8008 132.44C106.191 129.51 104.971 121.54 105.561 121.13H105.571Z" fill="#E1BF95"/>
<path d="M164.591 220.51C172.951 219.61 180.921 225.02 181.671 233.6L152.161 234.27C149.351 233.39 155.511 221.5 164.581 220.52L164.591 220.51Z" fill="#E1BF95"/>
<path d="M153.941 152.18H178.341C175.831 164.55 156.921 164.29 153.941 152.18Z" fill="#E1BF95"/>
<path d="M178.561 127.78C183.631 127.08 173.821 126.47 170.801 126.45C164.451 126.4 157.891 127.4 151.501 126.89C151.331 126.4 151.461 121.75 151.721 121.57C152.931 120.71 180.241 120.71 181.451 121.57C181.721 121.76 181.851 127.32 181.671 127.56C181.351 128.02 179.251 127.72 178.561 127.78Z" fill="#E1BF95"/>
<path d="M126.431 120.68L127.761 150.41H205.851L206.741 120.68L207.401 150.63L126.431 150.85V120.68Z" fill="#FBFCFA"/>
<path d="M98.0308 121.13C98.2908 120.94 104.281 121.09 104.461 121.35C104.811 121.83 103.421 129.66 98.4708 130.89C97.4008 130.49 97.6308 121.41 98.0308 121.13Z" fill="#E1BF95"/>
<path d="M149.941 120.68L150.831 129.11H182.331C183.721 116.88 183.891 119.34 183.881 129.78L149.941 130V120.68Z" fill="#FBFCFA"/>
<path d="M166.801 218.3C176.041 218.32 184.141 227.03 183.881 232.72C183.631 238.23 183.201 226.84 176.561 222.29C166.511 215.41 151.071 221.24 150.161 234.05H149.271C149.431 225.2 158.321 218.28 166.801 218.3Z" fill="#FBFCFA"/>
<path d="M228.921 121.13C229.161 120.96 234.721 121.08 234.911 121.35C235.171 121.72 234.871 129.19 234.691 130.45C229.841 128.78 227.711 121.99 228.921 121.13Z" fill="#E1BF95"/>
<path d="M151.271 152.18C152.311 151.71 156.591 165.23 169.911 162.39C178.151 160.63 180.471 150.47 181.221 152.41C176.121 167.36 155.971 167.14 151.271 152.19V152.18Z" fill="#FBFCFA"/>
<path d="M178.561 127.78C171.451 128.46 159.641 127.27 151.721 127.78C151.321 127.58 151.581 127.13 151.501 126.89C157.901 127.4 164.451 126.4 170.801 126.45C173.831 126.47 183.631 127.08 178.561 127.78Z" fill="#E1BF95"/>
<path d="M128.651 121.13H148.171L149.061 131.33H184.551L185.441 121.13H204.961L205.181 148.86L128.651 149.08V121.13Z" fill="#E1BF95"/>
<path d="M165.471 137.99C168.281 137.17 167.871 141.59 166.361 141.98C164.401 142.48 163.591 138.54 165.471 137.99Z" fill="#E1BF95"/>
<path d="M165.921 138.87C166.961 138.91 166.731 140.39 166.361 140.64C165.511 141.24 164.811 138.82 165.921 138.87Z" fill="#E1BF95"/>
<path d="M245.121 236.93L236.691 238.04V354.29C236.831 354.72 245.261 352.6 244.681 355.62C221.941 356.07 199.131 356.22 176.351 356.29C169.551 356.31 162.741 356.29 155.941 356.29C133.611 356.27 111.241 356.3 88.9408 355.62C87.4308 353.4 95.7608 355.48 96.4808 353.85V238.04C95.9308 236.64 89.7908 239.55 88.0508 236.49C107.491 238.16 237.781 234.13 245.121 236.93Z" fill="#FBFCFA"/>
<path d="M141.511 237.37C143.761 237.39 145.961 237.46 148.171 237.81C152.991 257.82 179.381 257.4 184.551 237.81L234.911 237.59V343.19C228.241 345.47 227.391 354.28 226.701 354.5L208.291 353.83L208.071 322.99H182.781C177.561 305.19 155.291 305.96 149.951 323.43L125.101 322.99L124.661 354.49H106.021C104.751 345.47 98.1308 344.84 97.8108 344.06V238.02C112.331 238.21 127.021 237.2 141.511 237.35V237.37Z" fill="#E1BF95"/>
<path d="M152.161 237.37L181.221 238.04C176.531 253.3 154.301 253.3 152.161 237.37Z" fill="#E1BF95"/>
<path d="M164.591 313.25C171.331 312.4 177.321 316.43 179.451 322.79L153.941 323.46C154.051 318.82 160.221 313.8 164.591 313.25Z" fill="#E1BF95"/>
<path d="M151.721 347.41C152.931 346.55 180.241 346.55 181.451 347.41C181.731 347.61 181.831 352.73 181.671 352.96C180.801 354.18 155.301 352.49 151.721 353.18C151.351 352.92 151.351 347.67 151.721 347.41Z" fill="#E1BF95"/>
<path d="M125.981 324.34H206.731C207.541 328.17 207.851 352.44 207.401 353.85C207.331 354.08 206.641 354.74 206.511 354.29L205.841 325.23H127.751C126.241 365.6 126.591 361.75 125.981 324.34Z" fill="#FBFCFA"/>
<path d="M205.181 327.45H128.421L129.091 326.56H204.961L205.181 327.45Z" fill="#E1BF95"/>
<path d="M149.941 345.19H183.221C185.191 354.86 182.791 360.15 182.781 346.52L150.831 346.08L149.941 354.95V345.19Z" fill="#FBFCFA"/>
<path d="M98.4708 346.08C103.161 346.57 105.651 353.95 104.241 354.51L97.8108 353.84L98.4808 346.08H98.4708Z" fill="#E1BF95"/>
<path d="M234.251 344.75L234.921 353.85C224.591 356.29 228.861 348.48 234.251 344.75Z" fill="#E1BF95"/>
<path d="M149.941 237.37C153.371 250.75 169.791 255.75 179.001 244.69C181.741 241.4 182.701 236.15 183.441 238.03C180.181 249.18 167.961 255.27 157.481 249.34C151.961 246.22 148.191 237.05 149.941 237.36V237.37Z" fill="#FBFCFA"/>
<path d="M166.361 311.03C173.291 310.88 179.821 316.2 181.671 322.79C180.381 324.99 180.431 318.65 175.681 315.03C166.831 308.28 155.391 313.82 151.721 323.46C152.231 316.88 159.931 311.17 166.361 311.04V311.03Z" fill="#FBFCFA"/>
<path d="M151.721 354.07C183.841 353.7 182.031 355.39 151.281 354.96L151.721 354.07Z" fill="#FBFCFA"/>
<path d="M205.181 327.45L204.961 354.51H185.441L184.551 344.31H148.611L148.171 354.51H128.651L128.421 327.45H205.181Z" fill="#E1BF95"/>
<path d="M165.471 333.66C168.061 332.81 167.961 337.13 166.801 337.65C164.501 338.69 163.631 334.26 165.471 333.66Z" fill="#E1BF95"/>
<path d="M165.921 334.54C166.941 334.51 166.741 336.04 166.361 336.31C165.441 336.99 165.181 334.56 165.921 334.54Z" fill="#E1BF95"/>
</svg>
