<svg width="64" height="57" viewBox="0 0 64 57" fill="none" xmlns="http://www.w3.org/2000/svg">
<g clip-path="url(#clip0_3_3)">
<path d="M44.7562 0.0140926C46.4767 0.215054 47.4807 2.11538 46.6346 3.51418C42.5111 7.60921 38.1602 11.535 33.8985 15.5172C31.8378 17.4422 29.7799 19.384 27.7114 21.3081C24.1585 24.6134 21.4938 28.1479 15.9537 28.4282C4.40387 29.0125 -1.09703 15.5957 7.84009 8.94543C13.2204 4.94206 20.4938 6.19455 24.7957 10.9172C26.9525 13.2846 23.7065 16.2532 21.1742 14.2744C20.3673 13.6434 19.7928 12.8527 18.8713 12.2966C14.7772 9.83037 9.22732 12.13 8.57439 16.6067C7.72146 22.4584 15.0949 25.9884 19.7752 22.067L42.6827 0.608164C43.0543 0.319061 43.5699 0.0669773 44.0562 0.0140926C44.2229 -0.00441703 44.5915 -0.00529844 44.7562 0.0140926Z" fill="#9C4434"/>
<path d="M50.4051 6.52423C54.906 6.2175 58.3923 8.98954 60.0167 12.6791C63.7892 21.2482 55.9688 30.0306 46.2032 28.192C42.7248 27.5371 40.9592 25.8985 38.5367 23.7188C37.7386 23.0013 35.0642 20.7282 34.673 19.9948C33.4505 17.7041 36.423 15.5155 38.568 17.0871C40.3729 18.6057 42.0386 20.4417 43.8484 21.9331C49.1306 26.2864 57.1707 22.1032 55.6992 15.6539C55.1462 13.2291 52.8727 10.4139 49.8502 11.4231C47.9767 12.048 46.4062 15.0387 44.6013 15.2149C42.5984 15.4106 41.1376 13.728 41.866 11.9749C42.1415 11.3103 44.5317 9.15701 45.2209 8.59114C46.6571 7.41093 48.4767 6.65556 50.4051 6.52423Z" fill="#9C4434"/>
<path d="M60.6903 43.7955V41.6035C60.6903 41.5709 60.5334 41.2412 60.4903 41.1936C60.1971 40.871 59.3579 40.871 58.9677 40.9794C58.7168 41.5814 57.7756 45.9532 57.5148 46.126C57.4501 46.1692 57.4119 46.1701 57.3383 46.1789C56.9021 46.2309 55.1884 46.2362 54.7707 46.1727C54.6051 46.148 54.4217 46.0105 54.459 45.8378L55.9962 41.1998L56.0227 40.9265H54.7678C54.7031 40.9265 54.5805 40.7053 54.5668 40.626C54.5109 40.2972 54.5188 39.1866 54.5619 38.842C54.5874 38.6419 54.6825 38.5088 54.8962 38.4489C56.7815 38.5132 58.7903 38.3229 60.6618 38.4374C65.2265 38.7177 63.6873 42.8665 63.9628 45.7725L63.7853 46.1489H59.2324C59.1128 46.0669 59.0726 45.9576 59.056 45.8254C59.0285 45.6104 59.0305 44.1287 59.0873 44.0124C59.1011 43.985 59.303 43.7947 59.3197 43.7947H60.6912L60.6903 43.7955Z" fill="#9C4434"/>
<path d="M25.5133 38.6728C25.9584 38.2762 27.9613 38.4128 28.5447 38.6129C29.7839 39.0368 30.0427 40.2355 30.1074 41.3311C30.3221 44.9581 28.9368 46.5817 24.882 46.2847C20.3752 45.9541 21.5546 41.7692 21.4065 38.8429C21.4163 38.6349 21.5683 38.4736 21.7908 38.441C22.031 38.4066 24.0104 38.4119 24.1496 38.4657C24.2388 38.5 24.3996 38.6825 24.3879 38.7865C24.4741 40.0998 24.2634 41.5541 24.383 42.8498C24.4143 43.1909 24.4879 43.4025 24.8114 43.5884C25.4829 43.9754 26.8045 43.8987 26.8976 43.0129C26.9388 42.6233 26.9388 41.4589 26.7525 41.139C26.4123 40.5546 25.478 41.3972 25.331 40.7794C25.2712 40.5282 25.28 39.3418 25.3173 39.058C25.3329 38.9346 25.4202 38.7548 25.5133 38.6719V38.6728Z" fill="#9C4434"/>
<path d="M3.08037 38.4375C4.7127 38.3731 6.37836 38.5476 7.07737 40.1166C8.19402 42.6215 6.46757 45.2235 3.86957 46.0696C3.63722 46.1454 2.59704 46.4319 2.44116 46.3675C2.41175 46.3552 2.27842 46.2353 2.26077 46.2071C2.06372 45.8828 2.2843 44.3526 2.21764 43.8881C2.59116 43.3795 3.29507 43.4509 3.69017 42.9265C4.04016 42.462 4.21859 41.1778 3.44605 40.9953C2.52744 40.7776 1.29412 41.0447 0.363745 40.9301C0.137278 40.9028 0.0686518 40.7759 0.0441424 40.5767C0.151984 39.4291 -0.0950712 38.0699 0.0441424 36.9479C0.0686518 36.7487 0.137278 36.6226 0.363745 36.5944C0.798052 36.5416 2.3294 36.5407 2.76273 36.5944C2.85782 36.6059 3.08037 36.7187 3.08037 36.7866V38.4375Z" fill="#9C4434"/>
<path d="M32.077 21.4597C34.4436 21.1944 35.9347 23.5822 34.4544 25.2877C34.0122 25.7972 31.9662 27.7468 31.4436 28.0703C29.0015 29.5793 26.1369 26.7359 28.0907 24.5288C28.5368 24.0255 30.8005 21.911 31.3181 21.6766C31.5427 21.5752 31.8289 21.4879 32.077 21.4597Z" fill="#9C4434"/>
<path d="M46.4777 40.8191C46.3875 40.7953 46.2356 40.5634 46.2179 40.4638C46.164 40.1465 46.1787 39.2343 46.2121 38.8949C46.2326 38.6852 46.2787 38.5494 46.5032 38.4622L53.509 38.4666C53.5443 38.4807 53.6982 38.6235 53.7129 38.6561C53.7717 38.7883 53.7727 40.3775 53.7276 40.5626C53.6365 40.9398 53.1168 40.7838 52.8188 40.8287C52.1953 42.4259 52.6874 44.2795 52.4874 45.9603C52.3786 46.0952 52.26 46.1595 52.0816 46.1789C51.5375 46.2389 50.1796 46.2309 49.6247 46.1807C49.46 46.1657 49.3738 46.1551 49.2797 46.0141C49.2983 44.6691 49.1502 43.2147 49.2463 41.8732C49.264 41.6282 49.3277 41.3215 49.3806 41.0782C49.3914 41.0297 49.5444 40.8199 49.3944 40.8199H46.4758L46.4777 40.8191Z" fill="#9C4434"/>
<path d="M33.6485 38.4489C34.172 38.3423 36.0455 38.4057 36.6739 38.4348C41.917 38.6781 40.2651 42.2522 40.5543 45.7708C40.5347 45.9762 40.4053 46.1498 40.1768 46.178C39.7072 46.2353 38.0729 46.2353 37.6024 46.178C37.42 46.156 37.2935 46.059 37.2818 45.8801C37.22 44.6206 37.3749 43.2826 37.2877 42.0327C37.2445 41.4131 37.1504 40.9169 36.3759 40.8217C35.8328 40.7556 33.8044 40.9257 33.5171 40.7661C33.4848 40.7476 33.4201 40.6851 33.4054 40.6533C33.3515 40.5396 33.3416 38.9381 33.372 38.731C33.3946 38.5741 33.4779 38.4824 33.6505 38.448L33.6485 38.4489Z" fill="#9C4434"/>
<path d="M42.1121 38.4489L44.9003 38.4384L45.2101 38.6922L45.2248 45.8272C45.2219 45.9824 45.0768 46.089 44.9474 46.1648L42.1003 46.1745L41.8043 45.9083L41.7768 38.842C41.7817 38.6543 41.917 38.4983 42.1111 38.4489H42.1121Z" fill="#9C4434"/>
<path d="M17.0723 38.4489C17.9164 38.5062 18.9909 38.3334 19.8066 38.4348C19.9791 38.456 20.0458 38.5362 20.1526 38.6552V42.7114L19.9487 42.9009H16.9742C16.7978 42.7828 16.7566 42.6656 16.737 42.4717C16.6223 41.3206 16.8292 40.0108 16.739 38.842C16.7439 38.6543 16.8792 38.4983 17.0733 38.4489H17.0723Z" fill="#9C4434"/>
<path d="M41.8954 51.7503L41.6915 55.4849H39.9406C39.8082 55.4055 39.8249 54.7956 39.8788 54.7242L40.6327 54.666L40.7288 54.5382C40.7484 53.6066 40.6572 52.6688 40.8454 51.7512C40.819 51.7265 40.419 51.7785 40.3004 51.7424C40.0817 51.6745 40.0896 51.0055 40.2611 50.9121C40.3729 50.8504 42.5611 50.8627 42.8611 50.8839C43.6042 50.935 44.3875 51.2135 44.6856 51.8984C44.9228 52.444 44.964 54.6264 44.8758 55.2451C44.8562 55.3817 44.8277 55.4567 44.667 55.4849C44.5062 55.5131 43.8131 55.5281 43.7346 55.3782C43.5827 54.503 43.8454 53.3977 43.6915 52.5498C43.6405 52.266 43.4444 52.0236 43.1748 51.8931C43.1248 51.8693 42.8209 51.753 42.8013 51.753H41.8964L41.8954 51.7503Z" fill="#9C4434"/>
<path d="M9.70474 36.598H11.689L11.8302 36.8879C11.5655 37.9218 11.5567 39.1091 11.2949 40.1289C11.2224 40.4127 11.0851 40.6304 10.7586 40.6604C10.2243 40.7097 8.75672 40.723 8.24202 40.6604C7.91947 40.6207 7.95771 40.4268 8.02241 40.1809C8.19496 39.526 9.02632 37.6133 9.37239 36.9955C9.46455 36.8307 9.54788 36.7178 9.70376 36.5997L9.70474 36.598Z" fill="#9C4434"/>
<path d="M13.6743 36.598H15.6586L15.7998 36.8879C15.5351 37.9218 15.5262 39.1091 15.2645 40.1289C15.1919 40.4127 15.0547 40.6304 14.7282 40.6604C14.1939 40.7097 12.7263 40.723 12.2116 40.6604C11.889 40.6207 11.9273 40.4268 11.992 40.1809C12.1645 39.526 12.9959 37.6133 13.342 36.9955C13.4341 36.8307 13.5175 36.7178 13.6733 36.5997L13.6743 36.598Z" fill="#9C4434"/>
<path d="M7.58812 54.6317C8.40478 54.3787 9.7077 54.9446 10.1351 53.9891C10.3224 53.5696 10.3293 52.7084 10.1077 52.2968C9.66358 51.4691 8.34399 51.9768 7.58812 51.7371C7.48322 51.6401 7.48028 51.0646 7.56851 50.9597C7.62243 50.8945 7.69596 50.8909 7.77537 50.8812C8.1587 50.8345 9.06261 50.8557 9.46358 50.8909C10.6469 50.9941 11.2792 51.6666 11.3704 52.749C11.4783 54.0297 11.1587 55.3024 9.57241 55.469C9.2028 55.5078 8.05478 55.5413 7.72243 55.4822C7.66165 55.4716 7.60969 55.4549 7.56949 55.4082C7.48028 55.3024 7.48518 54.7277 7.5891 54.6308L7.58812 54.6317Z" fill="#9C4434"/>
<path d="M58.8364 51.738C58.7324 51.6419 58.7275 51.0664 58.8168 50.9606L58.9697 50.8866C60.7442 51.0205 63.1775 50.2422 63.3735 52.5903C63.4971 54.0605 62.7226 55.0979 61.201 55.499C60.9893 55.5545 60.6922 55.6964 60.6334 55.402C60.6099 55.2839 60.6128 54.8291 60.6618 54.7277C60.7569 54.5321 61.6216 54.339 61.9412 53.9116C62.2608 53.4841 62.3589 52.3127 61.8785 51.9742C61.3128 51.5767 59.0981 51.9804 58.8364 51.7371V51.738Z" fill="#9C4434"/>
<path d="M20.7075 51.7503H18.4605C18.2478 51.7503 18.2977 51.0223 18.3732 50.8848H22.43C22.6124 50.8848 22.6134 51.5167 22.5467 51.6428C22.4438 51.8385 22.0624 51.6974 21.8742 51.7768C21.7712 51.8349 21.6742 52.2633 21.6585 52.3885C21.5428 53.2857 21.7702 54.3822 21.6448 55.2442C21.634 55.3156 21.5702 55.4849 21.4957 55.4849H20.6203C20.5369 55.4373 20.5399 55.3773 20.5301 55.298C20.4438 54.6131 20.4634 52.9658 20.5301 52.2624C20.5487 52.0659 20.6036 51.9187 20.7075 51.7503Z" fill="#9C4434"/>
<path d="M30.8427 50.8927C32.2201 50.9571 34.4465 50.467 34.9916 52.0632C35.1759 52.6035 35.2112 54.6519 35.1269 55.2434C35.1161 55.3192 35.1132 55.3835 35.0426 55.4355C34.9416 55.5095 34.0328 55.5686 33.9691 55.3386C33.871 54.4801 34.0602 53.4849 33.9573 52.6432C33.7906 51.2735 31.7819 51.9072 30.8015 51.7265L30.7721 50.935L30.8427 50.8918V50.8927Z" fill="#9C4434"/>
<path d="M4.42249 52.6979C4.34014 52.087 3.92054 51.7997 3.28624 51.7486C2.88428 51.716 1.50783 51.8305 1.27058 51.7239C1.09803 51.6463 1.0696 50.9624 1.31176 50.8954C2.42056 50.9571 4.29701 50.5842 5.08915 51.4841C5.22052 51.634 5.53228 52.2016 5.53228 52.3726V55.4029L5.44503 55.484H4.51073L4.42347 55.4029C4.34112 54.5523 4.53524 53.5255 4.42347 52.697L4.42249 52.6979Z" fill="#9C4434"/>
<path d="M27.5957 52.6979C27.5133 52.087 27.0937 51.7997 26.4594 51.7486C26.0574 51.716 24.681 51.8305 24.4437 51.7239C24.2712 51.6463 24.2428 50.9624 24.4849 50.8954C25.5937 50.9571 27.4702 50.5842 28.2623 51.4841C28.3937 51.634 28.7054 52.2016 28.7054 52.3726V55.4029L28.6182 55.484H27.6839L27.5966 55.4029C27.5143 54.5523 27.7084 53.5255 27.5966 52.697L27.5957 52.6979Z" fill="#9C4434"/>
<path d="M53.0825 50.8936C53.2384 50.8451 54.5188 50.8653 54.7678 50.883C55.5835 50.9385 56.3452 51.1968 56.6315 51.9689C56.8315 52.5083 56.8668 54.6431 56.7815 55.2442C56.7707 55.32 56.7678 55.3843 56.6972 55.4363C56.5962 55.5104 55.6874 55.5694 55.6237 55.3394C55.5256 54.4809 55.7148 53.4858 55.6119 52.644C55.554 52.1663 55.1982 51.8367 54.6933 51.7644C54.358 51.7159 53.21 51.8164 53.0433 51.7247C52.8766 51.6331 52.8649 50.9623 53.0825 50.8944V50.8936Z" fill="#9C4434"/>
<path d="M15.6292 52.6432C15.4537 51.4365 14.0704 51.8596 13.2037 51.753C12.7871 51.7018 12.888 50.9535 13.1018 50.8953C13.3155 50.8372 14.5537 50.8636 14.84 50.8857C15.4047 50.928 16.0419 51.1263 16.388 51.5617C16.487 51.686 16.738 52.191 16.738 52.3188V55.4038L16.6507 55.4849H15.7164L15.6292 55.4038V52.6441V52.6432Z" fill="#9C4434"/>
<path d="M58.8226 57C58.6873 55.6153 58.804 54.1989 58.7618 52.8036C58.7736 52.5877 58.8883 52.5771 59.0824 52.5595C59.3589 52.5348 59.9255 52.4775 59.9285 52.8098C59.8216 54.0376 60.0844 55.5051 59.9334 56.7039C59.9177 56.8255 59.8902 56.918 59.7863 57H58.8236H58.8226Z" fill="#9C4434"/>
<path d="M1.31173 52.5735C1.4882 52.5251 2.24505 52.5057 2.30976 52.7084C2.24799 53.492 2.43329 54.4862 2.32446 55.2433C2.30976 55.3491 2.29015 55.439 2.16368 55.4734C1.98721 55.5219 1.23036 55.5412 1.16566 55.3385C1.22742 54.5549 1.04213 53.5607 1.15095 52.8036C1.16566 52.6978 1.18527 52.6079 1.31173 52.5735Z" fill="#9C4434"/>
<path d="M24.4839 52.5735C24.6604 52.5251 25.4173 52.5057 25.482 52.7084C25.4202 53.492 25.6055 54.4862 25.4967 55.2433C25.482 55.3491 25.4624 55.439 25.3359 55.4734C25.1594 55.5219 24.4026 55.5412 24.3379 55.3385C24.3996 54.5549 24.2143 53.5607 24.3232 52.8036C24.3379 52.6978 24.3575 52.6079 24.4839 52.5735Z" fill="#9C4434"/>
<path d="M30.8348 52.5621H31.7681L31.8564 52.6432V55.4037L31.7681 55.4848H30.8348L30.7476 55.4037V52.6432L30.8348 52.5621Z" fill="#9C4434"/>
<path d="M46.8865 50.8848H47.8787L47.9659 50.9659V53.5096L47.8787 53.5907H46.8865L46.7983 53.5096V50.9659L46.8865 50.8848Z" fill="#9C4434"/>
<path d="M50.0385 50.8848H51.0306L51.1179 50.9659V53.5096L51.0306 53.5907H50.0385L49.9502 53.5096V50.9659L50.0385 50.8848Z" fill="#9C4434"/>
</g>
<defs>
<clipPath id="clip0_3_3">
<rect width="64" height="57" fill="white"/>
</clipPath>
</defs>
</svg>
