<svg width="114" height="196" viewBox="0 0 114 196" fill="none" xmlns="http://www.w3.org/2000/svg">
<g clip-path="url(#clip0_159_154)">
<path d="M76.09 95.4999C76.09 98.1799 76.09 99.9299 76.09 101.68C76.09 120.84 76.01 140 76.15 159.15C76.18 163.49 74.7 166.75 71.63 169.71C64.25 176.83 57.04 184.13 49.76 191.36C45.41 195.68 41.83 196.69 38.49 194.16C34.31 191 34.91 187.11 37.28 183.11C37.41 182.89 37.23 182.5 37.09 181.11C33.08 184.96 29.51 188.34 25.99 191.76C21.76 195.87 16.8 196.58 13.73 193.46C10.83 190.51 11.59 185.71 15.61 181.64C22.23 174.93 28.88 168.25 35.43 161.48C36.38 160.5 37.4 159.04 37.41 157.79C37.53 137.15 37.5 116.5 37.5 94.3599C33.52 98.5199 30.44 101.79 27.3 105.01C23.53 108.88 21.06 109.16 16.93 106.03C12.19 102.43 7.58998 98.6399 2.80998 95.1099C0.139982 93.1399 -0.670018 90.9699 0.569982 87.8199C1.20998 86.1899 1.49998 84.3199 1.52998 82.5599C1.62998 74.3999 1.51998 66.2299 1.57998 58.0699C1.76998 35.1499 11.14 17.2999 31.63 6.38994C57.52 -7.37006 91.47 1.37994 106.45 29.6499C110.89 38.0299 112.77 46.9499 112.71 56.4899C112.63 67.6099 113.37 78.7199 113.45 89.8399C113.46 91.5099 112.25 93.6599 110.92 94.7699C106.1 98.7999 100.99 102.48 95.99 106.3C92.5 108.97 89.43 108.69 86.36 105.39C83.44 102.25 80.19 99.4099 76.1 95.4899L76.09 95.4999ZM108.31 66.7199C108.31 66.7199 108.21 66.7199 108.16 66.7199C108.16 61.5499 108.93 56.2399 107.97 51.2599C106.65 44.3399 105.17 37.0399 101.78 31.0099C88.75 7.81994 63.54 -1.55006 38.61 8.17994C21.01 15.0499 9.52998 28.4399 7.33998 47.7699C6.03998 59.2999 6.38998 71.0299 6.33998 82.6799C6.33998 84.4999 7.71998 86.7499 9.14998 88.0499C11.95 90.5899 15.38 92.4399 18.29 94.8899C20.91 97.0899 22.88 96.7699 25.02 94.3399C29.59 89.1299 34.05 83.7899 38.98 78.9399C40.92 77.0299 43.93 75.3899 46.58 75.1699C53.2 74.6299 59.93 74.5999 66.55 75.1699C69.34 75.4099 72.49 77.1199 74.56 79.1099C79.43 83.7899 83.87 88.9499 88.25 94.1099C90.59 96.8699 92.44 96.8599 95.35 94.7799C108.25 85.5599 108.32 85.6499 108.32 69.7199V66.7199H108.31ZM52.32 136.36C52.32 138.79 52.47 140.6 52.3 142.37C51.41 151.49 54.76 160.98 49.99 170.06C53.33 167.45 56.15 164.55 58.76 161.46C59.85 160.17 61.16 158.53 61.23 156.99C61.52 151.2 61.52 145.38 61.2 139.59C61.14 138.46 59.35 136.96 58.04 136.47C56.6 135.93 54.79 136.35 52.32 136.35V136.36Z" fill="#FEECD8"/>
<path d="M43.39 55.77C43.43 48.2 49.42 42.38 57.01 42.54C64.14 42.69 70.25 48.79 70.3 55.82C70.36 63.17 64.2 69.25 56.7 69.24C48.93 69.24 43.34 63.58 43.38 55.77H43.39Z" fill="#FEECD8"/>
</g>
<defs>
<clipPath id="clip0_159_154">
<rect width="113.44" height="195.54" fill="white"/>
</clipPath>
</defs>
</svg>
