<svg width="66" height="83" viewBox="0 0 66 83" fill="none" xmlns="http://www.w3.org/2000/svg">
<g clip-path="url(#clip0_13_42)">
<path d="M42.9443 27.5817C41.8893 31.1862 40.8904 34.5851 39.8202 38.2359C40.7834 38.3182 41.5071 38.421 42.2359 38.4364C46.053 38.4981 49.8855 38.7347 53.6924 38.529C57.0509 38.349 59.1098 41.6553 57.8204 44.6068C55.4608 49.9956 53.4427 55.5387 51.2818 61.0149C51.2207 61.1743 51.1646 61.3389 51.0933 61.4931C50.2371 63.3031 49.2076 63.879 47.7348 63.3751C46.1142 62.8198 45.5994 61.6988 46.1702 59.6266C46.7155 57.6521 47.3984 55.7187 47.9794 53.7544C48.6063 51.6411 49.1873 49.5123 49.7937 47.3681C47.9641 47.1264 34.7799 48.8387 32.5121 49.6151C31.7374 52.6335 30.8099 55.7444 30.1729 58.9118C29.6989 61.2669 28.5573 62.8763 26.58 64.1978C21.9933 67.2676 17.5085 70.4968 13.0339 73.7311C12.0452 74.4458 11.0566 74.8983 9.99143 74.3378C7.97328 73.2734 7.93761 71.1447 9.41554 69.926C12.6364 67.2779 15.7146 64.4549 18.8947 61.7554C23.2674 58.0428 23.2724 58.0634 23.67 52.3661C23.9808 47.9285 24.2051 43.4756 24.679 39.0535C24.9695 36.3436 25.6524 33.6749 26.1672 30.9908C26.5851 28.8157 27.0081 26.6407 27.4922 24.116C25.1071 24.5839 22.931 25.0107 20.4899 25.4889C20.4899 27.9673 20.5 30.3481 20.4848 32.7237C20.4848 33.4075 20.5 34.1069 20.3472 34.765C20.0261 36.1277 18.8692 36.9555 17.5493 36.8938C16.2293 36.8321 15.0419 35.8808 15.0164 34.4771C14.9603 30.9702 14.9807 27.4531 15.1693 23.9514C15.2508 22.4242 16.2701 21.3547 17.7633 20.7531C22.1716 18.9842 26.529 17.092 30.9577 15.3746C31.926 14.9992 33.1287 14.9272 34.1582 15.102C36.3241 15.4671 38.4442 16.1099 40.5949 16.6035C41.9709 16.9223 43.0411 17.673 44.0247 18.6809C46.8277 21.545 49.7224 24.3165 52.4999 27.2012C53.2898 28.0239 54.1052 28.3221 55.1856 28.3067C57.479 28.2707 59.7723 28.2913 62.0606 28.353C62.8097 28.3735 63.5946 28.4712 64.2877 28.7438C65.6433 29.2734 66.1937 30.4149 65.9491 31.8392C65.7401 33.0682 64.8585 33.9372 63.4621 33.9526C59.9813 33.9937 56.5005 33.9732 53.0248 33.8549C52.3317 33.8292 51.6029 33.351 50.9812 32.9396C48.7897 31.4793 46.6391 29.9573 44.463 28.4661C44.0655 28.1936 43.6272 27.9725 42.9494 27.5765L42.9443 27.5817Z" fill="#FEECD8"/>
<path d="M36.2986 6.2578C36.3649 2.78695 39.2545 -0.0308604 42.7098 -8.44701e-06C46.0887 0.0308435 49.1108 3.04405 49.0038 6.40692C48.8866 10.1143 46.4047 12.7367 42.7098 12.7624C38.9131 12.783 36.3445 9.96518 36.2986 6.26294V6.2578Z" fill="#FEECD8"/>
</g>
<defs>
<clipPath id="clip0_13_42">
<rect width="66" height="83" fill="white"/>
</clipPath>
</defs>
</svg>
