<svg width="37" height="62" viewBox="0 0 37 62" fill="none" xmlns="http://www.w3.org/2000/svg">
<g clip-path="url(#clip0_116_93)">
<path d="M9.39613 60.2272C10.5002 60.2369 11.4208 59.6395 11.8072 58.6062C12.4088 56.9973 12.981 55.3787 13.5678 53.765C14.0569 52.4172 14.5398 51.067 15.0399 49.7228C15.2918 49.0453 15.7552 48.63 16.5218 48.5523C17.4926 48.454 18.4572 48.3022 19.4256 48.1747C22.0665 47.825 24.7074 47.4814 27.3472 47.1256C28.5784 46.9605 29.5198 46.3582 30.0835 45.2375C31.7279 41.9663 33.381 38.7 34.9961 35.4143C35.5658 34.2547 36.1087 33.0721 36.5379 31.8554C37.1822 30.0316 35.9522 28.2273 34.0106 28.0694C33.4482 28.0233 32.8613 28.0378 32.3087 28.1459C29.8634 28.6267 27.4254 29.1464 24.9874 29.6673C24.1438 29.847 23.475 29.7438 22.7879 29.0857C20.839 27.2207 18.8032 25.4442 16.7834 23.652C16.4729 23.3764 16.0951 23.1226 15.7038 23.0036C14.7294 22.7074 13.7952 23.108 13.2854 23.9507C12.7707 24.8031 12.8721 25.851 13.5837 26.5747C14.0667 27.0652 14.5912 27.5169 15.1023 27.9808C16.7553 29.4803 18.412 30.9739 20.0626 32.4759C20.7766 33.1255 21.5298 33.667 22.5311 33.8249C23.3356 33.9512 24.1035 33.8528 24.8823 33.6865C26.7297 33.2906 28.5808 32.9057 30.4319 32.5256C30.9136 32.4261 31.2572 32.6179 31.3293 32.9931C31.4027 33.378 31.1362 33.6986 30.6813 33.7909C28.8302 34.1673 26.9816 34.5546 25.128 34.9201C24.7356 34.9978 24.5436 35.1727 24.4776 35.577C24.2428 37.011 23.9726 38.4402 23.722 39.8718C23.3686 41.9007 22.9089 42.3962 20.861 42.707C18.5893 43.0506 16.3102 43.3457 14.0312 43.6347C12.4063 43.8411 11.279 44.6024 10.7655 46.2101C10.2116 47.9404 9.59909 49.6536 9.00488 51.3718C8.36421 53.2247 7.73454 55.0813 7.06086 56.922C6.52044 58.3985 7.56092 60.2199 9.39491 60.2296L9.39613 60.2272ZM22.2609 40.4874C21.3745 40.2506 20.5345 40.0138 19.6897 39.8013C17.6405 39.2853 15.595 38.7571 13.5373 38.2799C12.3488 38.0043 11.3365 38.2957 10.6017 39.3581C10.0955 40.0903 9.52084 40.7764 8.97187 41.4794C7.32495 43.5885 5.67314 45.694 4.02989 47.8056C3.41612 48.5948 3.35743 49.7811 3.86606 50.6068C4.327 51.3548 5.33325 51.7834 6.32604 51.5867C7.12077 51.4288 7.77122 51.1326 8.04265 50.2025C8.49992 48.6337 9.0868 47.1013 9.65044 45.5653C10.2642 43.8945 11.4698 42.8066 13.223 42.5115C15.8285 42.0744 18.4548 41.7611 21.0762 41.4199C21.6435 41.3458 22.0188 41.0994 22.2621 40.4886L22.2609 40.4874ZM27.2811 21.3086C27.2616 23.9483 29.3976 26.0623 32.0996 26.0756C34.8714 26.0902 36.9646 24.0649 37 21.3341C37.033 18.8303 34.8151 16.5961 32.2683 16.567C29.5064 16.5354 27.3019 18.6312 27.2824 21.3086H27.2811ZM20.2778 14.725C19.9318 15.1779 19.6285 15.6344 19.2617 16.0315C19.049 16.261 18.9561 16.4747 18.9585 16.7782C18.9695 18.2147 18.9793 19.6511 18.9561 21.0876C18.9487 21.5793 19.0747 21.997 19.3559 22.3892C20.7265 24.298 22.102 26.2056 23.4554 28.1265C23.7159 28.4968 23.991 28.5964 24.4275 28.4968C25.5547 28.2382 26.6918 28.0245 27.8215 27.7792C28.6285 27.6044 29.4318 27.4064 30.2363 27.2182C29.543 26.8758 28.895 26.5431 28.516 25.8668C28.3241 25.5232 28.0649 25.3289 27.6381 25.3483C27.154 25.3714 26.8141 25.1176 26.5157 24.7376C25.8262 23.8621 25.0901 23.0218 24.3871 22.1573C24.0814 21.7809 23.7599 21.4033 23.5337 20.9795C22.8759 19.7483 22.2719 18.4903 21.6312 17.2506C21.1886 16.3933 20.7204 15.5494 20.2778 14.7262V14.725ZM19.2385 12.7458C19.1749 12.3487 19.1505 11.9407 19.0404 11.5583C18.7556 10.5687 18.2384 9.75512 17.2065 9.37142C15.9569 8.90637 14.4481 9.62034 14.244 10.8965C14.0165 12.3172 14.3039 13.6868 15.2698 14.8148C16.1562 15.8494 17.7053 15.7777 18.5722 14.7238C19.0465 14.147 19.2299 13.4852 19.2397 12.747L19.2385 12.7458ZM6.7503 53.0134C6.47276 53.0134 6.24779 53.0389 6.03138 53.0086C5.55699 52.9406 5.27211 53.1494 5.05448 53.5501C4.86252 53.9047 4.62044 54.2313 4.39791 54.5689C4.17539 54.9064 3.94675 55.2403 3.72545 55.5791C3.52494 55.8863 3.47848 56.2773 3.14102 56.5213C3.03954 56.5942 3.086 56.8516 3.03588 57.0167C2.98697 57.1746 2.93929 57.4102 2.82436 57.4587C2.21303 57.721 1.8878 58.1715 1.7851 58.8077C1.77654 58.86 1.72519 58.9085 1.68606 58.9535C1.46599 59.2072 1.22268 59.444 1.0295 59.7172C0.803306 60.0365 0.696935 60.4348 0.359482 60.6886C0.283678 60.7457 0.258002 60.8987 0.250666 61.0092C0.234771 61.2532 0.245775 61.4985 0.245775 61.779C0.683486 62.0971 0.802084 62.0886 1.13954 61.6612C1.21412 61.5665 1.26547 61.4548 1.33149 61.354C2.17513 60.0705 3.02243 58.7883 3.86484 57.5037C4.67301 56.2712 5.47752 55.0351 6.28692 53.7942C6.09129 53.5878 5.93479 53.4214 5.68782 53.1603C6.0595 53.2308 6.30892 53.2781 6.59136 53.3328C6.63293 53.2478 6.68306 53.1494 6.74908 53.0158L6.7503 53.0134ZM16.4301 7.83299C16.748 7.88156 16.9888 7.90827 17.2248 7.95805C17.517 8.01998 17.638 7.92527 17.6356 7.62049C17.6222 5.33652 17.616 3.05255 17.6075 0.768573C17.6075 0.667791 17.6393 0.543939 17.5928 0.469871C17.4815 0.295021 17.3568 0.0558173 17.1906 0.0108906C17.0267 -0.034036 16.7357 0.0728166 16.6269 0.211239C16.4936 0.380018 16.4423 0.650792 16.4411 0.877854C16.4252 2.67735 16.4301 4.47684 16.4288 6.27634C16.4288 6.77903 16.4288 7.28294 16.4288 7.83299H16.4301ZM16.4362 16.9798C16.4362 18.5437 16.4325 20.0555 16.4435 21.5684C16.4435 21.6886 16.5242 21.8562 16.6208 21.9193C16.9057 22.1027 17.2175 22.2423 17.5989 22.4426V16.8475C17.2272 16.89 16.8702 16.9312 16.4362 16.981V16.9798ZM12.2547 36.8763C12.6288 36.8763 12.8697 36.8617 13.1081 36.8799C13.3685 36.8993 13.5263 36.801 13.6192 36.5605C13.8943 35.8429 14.1767 35.1278 14.4591 34.4065C14.2611 34.3883 14.085 34.3713 13.8662 34.3506C13.7928 34.0107 13.7219 33.6852 13.6339 33.2845C13.1656 34.5024 12.7291 35.6402 12.2547 36.8763ZM14.1388 34.1491C14.1804 34.1491 14.222 34.1491 14.2635 34.1491C14.31 33.9694 14.3833 33.7921 14.3956 33.6112C14.4176 33.2894 14.3992 32.9652 14.4017 32.641C14.4078 31.8542 14.497 31.7753 15.3199 31.7546C15.4153 31.7522 15.507 31.6538 15.6011 31.5992C15.5375 31.5105 15.4935 31.3891 15.4067 31.3406C15.0851 31.1608 14.4701 31.2859 14.2574 31.7194C13.9114 32.4273 13.9566 33.1631 14.0227 33.905C14.03 33.9888 14.0985 34.0665 14.1388 34.1479V34.1491ZM15.0375 29.8046C14.8724 30.2101 14.7232 30.5756 14.5802 30.9289C14.9959 30.9666 15.3823 31.0018 15.798 31.0406C15.8835 30.4056 15.5082 30.1118 15.0375 29.8046ZM14.7196 33.7059C14.8651 33.168 15.2918 32.7199 15.3358 31.9659C15.1096 32.2306 14.9531 32.2658 14.7196 32.057V33.7059Z" fill="white"/>
<path d="M9.39612 60.2272C7.56214 60.2175 6.52166 58.3962 7.06207 56.9196C7.73575 55.0789 8.3642 53.2211 9.00609 51.3694C9.6003 49.6512 10.2129 47.9392 10.7667 46.2077C11.2815 44.6012 12.4075 43.8387 14.0324 43.6323C16.3115 43.3433 18.5905 43.0482 20.8622 42.7046C22.9101 42.395 23.3686 41.8996 23.7232 39.8694C23.9726 38.4378 24.244 37.0086 24.4788 35.5746C24.5448 35.1703 24.7368 34.9954 25.1292 34.9177C26.9828 34.5522 28.8315 34.1649 30.6826 33.7885C31.1374 33.6962 31.4039 33.3757 31.3306 32.9907C31.2584 32.6155 30.9149 32.4249 30.4331 32.5233C28.582 32.9045 26.7309 33.2882 24.8835 33.6841C24.1047 33.8504 23.3381 33.9488 22.5323 33.8225C21.531 33.6659 20.7778 33.1243 20.0638 32.4735C18.4132 30.9715 16.7565 29.478 15.1035 27.9784C14.5924 27.5145 14.0679 27.0628 13.5849 26.5723C12.8734 25.8486 12.7706 24.8007 13.2866 23.9483C13.7965 23.1057 14.7293 22.705 15.705 23.0012C16.0963 23.1202 16.4741 23.3752 16.7846 23.6496C18.8045 25.4418 20.8402 27.2183 22.7891 29.0833C23.4762 29.7414 24.145 29.8447 24.9886 29.665C27.4266 29.144 29.8646 28.6256 32.3099 28.1435C32.8613 28.0354 33.4494 28.0209 34.0118 28.067C35.9534 28.2249 37.1834 30.0292 36.5391 31.853C36.1099 33.0697 35.5671 34.2523 34.9973 35.4119C33.3822 38.6964 31.7279 41.9639 30.0847 45.2351C29.521 46.3558 28.5796 46.9569 27.3484 47.1232C24.7087 47.4778 22.0677 47.8226 19.4268 48.1723C18.4597 48.2998 17.4938 48.4528 16.523 48.5499C15.7564 48.6276 15.293 49.0429 15.0411 49.7205C14.5411 51.0646 14.0581 52.4148 13.569 53.7626C12.9834 55.3764 12.4112 56.9961 11.8084 58.6038C11.4221 59.6371 10.5014 60.2345 9.39734 60.2248L9.39612 60.2272Z" fill="#FEECD8"/>
<path d="M22.2609 40.4874C22.0176 41.0982 21.641 41.3447 21.0749 41.4187C18.4536 41.7612 15.8273 42.0732 13.2218 42.5103C11.4685 42.8042 10.263 43.8934 9.64923 45.5641C9.08558 47.1001 8.49993 48.6337 8.04143 50.2013C7.77001 51.1302 7.11955 51.4277 6.32483 51.5855C5.33203 51.7834 4.32701 51.3536 3.86484 50.6056C3.35622 49.7812 3.41491 48.5937 4.02868 47.8044C5.67193 45.6916 7.32374 43.5874 8.97065 41.4782C9.51963 40.7752 10.0943 40.0892 10.6005 39.357C11.3353 38.2957 12.3476 38.0031 13.536 38.2787C15.5938 38.7559 17.6405 39.2841 19.6885 39.8002C20.5333 40.0127 21.3733 40.2482 22.2597 40.4862L22.2609 40.4874Z" fill="#FEECD8"/>
<path d="M27.2811 21.3086C27.3007 18.6312 29.5052 16.5354 32.2671 16.567C34.8139 16.5961 37.0318 18.8315 36.9988 21.3341C36.9633 24.0637 34.8702 26.089 32.0984 26.0757C29.3963 26.0623 27.2604 23.9483 27.2799 21.3086H27.2811Z" fill="#FEECD8"/>
<path d="M20.2777 14.725C20.7203 15.5482 21.1886 16.3921 21.6312 17.2494C22.2719 18.4891 22.8771 19.747 23.5337 20.9783C23.7599 21.402 24.0814 21.7797 24.3871 22.1561C25.0901 23.0218 25.8262 23.8609 26.5157 24.7363C26.8153 25.1164 27.154 25.3702 27.6381 25.3471C28.0636 25.3264 28.3228 25.5219 28.516 25.8656C28.895 26.5431 29.543 26.8758 30.2363 27.217C29.4318 27.4052 28.6285 27.6019 27.8215 27.778C26.6918 28.0233 25.5547 28.237 24.4274 28.4956C23.9922 28.5952 23.7159 28.4956 23.4554 28.1253C22.1019 26.2043 20.7265 24.298 19.3559 22.388C19.0747 21.9958 18.9487 21.5781 18.9561 21.0863C18.9793 19.6499 18.9695 18.2135 18.9585 16.777C18.9561 16.4735 19.049 16.2598 19.2617 16.0303C19.6297 15.6332 19.9317 15.1779 20.2777 14.7238V14.725Z" fill="#FEECD8"/>
<path d="M19.2385 12.7458C19.2275 13.4841 19.0441 14.1458 18.5709 14.7226C17.7041 15.7766 16.155 15.8482 15.2686 14.8137C14.3027 13.6856 14.0153 12.316 14.2427 10.8953C14.4469 9.61917 15.9569 8.9052 17.2052 9.37026C18.2372 9.75395 18.7543 10.5687 19.0392 11.5571C19.1493 11.9408 19.1737 12.3488 19.2373 12.7446L19.2385 12.7458Z" fill="#FEECD8"/>
<path d="M6.7503 53.0135C6.68428 53.1471 6.63537 53.2454 6.59258 53.3304C6.31137 53.277 6.06072 53.2296 5.68904 53.158C5.93601 53.4191 6.09251 53.5854 6.28814 53.7918C5.47874 55.0328 4.67423 56.2689 3.86606 57.5013C3.02365 58.786 2.17635 60.0682 1.33271 61.3516C1.26669 61.4524 1.21534 61.5641 1.14076 61.6588C0.803304 62.0875 0.684707 62.096 0.246996 61.7766C0.246996 61.4974 0.235992 61.2509 0.251887 61.0068C0.259223 60.8951 0.284898 60.7421 0.360703 60.6862C0.698156 60.4337 0.803304 60.0354 1.03072 59.7149C1.2239 59.4429 1.46843 59.2049 1.68728 58.9511C1.72519 58.9062 1.77776 58.8576 1.78632 58.8054C1.88902 58.1691 2.21547 57.7199 2.82558 57.4564C2.94051 57.4066 2.98819 57.1723 3.0371 57.0144C3.08722 56.8505 3.04076 56.5931 3.14224 56.519C3.47847 56.2761 3.52494 55.884 3.72667 55.5767C3.94797 55.238 4.17661 54.9041 4.39913 54.5665C4.62166 54.229 4.86374 53.9011 5.0557 53.5478C5.27211 53.1471 5.55699 52.9382 6.0326 53.0062C6.24901 53.0366 6.47398 53.0111 6.75152 53.0111L6.7503 53.0135Z" fill="#FEECD8"/>
<path d="M16.4301 7.83299C16.4301 7.28294 16.4301 6.77903 16.4301 6.27634C16.4301 4.47684 16.4264 2.67735 16.4423 0.877854C16.4447 0.650792 16.4949 0.380018 16.6281 0.211239C16.7369 0.0728166 17.0279 -0.034036 17.1918 0.0108906C17.358 0.0558173 17.4828 0.296236 17.594 0.469871C17.6405 0.542725 17.6087 0.667791 17.6087 0.768573C17.6173 3.05255 17.6221 5.33652 17.6368 7.62049C17.6393 7.92527 17.517 8.01998 17.226 7.95805C16.99 7.90827 16.7479 7.88156 16.4313 7.83299H16.4301Z" fill="#FEECD8"/>
<path d="M16.4361 16.9799C16.8714 16.9301 17.2284 16.8888 17.5989 16.8463V22.4415C17.2174 22.2424 16.9056 22.1015 16.6208 21.9182C16.5242 21.8562 16.4447 21.6887 16.4435 21.5673C16.4313 20.0543 16.4361 18.5414 16.4361 16.9787V16.9799Z" fill="#FEECD8"/>
<path d="M12.2547 36.8763C12.7291 35.6402 13.1668 34.5024 13.6339 33.2845C13.7207 33.6865 13.7916 34.0119 13.8662 34.3506C14.085 34.3713 14.2611 34.3871 14.4591 34.4065C14.1779 35.1278 13.8943 35.8417 13.6192 36.5606C13.5263 36.8022 13.3685 36.9005 13.1081 36.8799C12.8697 36.8617 12.6288 36.8763 12.2547 36.8763Z" fill="#FEECD8"/>
<path d="M14.1388 34.1491C14.0984 34.0678 14.0312 33.9901 14.0226 33.9063C13.9554 33.1632 13.9101 32.4274 14.2574 31.7207C14.4701 31.2872 15.0851 31.1621 15.4067 31.3418C15.4935 31.3904 15.5375 31.5118 15.6011 31.6005C15.5081 31.6551 15.4152 31.7535 15.3198 31.7559C14.497 31.7753 14.4077 31.8554 14.4016 32.6423C14.3992 32.9653 14.4163 33.2907 14.3955 33.6124C14.3833 33.7934 14.3099 33.9719 14.2635 34.1504C14.2219 34.1504 14.1803 34.1504 14.1388 34.1504V34.1491Z" fill="#FEECD8"/>
<path d="M15.0374 29.8046C15.5081 30.1106 15.8847 30.4044 15.7979 31.0407C15.3822 31.003 14.9958 30.9666 14.5801 30.9289C14.6144 30.8439 14.6498 30.7577 14.6853 30.6703C14.7965 30.3971 14.9127 30.113 15.0374 29.8046Z" fill="#FEECD8"/>
<path d="M14.7195 33.7059V32.057C14.9531 32.2659 15.1096 32.2306 15.3358 31.9659C15.2917 32.72 14.865 33.168 14.7195 33.7059Z" fill="#FEECD8"/>
<path d="M13.6351 33.2846L13.6938 34.7477L14.4591 34.4065L15.7979 31.0407L14.5802 30.929L13.6351 33.2846Z" fill="#FEECD8"/>
<path d="M6.7503 53.0134L6.20988 53.9132L5.45551 53.4639L5.50197 53.2041L6.7503 53.0134Z" fill="#FEECD8"/>
<path d="M5.13515 54.5398L0.814289 61.9733L0.246976 61.7766L0 61.5824L0.303219 60.764L2.05406 58.0781L3.09454 56.5931L3.72543 55.5792L5.13515 54.5398Z" fill="#FEECD8"/>
</g>
<defs>
<clipPath id="clip0_116_93">
<rect width="37" height="62" fill="white"/>
</clipPath>
</defs>
</svg>
