<svg width="64" height="52" viewBox="0 0 64 52" fill="none" xmlns="http://www.w3.org/2000/svg">
<g clip-path="url(#clip0_117_116)">
<path d="M64 11.0151C63.7625 11.3256 63.5162 11.63 63.29 11.9479C63.1025 12.2126 62.8875 12.3834 62.56 12.2089C62.2575 12.0469 62.1637 11.8019 62.34 11.484C62.355 11.4568 62.3325 11.4073 62.3225 11.338C62.1225 11.1945 61.9075 11.0386 61.6587 10.8605C61.5137 11.0399 61.38 11.1933 61.2587 11.3553C59.0625 14.3095 56.8712 17.2674 54.6687 20.2166C54.4462 20.5135 54.3475 20.808 54.3487 21.1791C54.3625 23.5494 54.3187 25.9209 54.37 28.2899C54.4012 29.7509 54.5612 31.2082 54.6775 32.6667C54.8612 34.9665 55.0587 37.2663 55.2487 39.566C55.345 40.7363 55.4362 41.9078 55.5262 43.0781C55.5725 43.6682 55.4037 44.1816 54.9362 44.5701C54.4337 44.9882 53.855 45.1045 53.2412 44.8868C52.6312 44.6703 52.215 44.2361 52.1275 43.5878C52.02 42.7924 51.9587 41.9895 51.8937 41.1891C51.6275 37.9232 51.3675 34.6585 51.1025 31.3925C51.0875 31.2095 51.0525 31.0288 51.0212 30.8148H50.0712C50.0087 31.4829 49.94 32.1509 49.8837 32.8189C49.5912 36.3298 49.3087 39.8419 49.0087 43.3528C48.9087 44.5156 47.8975 45.2171 46.8087 44.9165C46.0275 44.7012 45.5112 43.9948 45.57 43.1313C45.6712 41.6307 45.8037 40.1326 45.9275 38.6333C46.1162 36.3335 46.2675 34.0288 46.5087 31.7352C46.8787 28.2182 46.7025 24.6937 46.76 21.1717C46.7662 20.7968 46.6525 20.5086 46.4312 20.2129C44.9912 18.2942 43.565 16.3656 42.1362 14.4382C42.0137 14.2724 41.8962 14.1029 41.7662 13.9211C42.2175 13.3149 42.6587 12.7211 43.1337 12.0827C43.2862 12.2683 43.405 12.4007 43.5112 12.5429C45.03 14.5829 46.5562 16.6192 48.0562 18.6727C48.305 19.0129 48.565 19.1466 48.9837 19.1367C50.0662 19.1107 51.15 19.1181 52.2325 19.1329C52.555 19.1379 52.77 19.0451 52.9662 18.7804C55.1775 15.7866 57.4012 12.8015 59.62 9.81268C59.6787 9.7335 59.7237 9.64443 59.795 9.52567C59.5775 9.36114 59.3837 9.21393 59.25 9.11248C58.955 9.16939 58.7112 9.2832 58.4975 9.24238C58.1487 9.17557 58.0275 8.823 58.22 8.5162C58.405 8.2193 58.6325 7.94714 58.8362 7.66137C59.0162 7.409 59.24 7.2989 59.53 7.46344C59.7975 7.6156 59.9125 7.83456 59.7587 8.13642C59.7425 8.16982 59.7475 8.21435 59.74 8.28363C60.1262 8.59538 60.48 8.93558 61.0625 8.9764C61.3212 8.99496 61.6887 9.25104 61.7787 9.48485C61.9962 10.0465 62.475 10.2754 62.8837 10.5896C63.0862 10.5178 63.2887 10.3718 63.4525 10.4065C63.6512 10.4485 63.8175 10.6415 63.9975 10.769V11.0164L64 11.0151Z" fill="#FEECD8"/>
<path d="M0 10.7677C0.475 10.2865 0.52375 10.2791 1.06375 10.6094C1.50375 10.3001 1.99375 10.0638 2.22 9.48114C2.31125 9.24733 2.68125 8.98877 2.9375 8.97517C3.49875 8.94424 3.83875 8.6028 4.27 8.30342C4.2375 8.18961 4.19125 8.07827 4.17625 7.96446C4.14125 7.69849 4.2925 7.49931 4.5225 7.44859C4.6925 7.41148 4.955 7.45973 5.07 7.57354C5.33125 7.83333 5.5275 8.15745 5.74875 8.45682C5.89875 8.65971 5.94625 8.87249 5.75375 9.0729C5.54875 9.28568 5.315 9.38836 5.0375 9.183C4.975 9.13723 4.90375 9.10135 4.82875 9.05434C4.61625 9.21393 4.42125 9.3599 4.19875 9.52691C4.33625 9.72732 4.445 9.89804 4.565 10.0589C6.6975 12.9314 8.8375 15.7977 10.9563 18.6802C11.2075 19.0228 11.4738 19.1453 11.8888 19.1354C12.93 19.1107 13.9712 19.1094 15.0125 19.1354C15.4287 19.1453 15.6938 19.0179 15.9438 18.6765C17.4563 16.6056 18.9925 14.5532 20.5225 12.4947C20.6087 12.3796 20.6988 12.2671 20.8538 12.0667C21.3275 12.7013 21.7763 13.3025 22.2425 13.9273C21.6675 14.7041 21.1025 15.4674 20.5362 16.2295C19.5625 17.5408 18.595 18.8583 17.6063 20.1585C17.3563 20.4876 17.235 20.8104 17.2388 21.2286C17.2563 23.516 17.2113 25.8058 17.26 28.092C17.2913 29.532 17.4387 30.9695 17.5525 32.407C17.735 34.708 17.935 37.0065 18.125 39.3062C18.2287 40.5594 18.3388 41.8113 18.4225 43.0645C18.485 44.0109 17.9787 44.7173 17.1325 44.9263C16.0875 45.1849 15.1038 44.5045 14.9963 43.4183C14.8588 42.0241 14.7487 40.6274 14.6325 39.2308C14.435 36.8692 14.2413 34.5075 14.0463 32.1472C14.0113 31.7191 13.98 31.2899 13.9438 30.8222H12.9975C12.9663 30.9991 12.915 31.1921 12.8988 31.3876C12.59 35.1657 12.2875 38.945 11.9812 42.7243C11.9612 42.9705 11.9313 43.2167 11.895 43.4616C11.76 44.3969 10.9812 45.0538 10.0887 44.9894C9.13875 44.9214 8.44625 44.1853 8.47875 43.2068C8.50875 42.3012 8.59375 41.3969 8.6675 40.4938C8.8625 38.0914 9.0625 35.689 9.2625 33.2865C9.3675 32.0346 9.48125 30.7827 9.5825 29.5295C9.6175 29.099 9.64125 28.6648 9.64125 28.233C9.6475 25.8627 9.64125 23.4925 9.6475 21.1222C9.6475 20.8253 9.5975 20.5729 9.40875 20.3206C7.13125 17.2724 4.86625 14.2155 2.59625 11.1611C2.52375 11.0646 2.43625 10.9793 2.33375 10.8642C2.0975 11.0374 1.88375 11.1945 1.6425 11.3702C1.67375 11.4704 1.70625 11.5619 1.73 11.6547C1.80375 11.9553 1.6275 12.1298 1.38625 12.2361C1.1475 12.3413 0.9425 12.2572 0.78625 12.0481C0.5275 11.7017 0.26375 11.359 0.0025 11.0151C0.0025 10.9322 0.0025 10.8506 0.0025 10.7677H0Z" fill="#FEECD8"/>
<path d="M44.785 2.99125C44.4938 2.77475 44.1988 2.55703 43.8663 2.31084C43.5713 2.61641 43.2663 2.85393 42.8375 2.55826C42.435 2.28115 42.3388 1.97064 42.6125 1.56488C42.9013 1.13684 43.21 0.721179 43.53 0.315412C43.8038 -0.0322111 44.0525 -0.0755094 44.395 0.121188C44.8013 0.354999 44.8988 0.612315 44.7413 1.04159C44.7138 1.11457 44.68 1.18509 44.64 1.27663C44.9913 1.53271 45.3125 1.79869 45.6663 2.01023C45.8475 2.11786 46.085 2.15992 46.3013 2.17848C46.9163 2.23167 47.4088 2.49765 47.6138 3.06918C47.765 3.49103 48.0238 3.75948 48.375 3.98958C48.6163 4.14793 48.845 4.32483 49.1213 4.52401C49.435 4.20112 49.775 3.99453 50.2038 4.31988C50.57 4.59823 50.6463 4.88524 50.3825 5.2774C50.1063 5.68811 49.8075 6.08645 49.5025 6.47738C49.2088 6.85593 48.9475 6.91407 48.5938 6.71366C48.1738 6.4749 48.0888 6.20645 48.285 5.74007C48.3013 5.70296 48.3213 5.66708 48.365 5.58172C48.0463 5.3442 47.7188 5.09925 47.355 4.82833C47.2113 5.004 47.0813 5.15369 46.9625 5.31203C43.8288 9.52681 40.6975 13.7453 37.5575 17.9564C37.3363 18.2533 37.2413 18.5489 37.2438 18.9201C37.2563 21.8681 37.215 24.8161 37.2638 27.7628C37.2925 29.5529 37.4325 31.3417 37.5575 33.1293C37.6825 34.9169 37.8525 36.7021 38.0013 38.4884C38.1938 40.8092 38.3875 43.1288 38.5775 45.4495C38.6863 46.7844 38.7888 48.1204 38.8925 49.4553C38.9463 50.1505 38.7363 50.7592 38.255 51.2664C37.5488 52.0111 36.6563 52.1397 35.7288 51.8626C34.7863 51.5806 34.2363 50.8742 34.1413 49.9117C33.9425 47.8817 33.7963 45.8467 33.6275 43.8141C33.4363 41.5144 33.2438 39.2146 33.0538 36.9148C32.95 35.6617 32.8525 34.4085 32.75 33.1565C32.73 32.9141 32.705 32.6716 32.6788 32.3994H31.335C31.2688 33.1046 31.1988 33.7936 31.1413 34.4839C30.8963 37.4208 30.655 40.3564 30.4138 43.2933C30.2363 45.4495 30.06 47.6058 29.8838 49.7621C29.8088 50.6787 29.3838 51.4024 28.5325 51.7637C26.8388 52.4837 25.1475 51.4198 25.1225 49.7299C25.11 48.9085 25.2075 48.0846 25.275 47.2631C25.5888 43.485 25.91 39.707 26.2263 35.9289C26.3975 33.8753 26.5688 31.8217 26.7288 29.7681C26.7625 29.3376 26.7538 28.9034 26.7538 28.4704C26.755 25.275 26.7525 22.0796 26.7588 18.8854C26.7588 18.5663 26.7025 18.2953 26.5025 18.0269C23.2875 13.7168 20.0825 9.39939 16.8738 5.08441C16.825 5.01884 16.77 4.95575 16.6675 4.82957C16.3388 5.06462 16.0113 5.29843 15.6925 5.52481C15.74 5.78213 15.8263 6.01594 15.81 6.24109C15.8 6.37717 15.65 6.52439 15.5275 6.62583C15.1738 6.92026 14.8413 6.89551 14.5563 6.54171C14.2325 6.13965 13.9263 5.72028 13.6338 5.29595C13.3863 4.93719 13.415 4.67122 13.6863 4.41267C14.0113 4.10339 14.305 4.0836 14.6825 4.3471C14.7463 4.39164 14.805 4.44359 14.8925 4.51411C15.2775 4.23824 15.6563 3.98587 16.0113 3.70505C16.1288 3.61227 16.2163 3.45639 16.2675 3.31165C16.525 2.58919 17.0188 2.20569 17.8025 2.17229C17.995 2.16487 18.205 2.09312 18.3688 1.99044C18.7013 1.78261 19.0088 1.53395 19.305 1.3187C19.27 1.03787 19.1875 0.779322 19.2263 0.539326C19.25 0.389638 19.4388 0.242424 19.5863 0.140982C19.92 -0.0878804 20.1825 -0.0445821 20.4525 0.291907C20.7763 0.6952 21.08 1.11334 21.3738 1.5389C21.6213 1.89642 21.595 2.17229 21.3313 2.42466C20.995 2.74754 20.72 2.76857 20.3388 2.49641C20.275 2.45064 20.2175 2.39373 20.13 2.31827C19.8213 2.54218 19.5238 2.7562 19.1975 2.99125C19.34 3.19537 19.45 3.36485 19.57 3.52567C22.6025 7.61055 25.6413 11.6905 28.6638 15.7828C28.925 16.1366 29.2 16.2776 29.645 16.2702C31.2488 16.2442 32.8525 16.2541 34.4563 16.2653C34.7925 16.2677 35.035 16.1935 35.25 15.904C38.385 11.6645 41.5325 7.43241 44.6763 3.19784C44.7125 3.14959 44.7338 3.09021 44.7875 2.98877L44.785 2.99125Z" fill="#FEECD8"/>
<path d="M32.0225 6.54665C34.4375 6.55407 36.3863 8.50126 36.3663 10.8889C36.3463 13.2406 34.3938 15.1605 32.01 15.1717C29.6188 15.184 27.63 13.2171 27.635 10.8443C27.64 8.45796 29.6 6.53923 32.0238 6.54665H32.0225Z" fill="#FEECD8"/>
<path d="M50.5363 18.3226C48.8088 18.3164 47.4 16.9284 47.3913 15.2237C47.3825 13.4893 48.8038 12.0926 50.5688 12.1C52.3075 12.1074 53.7013 13.4769 53.7163 15.194C53.7313 16.9148 52.295 18.3288 50.5363 18.3226Z" fill="#FEECD8"/>
<path d="M13.45 18.3226C11.725 18.3263 10.31 16.9494 10.2838 15.2422C10.2588 13.514 11.6788 12.1012 13.4425 12.0988C15.1838 12.0963 16.5863 13.4596 16.6075 15.1742C16.63 16.8999 15.2063 18.3189 13.4488 18.3226H13.45Z" fill="#FEECD8"/>
</g>
<defs>
<clipPath id="clip0_117_116">
<rect width="64" height="52" fill="white"/>
</clipPath>
</defs>
</svg>
