<svg width="68" height="53" viewBox="0 0 68 53" fill="none" xmlns="http://www.w3.org/2000/svg">
<g clip-path="url(#clip0_5_3595)">
<path d="M-0.000178686 49.064V10.9296C1.22382 9.01609 2.92382 7.90611 5.31062 8.14445C5.40582 6.37392 5.48742 4.93026 5.56222 3.56151C5.92942 3.26188 6.16062 2.98268 6.45302 2.84649C7.17382 2.52643 7.90822 2.24723 8.65622 1.99528C16.2722 -0.585606 23.929 -0.687752 31.5654 1.81822C33.245 2.36981 34.741 2.39705 36.4138 1.81822C42.765 -0.388124 49.2658 -0.463031 55.7666 0.93296C58.0378 1.42326 60.2002 2.39024 62.3966 3.12569C62.4986 4.93026 62.5734 6.37392 62.6754 8.14445C65.0622 7.90611 66.7554 9.02971 67.9862 10.9296V49.064C66.6466 51.1886 64.7426 51.8696 62.247 51.8288C54.8826 51.7062 47.5182 51.7811 40.1538 51.7879C38.583 51.7879 37.0734 51.7539 35.5706 52.6391C34.7614 53.1158 33.2178 53.1158 32.4086 52.6391C30.9058 51.7539 29.3962 51.7879 27.8254 51.7879C20.461 51.7879 13.0966 51.7062 5.73222 51.8288C3.23662 51.8696 1.32582 51.1955 -0.0137787 49.064H-0.000178686ZM8.26182 44.2768C12.4778 42.908 16.4558 42.2543 20.5698 42.2339C24.6158 42.2134 28.5122 43.1055 32.5106 44.1678V4.99155C24.2962 1.99528 16.245 1.91356 8.26182 5.04603V44.2768ZM35.5094 44.2495C43.6218 41.587 51.5846 41.5938 59.663 44.2359V4.9575C51.4622 2.00208 43.4722 1.9408 35.5094 5.03241V44.2495ZM62.5598 11.1475C62.5598 12.5844 62.5598 13.8169 62.5598 15.0495C62.5598 25.0257 62.5802 35.002 62.5462 44.985C62.5394 47.7089 62.0498 48.0289 59.5474 47.1301C51.5778 44.27 43.6014 44.2019 35.6522 47.1301C34.3738 47.5999 33.3606 47.5659 32.1162 47.0892C28.0634 45.5298 23.8406 44.8829 19.4886 44.9986C15.4902 45.1076 11.6618 45.9452 7.92182 47.348C6.28302 47.9608 5.60982 47.4842 5.46022 45.7681C5.39222 44.9782 5.43982 44.1815 5.43982 43.3847C5.43982 33.749 5.43982 24.1064 5.43982 14.4707C5.43982 13.3675 5.43982 12.2643 5.43982 11.1407C2.80822 11.3382 2.74022 11.3314 2.73342 13.6263C2.70622 24.624 2.71302 35.6216 2.74022 46.6193C2.74022 47.3548 3.03942 48.0902 3.25022 49.0708H6.43262C10.057 49.0708 13.6814 49.0708 17.299 49.0708C32.021 49.0708 46.7362 49.0776 61.4582 49.0504C62.655 49.0504 63.9742 49.4658 65.0894 48.2605C65.1438 47.7089 65.2662 47.0415 65.2662 46.3742C65.2798 35.6012 65.273 24.8282 65.273 14.0621C65.273 13.6058 65.2866 13.1564 65.2526 12.7001C65.1438 11.2224 64.3006 10.773 62.553 11.1407L62.5598 11.1475Z" fill="#FEECD8"/>
<path d="M46.2734 16V12.1H51.1034V16H46.2734ZM43.9334 34V30.37H46.8134V22.18H43.9334V18.55H51.0434V30.37H53.6234V34H43.9334Z" fill="#FEECD8"/>
</g>
<defs>
<clipPath id="clip0_5_3595">
<rect width="68" height="53" fill="white"/>
</clipPath>
</defs>
</svg>
