<svg width="74" height="75" viewBox="0 0 74 75" fill="none" xmlns="http://www.w3.org/2000/svg">
<g clip-path="url(#clip0_109_2122)">
<path d="M10.7288 6.22191C13.4329 6.0724 15.9275 5.93253 18.539 5.78783C18.6706 5.55632 18.8119 5.28622 18.9727 5.02577C20.1859 3.04346 21.4624 2.83606 22.9679 4.5531C23.5039 5.16082 23.9472 5.50809 24.7512 5.50809C33.3507 5.49362 41.9503 5.49844 50.4816 5.49844C52.718 2.41645 54.5646 3.04346 55.7096 5.77336C58.2285 5.91323 60.8011 6.05793 63.627 6.21709C63.8121 4.77015 63.9778 3.36179 64.1727 1.95343C64.4309 0.0723965 65.2348 -0.434034 66.9694 0.356962C67.5248 0.612589 67.8707 0.877863 68.4554 0.472718C68.7526 0.270146 69.4591 0.120628 69.5614 0.255676C70.5456 1.53381 71.9976 0.381078 73.0792 0.983972C74.0195 1.5097 74.0536 2.37304 73.9659 3.29426C73.7077 5.85053 73.4592 8.4068 73.2156 10.9631C73.1133 12 73.0597 13.0467 72.9184 14.0788C72.6992 15.6946 71.7539 16.1624 70.1948 15.5113C69.7904 15.3425 69.3275 15.2026 68.8939 15.2074C67.7197 15.2267 67.7197 15.2605 66.8914 14.7058C65.7221 14.7589 64.8304 15.029 64.1337 14.7734C63.1593 14.4213 63.2031 13.3843 63.2957 12.4727C63.3688 11.7541 63.4662 11.0354 63.5003 10.3119C63.5344 9.60777 63.5101 8.90359 63.5101 8.10294C60.8839 7.89072 58.3114 7.71709 55.7437 7.46629C54.6766 7.365 54.3112 8.06918 53.9653 8.78783C52.4744 11.9036 50.8665 14.9759 49.59 18.1737C48.1624 21.7428 46.9736 25.4132 45.8286 29.0885C45.4047 30.4486 45.356 31.9293 45.2147 33.3666C45.0344 35.2042 44.8736 37.0467 44.8347 38.8891C44.8103 39.9984 44.9954 41.1174 45.1367 42.2267C46.0381 49.3119 46.959 56.3923 47.8701 63.4775C48.2501 66.4245 48.6253 69.3666 48.9761 72.3136C49.132 73.611 48.445 74.6673 47.3682 74.9277C46.2281 75.1978 45.2098 74.6865 44.7421 73.3457C44.0307 71.3007 43.4607 69.2123 42.8468 67.1335C41.2584 61.7509 39.6847 56.3586 38.0866 50.9759C37.843 50.1608 37.5165 49.3746 37.0829 48.1833C36.1279 51.328 35.2801 54.082 34.4567 56.8409C32.922 61.992 31.4018 67.148 29.867 72.2991C29.7306 72.7621 29.5942 73.23 29.3847 73.6592C28.8634 74.73 28.0789 75.1399 27.046 74.947C25.9449 74.7444 25.1848 73.9197 25.253 72.7187C25.331 71.3634 25.6087 70.0177 25.7841 68.6673C26.5442 62.7782 27.2994 56.8843 28.0643 50.9952C28.3518 48.7669 28.6733 46.5435 28.9706 44.32C30.0717 36.0965 28.9413 28.1624 25.6964 20.5419C24.0593 16.7026 22.2176 12.9454 20.522 9.1351C19.9569 7.86179 19.1919 7.3023 17.701 7.51452C15.4695 7.83285 13.2039 7.93413 10.7142 8.14635C10.8262 9.77175 10.987 11.2573 11.026 12.7476C11.0845 14.9759 10.0515 15.5161 7.86389 14.3296C7.08433 15.0483 6.22681 15.8296 4.97951 15.0193C4.79923 14.9036 4.34611 15.1351 4.05378 15.275C2.34848 16.0708 1.39839 15.6656 1.16939 13.8328C0.706529 10.1673 0.336237 6.49201 0.0146672 2.81195C-0.136373 1.07079 0.799102 0.361786 2.58722 0.868216C3.13779 1.02256 3.45449 1.04667 3.85889 0.684937C4.46305 0.144744 5.18414 -0.0144203 5.85652 0.487187C6.44119 0.921271 6.75301 0.636705 7.30358 0.376255C8.97964 -0.405096 9.79331 0.115805 10.0905 1.96789C10.3049 3.30391 10.4949 4.64957 10.7337 6.22191H10.7288ZM24.6196 7.38912C26.856 11.2766 28.7513 15.0049 31.0559 18.4679C34.1108 23.0692 40.6884 22.7509 43.6215 18.0242C44.5521 16.5242 45.3852 14.9615 46.2427 13.4181C47.3244 11.4743 48.3865 9.52577 49.5559 7.40359C41.2341 6.86822 33.1607 6.95021 24.6196 7.39394V7.38912Z" fill="#FEECD8"/>
<path d="M36.961 19.4614C34.0182 19.4228 31.8841 17.1897 31.8646 14.2138C31.8451 10.881 34.7539 8.86975 37.3264 8.98068C39.6359 9.08197 42.4082 10.7749 42.4326 14.3296C42.4521 17.5128 39.5043 19.7749 36.961 19.4566V19.4614Z" fill="#FEECD8"/>
</g>
<defs>
<clipPath id="clip0_109_2122">
<rect width="74" height="75" fill="white"/>
</clipPath>
</defs>
</svg>
