<svg width="54" height="67" viewBox="0 0 54 67" fill="none" xmlns="http://www.w3.org/2000/svg">
<g clip-path="url(#clip0_5_3568)">
<path d="M39.9997 38.9332C38.1742 47.0905 36.4962 54.3544 34.9304 61.648C34.3828 64.1874 33.4068 66.3725 30.6124 65.7746C27.6635 65.1397 27.4669 62.7627 28.1058 59.987C29.8962 52.2579 31.5252 44.492 33.2524 36.5562H23.507C22.1097 42.2404 20.7055 48.0206 19.2521 53.786C18.6694 56.104 17.23 57.5657 14.8849 56.8865C12.6171 56.2295 11.9009 54.3175 12.4626 51.9257C12.575 51.4459 12.7364 50.9882 12.8558 50.5084C14.1828 45.0382 15.3554 39.5238 16.879 34.1127C18.7185 27.5722 19.6945 20.9799 19.2942 14.1515C19.1398 11.5825 19.3223 8.9914 19.2591 6.40767C19.1889 3.7132 19.6172 1.16637 22.7065 1.09993C25.7888 1.04088 26.3435 3.5065 26.3084 6.24526C26.2522 10.549 26.2944 14.8454 26.2944 19.1492C26.2944 20.3451 26.2944 21.5484 26.2944 23.1281C29.2573 23.1281 31.9113 23.0617 34.5653 23.1429C39.9857 23.2979 43.9808 26.3394 45.4341 31.8169C47.9688 41.3915 50.2928 51.0251 52.7151 60.6292C53.3119 62.9989 52.7151 64.9552 50.4613 65.6712C47.9267 66.4759 46.5154 64.8592 45.9116 62.4009C44.2967 55.8678 42.7169 49.3272 41.1091 42.7941C40.8563 41.768 40.5263 40.7566 39.9927 38.9185L39.9997 38.9332Z" stroke="#FEECD8" stroke-width="3" stroke-miterlimit="10"/>
<path d="M8.19374 33.4409C4.46549 33.5222 1.23574 30.3478 1.06021 26.4206C0.877656 22.353 4.03017 18.817 7.90587 18.7358C11.7745 18.6472 15.0605 22.0504 15.0464 26.1253C15.0254 30.0599 11.936 33.3671 8.19374 33.4483V33.4409Z" stroke="#FEECD8" stroke-width="3" stroke-miterlimit="10"/>
</g>
<defs>
<clipPath id="clip0_5_3568">
<rect width="54" height="67" fill="white"/>
</clipPath>
</defs>
</svg>
