<svg width="68" height="65" viewBox="0 0 68 65" fill="none" xmlns="http://www.w3.org/2000/svg">
<g clip-path="url(#clip0_6_3621)">
<path d="M33.7318 0C45.0863 9.06209 56.6667 17.5626 68 26.7932C67.3437 27.5373 66.9203 28.0216 66.4334 28.5761C65.4807 28.0918 64.6127 27.6425 63.5471 27.095C63.4907 27.79 63.3707 28.513 63.3707 29.236C63.3566 39.8704 63.3636 50.5049 63.3636 61.1393C63.3636 61.9606 63.533 62.824 63.3072 63.5751C63.1449 64.1155 62.5098 64.6841 61.9593 64.8807C61.3383 65.1053 60.5691 64.9298 59.8634 64.9298H7.69905C7.11333 64.9298 6.52056 64.9649 5.93483 64.9298C4.714 64.8526 4.1565 64.277 4.08594 63.0065C4.04359 62.1922 4.07888 61.3709 4.07888 60.5497V27.0459C2.99918 27.5724 2.08178 28.0146 1.0162 28.527C0.726865 27.9374 0.416363 27.3267 -0.00704956 26.4703C5.08801 22.1042 10.8817 17.8715 16.5695 13.5124C22.2856 9.13931 27.8746 4.62581 33.7318 0ZM60.5409 62.0659C60.5409 50.6663 60.4915 39.5545 60.5762 28.4498C60.5973 25.8315 60.6891 23.4028 57.6123 22.3288C57.2101 22.1884 56.956 21.669 56.6032 21.3672C54.9519 19.9703 53.4276 18.3769 51.6069 17.2468C47.8809 14.9303 44.7617 11.8488 41.1345 9.41307C38.5446 7.67225 36.1947 5.56641 33.7601 3.64309C24.6355 10.7046 15.7368 17.5907 7.02159 24.3364V62.0659H60.5409Z" fill="#FEECD8"/>
<path d="M26.6679 42.5939C26.6679 44.784 26.7032 46.8758 26.6538 48.9606C26.6185 50.3364 26.0046 50.8488 24.4732 50.8909C23.1818 50.926 21.8904 50.919 20.599 50.8909C18.6443 50.8488 18.2914 50.4768 18.2067 48.4622C18.1856 47.9989 18.2067 47.5286 18.2067 46.7916C16.9859 46.7565 15.7439 46.7495 14.5019 46.6793C13.2316 46.6161 12.5895 46.0545 12.5753 44.8472C12.533 41.8148 12.5259 38.7754 12.5753 35.736C12.5895 34.7111 13.2034 34.0723 14.2972 34.0513C15.4687 34.0302 16.6472 34.0513 18.0656 34.0513C18.1079 33.4195 18.1573 32.7738 18.1997 32.1209C18.3196 30.338 18.7289 29.8817 20.4014 29.8466C21.9257 29.8116 23.457 29.7905 24.9813 29.8607C26.0046 29.9098 26.6609 30.4854 26.6679 31.5805C26.682 33.6793 26.6679 35.7851 26.6679 38.1296C31.2831 38.4314 35.9124 38.1787 40.7817 38.291C40.7817 35.9816 40.7817 33.7916 40.7817 31.6015C40.7817 30.4784 41.4591 29.9168 42.4541 29.8677C44.0913 29.7835 45.7426 29.8045 47.3869 29.8537C48.6148 29.8888 49.144 30.4573 49.2428 31.7559C49.2993 32.4368 49.2499 33.1247 49.2499 34.0583C50.6048 34.0583 51.868 34.0583 53.1312 34.0583C54.2603 34.0583 54.8531 34.7322 54.8742 35.7219C54.9377 38.8736 54.973 42.0324 54.8248 45.1771C54.8037 45.7036 53.9145 46.5178 53.3147 46.6231C52.0797 46.8477 50.7742 46.6933 49.5392 46.6933C49.4122 46.9951 49.264 47.1987 49.257 47.3952C49.224 49.7257 48.0761 50.8956 45.8132 50.905C44.7547 50.905 43.6961 50.9471 42.6447 50.8979C41.4168 50.8418 40.8169 50.2451 40.7887 48.9957C40.7393 46.9109 40.7746 44.8191 40.7746 42.608H26.6609L26.6679 42.5939ZM23.7181 48.02V32.7176H21.1424V48.02H23.7181ZM46.4272 48.02C46.4272 43.2046 46.3919 38.4455 46.4554 33.7003C46.4695 32.6193 45.9261 32.6053 45.171 32.6474C44.7194 32.6685 44.2748 32.6474 43.7314 32.6474V48.02H46.4272ZM18.0868 43.8153V36.838C17.0988 36.8871 16.2308 36.9293 15.4898 36.9714V43.8153H18.0868ZM49.2993 43.7592H52.0656C52.0656 42.4957 52.0797 41.3445 52.0656 40.2003C52.0444 39.0842 51.995 37.9611 51.9597 36.9854H49.3064V43.7662L49.2993 43.7592Z" fill="#FEECD8"/>
</g>
<defs>
<clipPath id="clip0_6_3621">
<rect width="68" height="65" fill="white"/>
</clipPath>
</defs>
</svg>
