<svg width="62" height="58" viewBox="0 0 62 58" fill="none" xmlns="http://www.w3.org/2000/svg">
<g clip-path="url(#clip0_116_32)">
<path d="M25.1409 37.9424C24.0485 39.2622 23.0769 40.4238 22.1133 41.5934C19.5582 44.6944 16.9682 47.766 14.4667 50.91C12.8778 52.9058 13.0656 55.2477 14.7807 56.648C16.4662 58.0268 18.8872 57.8578 20.3956 56.0176C23.6164 52.0903 26.7191 48.0664 29.9184 44.0184C28.3294 41.9984 26.7942 40.0455 25.1409 37.9424Z" fill="#FEECD8"/>
<path d="M0 10.2234C1.47619 8.07732 2.59004 8.05318 4.23532 10.0946C6.44961 12.8443 8.64779 15.6073 10.948 18.2818C11.3479 18.7486 12.2685 19.1108 12.8509 19.0008C13.8869 18.805 14.0238 17.5334 13.1945 16.5006C10.7896 13.5015 8.36061 10.5238 5.95307 7.53276C5.07004 6.43827 5.13446 5.48595 6.10338 4.75361C7.06424 4.02663 7.95801 4.19295 8.86251 5.30086C11.2352 8.20877 13.5836 11.1381 15.9724 14.0326C16.9118 15.1727 18.4739 15.1271 18.8899 13.8797C19.0939 13.2654 18.8657 12.2675 18.4577 11.731C16.3428 8.96258 14.1016 6.29073 11.9142 3.57864C10.9319 2.36343 10.9506 1.38429 11.941 0.552696C12.9932 -0.32719 13.9701 -0.158188 15.0035 1.07848C18.0686 4.74825 21.1981 8.36704 24.1693 12.1119C25.3153 13.5578 26.3674 15.1942 26.9901 16.9137C27.8571 19.3146 27.3203 21.6726 25.5247 23.7516C27.8973 26.4798 30.2592 29.1999 32.6238 31.9174C38.1421 38.2536 43.6603 44.5899 49.1893 50.9208C50.3569 52.2594 50.7031 53.7536 49.9972 55.3873C49.3504 56.8841 48.1775 57.8043 46.5268 57.9813C45.107 58.1342 44.071 57.485 43.2094 56.3718C36.1908 47.2859 29.1481 38.2188 22.1133 29.1436C21.7322 28.6527 21.3484 28.1671 20.978 27.6977C16.2998 29.4387 13.4548 28.7251 10.2609 24.7576C6.76632 20.4145 3.41403 15.9641 0 11.5647C0 11.1167 0 10.6714 0 10.2234Z" fill="#FEECD8"/>
<path d="M62 12.3693C61.2458 16.2 59.7159 19.674 57.1554 22.6463C54.6888 25.5086 51.8519 27.9202 47.9977 28.5238C46.2531 28.7974 44.4172 28.4755 42.2191 28.4111C41.1213 29.79 39.6854 31.598 38.1555 33.5214C36.5344 31.6785 34.9777 29.9134 33.319 28.0275C34.3604 26.7613 35.4178 25.5139 36.4217 24.2263C36.6605 23.9178 36.9262 23.4054 36.8296 23.0969C35.2729 18.1073 36.7894 13.7401 39.6451 9.73233C42.4928 5.73798 46.1404 2.72544 51.0574 1.60413C56.259 0.418427 60.7546 3.42023 61.7558 8.67808C61.8041 8.93293 61.9168 9.17436 62 9.42116V12.372V12.3693Z" fill="#FEECD8"/>
<path d="M25.1409 37.9424C26.7942 40.0455 28.3294 41.9984 29.9184 44.0184C26.7191 48.0637 23.6164 52.0876 20.3956 56.0176C18.8872 57.8578 16.4662 58.0268 14.7807 56.648C13.0656 55.2477 12.8778 52.9031 14.4667 50.91C16.9708 47.7687 19.5582 44.6944 22.1133 41.5934C23.0769 40.4238 24.0485 39.2595 25.1409 37.9424Z" fill="#FEECD8"/>
</g>
<defs>
<clipPath id="clip0_116_32">
<rect width="62" height="58" fill="white"/>
</clipPath>
</defs>
</svg>
