<svg width="82" height="40" viewBox="0 0 82 40" fill="none" xmlns="http://www.w3.org/2000/svg">
<g clip-path="url(#clip0_116_52)">
<path d="M23.8686 17.741H58.1294C58.1294 17.3386 58.1294 16.9771 58.1294 16.6176C58.1315 12.1589 58.1294 7.70012 58.1377 3.24138C58.1418 1.13762 59.264 0.0285501 61.3659 0.0101677C61.7434 0.00608277 62.123 -4.46791e-05 62.5005 0.0101677C64.1548 0.0591873 65.3513 1.21728 65.3554 2.8676C65.3719 9.30143 65.3616 15.7332 65.3616 22.167C65.3616 26.9995 65.3698 31.8321 65.3616 36.6646C65.3574 38.9971 64.2477 40.002 61.7104 40.002C59.2928 40.002 58.1356 38.9419 58.1315 36.683C58.1232 32.2589 58.1315 27.8329 58.1315 23.4089C58.1315 23.0433 58.1315 22.6777 58.1315 22.2426H23.8665C23.8665 23.0004 23.8665 23.7009 23.8665 24.4036C23.8665 28.4885 23.8686 32.5735 23.8706 36.6564C23.8706 38.846 22.7258 39.9836 20.5103 39.9938C20.1659 39.9938 19.8214 40.0081 19.4789 39.9897C17.8184 39.906 16.6426 38.7357 16.6405 37.0915C16.6302 25.6883 16.6302 14.2871 16.6405 2.88394C16.6405 1.22545 17.8205 0.0693998 19.4851 0.0122102C19.9307 -0.00412965 20.3783 -4.46791e-05 20.8259 0.00812526C22.6515 0.03672 23.8521 1.20298 23.8603 3.02692C23.8789 7.48566 23.8686 11.9444 23.8706 16.4031C23.8706 16.8076 23.8706 17.214 23.8706 17.743L23.8686 17.741Z" fill="#FEECD8"/>
<path d="M15.407 20.1205C15.407 23.3844 15.4132 26.6483 15.4049 29.9142C15.4008 31.9138 14.2291 33.0515 12.1932 33.0555C11.6445 33.0555 11.0855 33.1046 10.5471 33.0249C9.23926 32.8288 8.19136 31.6728 8.18724 30.3186C8.16455 23.4171 8.16042 16.5135 8.19136 9.61192C8.19755 8.13317 9.4146 7.01593 10.9101 6.9424C11.3557 6.91993 11.8033 6.93014 12.2489 6.93219C14.2168 6.94444 15.3967 8.08823 15.4029 10.0225C15.4132 13.3885 15.4049 16.7545 15.4049 20.1205H15.407Z" fill="#FEECD8"/>
<path d="M73.8272 20.0408C73.8272 23.3047 73.8293 26.5686 73.8272 29.8325C73.8251 31.9261 72.7174 33.0249 70.5969 33.0535C70.2194 33.0576 69.8419 33.0678 69.4644 33.0535C67.8266 32.9963 66.6095 31.8158 66.6054 30.1859C66.5889 23.3885 66.5868 16.589 66.6054 9.79166C66.6095 8.1107 67.8492 6.95874 69.5675 6.93219C69.945 6.92606 70.3225 6.9281 70.7 6.93014C72.6659 6.9424 73.8148 8.06781 73.8251 10.0449C73.8396 13.3762 73.8293 16.7096 73.8293 20.0408H73.8272Z" fill="#FEECD8"/>
<path d="M6.42765 17.7818C6.42765 19.1299 6.45653 20.3799 6.39877 21.6238C6.39052 21.826 6.0089 22.1671 5.79025 22.1773C4.56082 22.2283 3.32521 22.2467 2.09579 22.1793C0.899374 22.116 -0.0247559 21.0723 -2.46218e-06 19.953C0.0268138 18.797 0.932379 17.8411 2.17005 17.7941C3.53356 17.741 4.90119 17.7818 6.42765 17.7818Z" fill="#FEECD8"/>
<path d="M75.6404 17.7921C77.1483 17.7921 78.584 17.7349 80.0136 17.8105C81.1151 17.8697 81.9608 18.8644 81.998 19.9428C82.033 20.9763 81.2141 22.0568 80.1002 22.1385C78.6439 22.2468 77.1731 22.1651 75.6404 22.1651V17.7921Z" fill="#FEECD8"/>
</g>
<defs>
<clipPath id="clip0_116_52">
<rect width="82" height="40" fill="white"/>
</clipPath>
</defs>
</svg>
