<svg width="61" height="56" viewBox="0 0 61 56" fill="none" xmlns="http://www.w3.org/2000/svg">
<path d="M30.7269 0.92187C22.4758 0.823432 15.2409 6.42806 12.6717 14.2686C9.9538 22.562 14.1456 29.1146 17.3321 34.0945C18.7013 36.2346 19.9285 38.1514 20.4236 39.8278C20.6756 40.6812 21.4294 41.2812 22.3193 41.2812H23.6094C23.6094 38.4256 21.8536 35.6812 19.8199 32.5026C17.4427 28.7886 14.75 24.5794 14.75 19.625C14.75 11.0117 21.6989 3.99115 30.2866 3.87499C37.0552 3.78542 42.8995 8.22166 45.2945 14.5532C48.033 21.7932 44.3291 27.5817 41.1801 32.5026C39.1464 35.6812 37.3906 38.4256 37.3906 41.2813H38.6807C39.5706 41.2813 40.3244 40.6802 40.5764 39.8278C41.0725 38.1514 42.2987 36.2365 43.6679 34.0965C46.1348 30.2417 49.2031 25.4436 49.2031 19.625C49.2031 9.3875 40.9348 1.04492 30.7269 0.92187ZM7.51908 2.4465L5.70414 4.7767L10.1684 8.25663L11.9834 5.92642L7.51908 2.4465ZM53.4829 2.45034L49.0166 5.92833L50.8316 8.25854L55.2978 4.77861L53.4829 2.45034ZM0.96875 18.6406V21.5937H5.89062V18.6406H0.96875ZM55.1094 18.6406V21.5937H60.0312V18.6406H55.1094ZM25.3839 20.369L25.034 20.5671C23.8134 21.262 23.2959 22.7405 23.792 24.0547C24.9014 26.993 26.5625 32.8048 26.5625 41.2812H29.5156C29.5156 27.7559 25.5523 20.6653 25.3839 20.369ZM35.6161 20.369C35.4477 20.6644 31.4844 27.7559 31.4844 41.2812H34.4375C34.4375 32.8038 36.0976 26.9911 37.2061 24.0547C37.7022 22.7425 37.1875 21.2669 35.9698 20.5709L35.6161 20.369ZM50.8316 30.9934L49.0166 33.3236L53.4809 36.8035L55.2959 34.4733L50.8316 30.9934ZM10.1665 30.9953L5.70221 34.4752L7.51715 36.8035L11.9814 33.3255L10.1665 30.9953ZM21.6406 44.2344L22.2405 48.4295C22.4718 50.0517 23.6844 51.3599 25.284 51.7152L26.6759 52.0248C27.0841 53.7641 28.6363 55.0625 30.5 55.0625C32.3638 55.0625 33.9159 53.7641 34.3241 52.0248L35.716 51.7152C37.3157 51.3599 38.5282 50.0517 38.7595 48.4295L39.3594 44.2344H31.4844H29.5156H21.6406Z" fill="#FEECD8"/>
</svg>
