<svg width="50" height="60" viewBox="0 0 50 60" fill="none" xmlns="http://www.w3.org/2000/svg">
<g clip-path="url(#clip0_114_6)">
<path d="M0 0V50H26C26 50 26 43 30 39C33 36 42.5 36.22 42.5 36.22V0H0ZM26 36C26 36.55 25.55 37 25 37H10C9.45 37 9 36.55 9 36V34C9 33.45 9.45 33 10 33H25C25.55 33 26 33.45 26 34V36ZM34 28C34 28.55 33.55 29 33 29H10C9.45 29 9 28.55 9 28V26C9 25.45 9.45 25 10 25H33C33.55 25 34 25.45 34 26V28ZM34 19C34 19.55 33.55 20 33 20H10C9.45 20 9 19.55 9 19V17C9 16.45 9.45 16 10 16H33C33.55 16 34 16.45 34 17V19ZM34 11C34 11.55 33.55 12 33 12H10C9.45 12 9 11.55 9 11V9C9 8.45 9.45 8 10 8H33C33.55 8 34 8.45 34 9V11Z" fill="#FEECD8"/>
<path d="M39 38C32.92 38 28 42.92 28 49C28 55.08 32.92 60 39 60C45.08 60 50 55.08 50 49C50 42.92 45.08 38 39 38ZM39.5 55C38.67 55 38 54.33 38 53.5C38 52.67 38.67 52 39.5 52C40.33 52 41 52.67 41 53.5C41 54.33 40.33 55 39.5 55ZM41 49.12C41 50.15 40.32 51 39.5 51C38.68 51 38 50.16 38 49.12V42.87C38 41.84 38.68 40.99 39.5 40.99C40.32 40.99 41 41.83 41 42.87V49.12Z" fill="#FEECD8"/>
</g>
<defs>
<clipPath id="clip0_114_6">
<rect width="50" height="60" fill="white"/>
</clipPath>
</defs>
</svg>
