<svg width="78" height="31" viewBox="0 0 78 31" fill="none" xmlns="http://www.w3.org/2000/svg">
<g clip-path="url(#clip0_116_28)">
<path d="M63.272 3.23767C61.4639 4.44406 61.2314 6.55781 59.6352 7.65078C59.4647 7.76935 59.3562 8.08384 59.3459 8.31584C59.0411 14.2137 62.3008 17.8999 67.5545 17.9566C69.1714 17.9772 70.7832 17.9566 72.5809 17.9566C72.4983 17.0235 72.4518 16.3636 72.3743 15.7088C72.3071 15.1159 72.1573 14.5282 72.1263 13.9302C72.0747 12.9558 72.5551 12.2856 73.4695 11.9608C74.42 11.6205 75.4583 11.8989 75.8509 12.9352C76.693 15.1675 77.4679 17.4514 77.9586 19.7817C78.2686 21.2355 76.9513 22.8182 75.4635 23.2719C74.7351 23.4936 73.9499 23.5606 73.1802 23.6328C71.8939 23.7514 70.6076 23.9061 69.3212 23.8906C66.7486 23.8648 64.9406 24.7773 63.3753 27.0045C61.5362 29.6235 58.5917 30.9175 55.3268 30.9536C49.3912 31.0258 43.4556 30.9846 37.5199 30.9691C34.1518 30.9639 31.3983 29.4431 28.9549 27.2984C25.597 24.3597 22.2805 21.3747 18.9433 18.4103C18.6282 18.1319 18.2924 17.8793 17.8895 17.5493C13.9066 20.3178 9.98566 23.076 6.02342 25.7775C5.26919 26.2931 4.38066 26.7416 3.49729 26.9014C2.24197 27.1282 1.14164 26.6952 0.470068 25.4579C-0.17567 24.2773 -0.144675 23.1585 0.65604 22.0965C1.01765 21.6222 1.45159 21.1943 1.89586 20.7973C5.54815 17.5339 9.19528 14.2756 12.8682 11.0379C16.1073 8.18695 18.3854 7.95495 22.2289 9.97591C25.4885 11.6875 28.7534 13.3888 32.2869 15.2397C33.5629 12.9197 34.7717 10.7131 36.1355 8.22304C33.6145 8.08899 31.4087 7.93949 29.1977 7.857C27.0486 7.77967 24.8945 7.83122 22.7506 7.70233C20.7359 7.58376 19.6252 6.23817 19.7544 4.27908C19.8577 2.68088 20.7721 1.7168 22.575 1.47965C24.9616 1.16516 27.3534 0.897077 29.7453 0.685702C32.9068 0.417616 36.0787 0.0979751 39.2557 2.06821e-05C44.3286 -0.149489 47.2732 4.12957 45.4858 8.87779C44.3699 11.837 43.2541 14.7963 42.1073 17.8277C46.5293 18.9362 50.0318 17.3637 53.3534 14.1622C53.4309 11.8938 53.5187 9.24898 53.6066 6.59906C53.6221 6.17115 53.5652 5.73809 53.6117 5.31018C53.8855 2.97474 55.5644 1.68071 57.9511 2.07253C59.6403 2.35093 61.2986 2.7943 63.2668 3.22736L63.272 3.23767Z" fill="#FEECD8"/>
<path d="M71.119 15.1572C67.6578 16.4822 64.9457 15.7965 63.0602 13.3218C61.2883 10.9967 61.3296 7.79514 63.0188 5.44423C65.1472 2.47982 68.6858 2.52622 70.8607 3.34595C73.6503 4.39767 74.8953 6.89808 74.5543 10.6564C71.9662 10.9091 70.6386 12.3423 71.119 15.1572Z" fill="#FEECD8"/>
</g>
<defs>
<clipPath id="clip0_116_28">
<rect width="78" height="31" fill="white"/>
</clipPath>
</defs>
</svg>
