<svg width="59" height="80" viewBox="0 0 59 80" fill="none" xmlns="http://www.w3.org/2000/svg">
<g clip-path="url(#clip0_116_24)">
<path d="M13.9734 15.7181H4.4312V79.9405H0.317578C0.317578 79.9405 0.262994 79.8908 0.213373 79.8263C0.158789 79.7618 0.0744323 79.6923 0.0744323 79.6278C0.0446594 78.6352 0 77.6475 0 76.6549C0 53.512 0 30.3691 0 7.05256H4.13347C4.81825 9.13706 4.10866 11.3903 4.59992 13.8073C7.70126 13.8073 10.8175 13.8371 13.9337 13.7726C14.3158 13.7627 14.7574 13.316 15.0502 12.9686C16.911 10.7898 18.4195 10.9039 20.0421 13.3706C20.1265 13.4996 20.2803 13.5889 20.5582 13.8321C26.5177 13.8321 32.6262 13.8321 38.7395 13.8321C39.4293 13.8321 39.9156 13.6287 40.4068 13.0232C42.2428 10.7352 43.6769 10.8592 45.3938 13.3209C45.4831 13.4549 45.627 13.5492 45.8255 13.7378H54.6482C54.7177 11.4896 54.7822 9.31077 54.8516 7.00293H59.005V80H54.807V15.7231C51.8545 15.47 49.1104 15.5692 46.1083 15.5891C46.7087 17.6041 47.2099 19.3263 47.7458 21.0435C48.4554 23.3265 49.1997 25.5996 49.9242 27.8777C49.9987 28.1159 50.078 28.3492 50.1426 28.5874C50.6288 30.3592 50.3013 31.6397 49.1849 32.3345C48.0585 33.0343 46.1728 32.8805 45.0167 31.8928C43.8257 30.8754 42.7093 29.7785 41.5431 28.7264C40.8782 28.1258 40.1835 27.5551 39.2506 26.761C39.1067 28.0762 38.9529 29.1085 38.8884 30.1508C38.6601 33.61 38.6006 37.0842 38.2185 40.5286C37.8463 43.8836 37.1963 47.2139 36.6108 50.5441C35.6779 55.8248 34.7053 61.1006 33.7377 66.3813C33.3606 68.4559 31.8421 69.6818 29.9565 69.4882C28.051 69.2897 26.7609 67.8405 26.8353 65.7163C26.9296 62.9071 27.1529 60.103 27.3613 57.3038C27.6243 53.7651 27.922 50.2314 27.932 46.5835C27.6789 47.0799 27.3812 47.5563 27.1827 48.0725C25.0142 53.7751 22.8656 59.4876 20.6971 65.1902C20.4937 65.7262 20.2456 66.2622 19.9429 66.7486C18.9554 68.3318 17.3477 68.838 15.6606 68.1482C14.1272 67.5228 13.239 66.0438 13.641 64.3464C14.3208 61.4579 15.1395 58.5992 15.9235 55.7355C17.5114 49.9287 19.1341 44.1318 20.6971 38.315C20.9105 37.5309 20.98 36.6723 20.9304 35.8633C20.7468 33.084 21.0296 30.2649 20.2902 27.3665C18.618 28.8504 17.1095 30.25 15.5266 31.5603C14.9162 32.0665 14.1669 32.5678 13.4177 32.7068C11.1053 33.1336 9.56207 31.5305 9.93919 29.2127C10.0335 28.647 10.2568 28.101 10.4304 27.5501C11.5519 24.0114 12.6783 20.4727 13.7898 16.9341C13.8841 16.6313 13.894 16.3038 13.9833 15.7131L13.9734 15.7181Z" fill="#FEECD8"/>
<path d="M29.8821 12.0751C26.4582 11.9511 23.729 9.1221 23.9573 5.82661C24.1557 3.05224 26.3341 -0.18369 30.3535 0.00986993C33.7625 0.173652 36.3527 2.86861 36.2485 6.2981C36.1493 9.66804 33.3605 12.1992 29.8821 12.0751Z" fill="#FEECD8"/>
</g>
<defs>
<clipPath id="clip0_116_24">
<rect width="59" height="80" fill="white"/>
</clipPath>
</defs>
</svg>
