<svg width="51" height="77" viewBox="0 0 51 77" fill="none" xmlns="http://www.w3.org/2000/svg">
<g clip-path="url(#clip0_14_2)">
<path d="M9.8571 40.7028C8.25655 41.172 7.21542 40.1866 6.37111 38.5235C4.56856 34.973 2.61578 31.5007 0.745886 27.9867C-0.461 25.7188 -0.25381 24.7439 1.70932 23.0338C4.64107 20.4739 7.58318 17.9296 10.4942 15.3489C12.3952 13.6649 14.5448 12.69 17.1088 13.0028C17.9427 13.1018 18.844 13.2791 19.5484 13.7014C26.9762 18.1747 35.1188 21.0891 42.9351 24.7178C44.028 25.2235 45.1572 25.6615 46.245 26.188C47.457 26.7824 47.8714 27.5905 47.6021 28.6541C47.2861 29.921 46.535 30.4632 45.0277 30.1712C42.5725 29.6968 40.1536 29.0659 37.7139 28.5133C34.1036 27.6948 30.4881 26.8762 26.8675 26.089C26.3857 25.9847 25.8678 26.0733 25.1115 26.0733C24.925 29.9731 24.7386 33.8416 24.5469 37.903C25.2307 37.903 25.7227 37.976 26.1837 37.8926C33.0469 36.6153 39.9049 35.3171 46.763 34.0241C47.0168 33.9772 47.2757 33.9355 47.5296 33.9094C49.3528 33.7165 50.6219 34.4673 50.943 35.9271C51.2124 37.1471 50.3111 38.487 48.7572 39.0188C46.965 39.634 45.1417 40.1658 43.3443 40.7549C37.0405 42.8247 30.7367 44.9049 24.4381 46.9852C24.1999 47.0634 23.9823 47.2198 23.5938 47.4283C23.2779 50.1759 22.9153 53.0017 22.6356 55.8327C22.0451 61.7919 21.5012 67.7562 20.9314 73.7206C20.7502 75.6288 19.9317 76.6976 18.4918 76.9583C16.7462 77.2711 15.3114 75.9625 15.2233 73.8562C15.042 69.6905 14.9177 65.5248 14.7727 61.3591C14.6225 57.11 14.4982 52.8557 14.3065 48.6066C14.2754 47.9601 14.0631 47.2511 13.7264 46.7036C12.5247 44.7381 11.2349 42.8247 9.85192 40.7028H9.8571ZM7.42261 26.9961C8.20993 29.5873 8.97136 32.1107 9.73796 34.6289C9.84156 34.608 9.94516 34.5872 10.0539 34.5663V25.1453C9.16819 25.7709 8.46892 26.261 7.42779 26.9961H7.42261Z" fill="#FEECD8"/>
<path d="M23.7233 -4.57613e-06C27.0591 -0.0208591 29.7629 2.73715 29.7163 6.11557C29.6749 9.36888 27.0125 11.9496 23.713 11.934C20.4497 11.9183 17.8702 9.29067 17.8702 5.97481C17.8754 2.70587 20.5015 0.0208499 23.7233 -4.57613e-06Z" fill="#FEECD8"/>
</g>
<defs>
<clipPath id="clip0_14_2">
<rect width="51" height="77" fill="white"/>
</clipPath>
</defs>
</svg>
