<svg width="78" height="51" viewBox="0 0 78 51" fill="none" xmlns="http://www.w3.org/2000/svg">
<g clip-path="url(#clip0_116_74)">
<path d="M39.0004 51C26.7273 51 14.4542 51 2.18103 51C0.75797 51 0.0023275 50.268 0.0023275 48.8474C-0.00150825 33.2689 -0.00150825 17.6916 0.0023275 2.1131C0.0023275 0.716691 0.760528 0.00127222 2.21939 -3.03322e-06C13.15 -0.00127829 24.0806 -3.03322e-06 35.0125 -3.03322e-06C48.5207 -3.03322e-06 62.0303 -3.03322e-06 75.5385 -3.03322e-06C77.3681 -3.03322e-06 77.9998 0.629976 77.9998 2.43829C77.9998 17.9097 77.9998 33.3811 77.9998 48.8537C77.9998 50.2578 77.2544 50.9962 75.8198 50.9962C65.6768 50.9974 55.5351 50.9962 45.392 50.9962C43.2619 50.9962 41.1305 50.9962 39.0004 50.9962V51ZM1.6696 32.9322C1.6696 33.2357 1.6696 33.4869 1.6696 33.7381C1.6696 38.7116 1.67599 43.6851 1.65937 48.6586C1.65809 49.1509 1.78467 49.3779 2.30122 49.3218C2.55438 49.295 2.81265 49.3179 3.06837 49.3179C26.7848 49.3179 50.5025 49.3179 74.219 49.3179C74.7304 49.3179 75.2431 49.2937 75.7533 49.3243C76.211 49.3511 76.3325 49.1662 76.3325 48.73C76.3325 46.9676 76.3772 45.2052 76.3824 43.4428C76.3913 40.1693 76.3849 36.897 76.3836 33.6234C76.3836 33.3964 76.3836 33.1707 76.3836 32.9424C76.7583 32.9105 77.0472 32.8863 77.3298 32.8633V18.1188C77.0076 18.0997 76.734 18.0831 76.3836 18.0627C76.3836 17.8357 76.3836 17.6291 76.3836 17.4213C76.3632 12.449 76.3427 7.4781 76.3235 2.50588C76.321 1.94816 76.0427 1.66931 75.4886 1.66931C64.8342 1.67186 54.1798 1.67568 43.5253 1.67568C29.8458 1.67568 16.1649 1.67568 2.48534 1.65656C1.84605 1.65656 1.6517 1.81086 1.65554 2.46762C1.68239 7.41943 1.6696 12.3712 1.6696 17.3243C1.6696 17.5705 1.6696 17.8166 1.6696 18.0665C1.30137 18.0895 1.02903 18.1073 0.72217 18.1265L0.72217 32.8761C1.03031 32.8952 1.30265 32.9118 1.67088 32.9347L1.6696 32.9322Z" fill="#FEECD8"/>
<path d="M39.5325 2.69201H75.2792V5.78578C69.5051 6.26655 64.7654 8.70993 61.1265 13.1644C58.2599 16.6752 56.7947 20.7356 56.7563 25.2755C56.7116 30.5066 58.4926 35.0644 62.0458 38.8927C65.599 42.7197 70.0485 44.7754 75.2792 45.2116V48.276H39.5415V31.1315C41.1026 30.9096 42.449 30.2605 43.4603 29.0069C44.2786 27.9931 44.6916 26.8313 44.7223 25.5382C44.7888 22.739 43.0947 20.8389 39.5312 19.7269V2.69328L39.5325 2.69201Z" fill="#FEECD8"/>
<path d="M38.4444 19.7333C34.7659 20.9167 33.1306 22.8028 33.2726 25.7027C33.4094 28.507 35.2454 30.439 38.4738 31.1481V48.2926H2.71185V45.2958C9.00248 44.7448 14.0759 41.9814 17.7608 36.8395C20.4445 33.0928 21.6016 28.873 21.3434 24.2808C20.7885 14.4206 12.5953 6.17093 2.71057 5.69399V2.69459H38.4457V19.7358L38.4444 19.7333Z" fill="#FEECD8"/>
<path d="M75.3648 6.76139V18.0601H64.5467C64.5467 18.9822 64.5122 19.8442 64.5595 20.7012C64.5915 21.2776 64.4777 21.5748 63.8512 21.7928C62.2568 22.3476 61.2377 23.9263 61.2812 25.5395C61.3285 27.2573 62.3616 28.7162 63.9956 29.2543C64.461 29.4074 64.5672 29.6293 64.5531 30.0692C64.5237 30.9798 64.5442 31.8928 64.5442 32.8901H75.3686V44.2144C69.468 43.703 64.6784 41.1882 61.3093 36.3792C56.8407 30.0016 56.4239 23.1892 60.1855 16.373C63.4241 10.5043 68.6407 7.44237 75.3648 6.76139Z" fill="#FEECD8"/>
<path d="M2.70422 18.1239L2.70422 6.86339C10.5765 7.05468 19.7503 13.658 20.2899 24.578C20.8307 35.5056 12.1888 43.6685 2.72212 44.1748L2.72212 32.9296H13.5402C13.5402 31.8826 13.5492 30.893 13.5351 29.9047C13.5313 29.5923 13.599 29.4265 13.9366 29.3066C15.7637 28.6537 16.8032 27.1999 16.7661 25.4222C16.729 23.6343 15.6499 22.2519 13.8074 21.6283C13.7282 21.6015 13.6553 21.5582 13.5492 21.5071V18.1239H2.70422Z" fill="#FEECD8"/>
<path d="M65.4341 29.6547C68.1945 28.7442 69.3427 27.52 69.3107 25.4336C69.2788 23.3588 68.0616 22.1039 65.429 21.3643H76.5258V29.656H65.4341V29.6547Z" fill="#FEECD8"/>
<path d="M12.6056 21.3414C10.0369 22.09 8.812 23.3576 8.77108 25.4082C8.72889 27.4996 9.87195 28.7353 12.6145 29.6318H1.55859L1.55859 21.3414H12.6056Z" fill="#FEECD8"/>
<path d="M39.5248 29.9545V21.0647C41.5808 21.0213 43.5306 23.1204 43.5767 25.3878C43.6253 27.7445 41.7355 29.8996 39.5248 29.9545Z" fill="#FEECD8"/>
<path d="M38.4547 29.9507C36.354 29.9048 34.5179 27.8886 34.4374 25.574C34.3581 23.2964 36.1865 21.2024 38.4547 21.0367V29.9507Z" fill="#FEECD8"/>
<path d="M65.3868 28.5734V22.4407C66.4659 22.4254 67.2727 22.9087 67.8544 23.7452C68.5705 24.7769 68.6306 25.8979 68.0156 26.9933C67.4606 27.9816 66.5976 28.5351 65.3868 28.5734Z" fill="#FEECD8"/>
<path d="M12.6618 22.4228V28.5771C11.6083 28.5389 10.804 28.104 10.2363 27.2726C9.51267 26.2128 9.45257 25.0817 10.0804 23.962C10.6263 22.9877 11.4868 22.4776 12.6631 22.4228H12.6618Z" fill="#FEECD8"/>
<path d="M76.5156 31.8853H65.3932V30.6495H76.5156V31.8853Z" fill="#FEECD8"/>
<path d="M65.3676 20.3314V19.1505H76.522V20.3314H65.3676Z" fill="#FEECD8"/>
<path d="M12.6695 30.6418V31.8635H1.55475V30.6418H12.6695Z" fill="#FEECD8"/>
<path d="M12.6593 19.1339V20.339H1.56116V19.1339H12.658H12.6593Z" fill="#FEECD8"/>
<path d="M64.4969 28.4254C63.1748 28.1691 62.1967 26.9142 62.1775 25.5C62.1596 24.1265 63.1493 22.8526 64.4969 22.5682V28.4254Z" fill="#FEECD8"/>
<path d="M13.5747 22.5643C14.9824 22.887 15.9005 24.1227 15.8634 25.5752C15.8289 26.9742 14.8737 28.178 13.5747 28.4254V22.5631V22.5643Z" fill="#FEECD8"/>
</g>
<defs>
<clipPath id="clip0_116_74">
<rect width="51" height="78" fill="white" transform="matrix(0 -1 1 0 0 51)"/>
</clipPath>
</defs>
</svg>
