<svg width="49" height="66" viewBox="0 0 49 66" fill="none" xmlns="http://www.w3.org/2000/svg">
<g clip-path="url(#clip0_109_2109)">
<path d="M15.1862 44.7356C14.451 46.4193 13.7056 47.9637 13.0923 49.5585C11.342 54.103 9.64102 58.6668 7.93352 63.2267C7.56272 64.2156 7.10117 65.1206 6.10805 65.626C3.8651 66.7669 0.657554 65.1528 0.100059 62.6337C-0.0983062 61.7364 0.0144894 60.8842 0.306202 60.0424C3.18184 51.7424 6.35438 43.5688 10.3826 35.7356C11.7647 33.0488 12.8006 30.1881 14.1062 27.4588C16.6979 22.0428 19.7019 16.8589 23.2141 11.9741C27.4446 6.08751 33.1596 2.42614 40.2048 0.788842C41.7333 0.433019 43.3008 0.211274 44.8618 0.0269164C47.4353 -0.277338 49.4981 2.02391 48.8952 4.45794C48.5983 5.6582 47.74 6.3157 46.2828 6.4588C43.1063 6.77079 40.0245 7.44763 37.1074 8.77552C33.3774 10.4734 30.3876 13.0222 28.159 16.4489C28.0902 16.5546 28.0358 16.6707 27.9645 16.8022C28.6892 17.4648 29.471 18.0566 30.0959 18.7824C30.8025 19.6023 31.3665 20.5448 32.0005 21.4292C32.1729 21.6702 32.3505 21.9152 32.5645 22.1189C34.3938 23.8658 36.0884 25.7222 37.3421 27.9358C38.3352 29.6891 39.069 31.5456 39.2907 33.5529C39.5254 35.6763 38.4661 37.0003 36.3801 37.3857C32.287 38.1412 28.1991 38.9199 24.1048 39.6625C23.498 39.7721 22.864 39.7373 22.1082 39.7747C22.1808 40.0325 22.2197 40.311 22.3338 40.5559C25.1511 46.5869 27.971 52.6178 30.8051 58.641C31.3509 59.8013 31.6841 60.9552 31.2589 62.2379C30.538 64.4154 27.9295 65.8232 25.8836 65.1013C24.7855 64.7145 24.158 63.8597 23.6886 62.8606C21.1929 57.5568 18.6958 52.2517 16.2013 46.9466C15.8759 46.2542 15.5634 45.5555 15.1875 44.7343L15.1862 44.7356ZM29.0691 27.7837C27.7609 29.5099 26.5967 31.0454 25.4311 32.5821L25.5854 32.7123C27.6079 32.332 29.6305 31.9517 31.8514 31.534C30.8985 30.25 30.0363 29.0884 29.0691 27.785V27.7837Z" fill="#FEECD8"/>
<path d="M32.4903 16.7108C32.4709 13.6154 34.9667 11.0963 38.0873 11.0615C41.2171 11.028 43.792 13.5432 43.8166 16.658C43.8399 19.7186 41.3027 22.2764 38.2066 22.3137C35.0808 22.3511 32.5111 19.832 32.4903 16.7095V16.7108Z" fill="#FEECD8"/>
</g>
<defs>
<clipPath id="clip0_109_2109">
<rect width="49" height="66" fill="white"/>
</clipPath>
</defs>
</svg>
