<svg width="82" height="59" viewBox="0 0 82 59" fill="none" xmlns="http://www.w3.org/2000/svg">
<g clip-path="url(#clip0_14_6)">
<path d="M43.7854 40.6791C42.9319 44.9356 42.1777 48.7074 41.4168 52.4858C41.2845 53.1365 41.1786 53.7873 41.0198 54.4314C39.8951 58.9203 39.8819 58.9336 35.3035 58.9336C26.7158 58.9336 18.1215 58.9403 9.53381 58.9403C8.75972 58.9403 7.98564 59 7.22479 58.9137C5.59723 58.7278 4.75698 57.2868 5.42521 55.806C6.06035 54.4115 7.08585 53.6678 8.72664 53.4752C14.8399 52.7514 20.94 51.8749 27.0466 51.0514C27.695 50.9651 28.3302 50.819 29.2895 50.6464C29.6004 46.0645 29.9114 41.4826 30.2356 36.7215C26.0807 34.6895 22.0647 32.6774 18.0024 30.7584C12.7184 28.2616 8.92513 24.3836 6.62272 19.1244C4.5188 14.2702 2.38842 9.42939 0.363888 4.53541C-0.542518 2.34407 0.284495 0.690613 2.28917 0.13946C3.76457 -0.265605 4.86945 0.192583 5.81556 1.81284C7.15201 4.09714 8.38922 6.43456 9.66613 8.74543C11.5914 12.2184 13.5564 15.6714 15.4089 19.1841C15.9713 20.2532 16.6329 20.811 17.8304 21.1231C21.4428 22.0727 24.9824 23.2813 28.5948 24.2309C29.5872 24.4965 30.7318 24.3172 31.7838 24.191C34.8272 23.8191 37.8507 23.1285 40.9008 23.0024C46.2863 22.7766 51.6916 22.8895 57.0904 22.8231C63.6072 22.7434 67.127 26.4023 66.7697 32.9099C66.4455 38.7601 66.1412 44.6103 65.8435 50.4605C65.7971 51.3171 65.8435 52.1737 65.8435 53.3822C69.0126 53.3822 71.9634 53.3822 74.9141 53.3822C75.7941 53.3822 76.6806 53.369 77.554 53.4287C80.7032 53.6279 81.7949 55.0556 81.4178 58.4489C79.1286 59.0465 62.7736 59.2125 57.8777 58.6547C57.7255 57.911 57.4675 57.0876 57.3881 56.2509C57.0705 52.6186 56.8257 48.9796 56.5015 45.3473C56.4155 44.3911 56.1443 43.4482 55.9325 42.3857C51.8835 41.8146 47.9932 41.2635 43.792 40.6725L43.7854 40.6791Z" fill="#FEECD8"/>
<path d="M67.696 22.1723C67.696 17.8428 70.6666 14.9276 75.02 14.9874C79.1485 15.0405 82.0265 18.0088 81.9934 22.1923C81.9669 26.2761 78.9169 29.5365 74.9936 29.4569C70.6534 29.3705 67.5306 26.3823 67.6894 22.1723H67.696Z" fill="#FEECD8"/>
</g>
<defs>
<clipPath id="clip0_14_6">
<rect width="82" height="59" fill="white"/>
</clipPath>
</defs>
</svg>
