<svg width="47" height="78" viewBox="0 0 47 78" fill="none" xmlns="http://www.w3.org/2000/svg">
<g clip-path="url(#clip0_101_2001)">
<path d="M20.3318 12.3007C23.7552 12.3007 26.5305 9.54708 26.5305 6.15034C26.5305 2.7536 23.7552 0 20.3318 0C16.9083 0 14.1331 2.7536 14.1331 6.15034C14.1331 9.54708 16.9083 12.3007 20.3318 12.3007Z" fill="#FEECD8"/>
<path d="M14.133 12.3007C14.6427 12.0274 15.9513 12 16.4335 12.3007C17.8798 13.2028 19.7119 16.3053 20.3318 17.8907C21.0756 19.8315 21.0205 23.2347 22.398 24.6014C23.7755 25.9681 30.9522 27.3349 33.4179 27.3349C34.7954 27.3349 34.7954 30.0684 33.4179 30.0684C29.0651 30.0684 20.3318 28.893 19.643 27.3349C19.2986 26.5558 16.888 25.9681 16.888 25.9681C16.888 25.9681 12.7556 34.1686 14.133 33.9362C15.5105 33.7039 21.0205 33.6902 23.1832 33.9362C25.153 34.1686 24.3265 42.7107 23.7755 45.1025C23.0867 48.0957 21.0205 54.6697 20.3318 55.8588C19.767 56.8429 15.8411 56.9932 15.7585 55.8588C15.5105 51.9362 18.2655 41.0023 18.2655 39.6356C18.2655 39.6356 13.0862 39.7996 11.3781 39.6356C11.0337 39.6082 10.2623 39.4169 10.0006 39.6356V43.0251C10.0006 47.836 11.3781 57.4032 11.3781 57.4032C11.3781 57.4032 11.3781 65.6037 10.0006 67.3668C9.46336 68.0638 6.7497 68.2005 6.46042 67.3668C4.49061 61.5034 6.46042 40.3599 6.46042 40.3599C6.46042 40.3599 6.18493 38.6788 5.8681 38.2688C5.11048 37.2848 3.33352 34.606 3.11312 34.1686C2.631 33.2255 2.9065 30.9704 3.11312 29.9317C4.16001 24.8474 9.55978 14.8292 14.133 12.3007Z" fill="#FEECD8"/>
<path d="M30.6629 34.1686C32.0404 32.8019 37.5504 25.9681 40.3054 24.6014C40.7462 24.3827 41.6829 25.9681 41.6829 25.9681L38.9279 30.0684C38.9279 30.0684 41.0905 34.9476 41.6829 36.6287C42.9088 40.0593 45.3332 46.975 45.8153 50.5695C46.5867 56.2552 48.0193 68.2142 45.8153 73.5308C45.4296 74.4738 44.0246 76.1823 43.0604 76.5376C34.3133 79.8178 12.7555 76.5376 5.67524 76.5376C3.49881 76.5376 1.01932 71.754 0.358126 69.7039C-0.179096 68.0501 -0.0688964 64.5649 0.358126 62.8702C0.785148 61.1754 3.11311 57.4032 3.11311 57.4032L4.4906 58.77C4.4906 58.77 2.67231 64.934 3.11311 66.9704C3.37483 68.1731 4.73855 70.5513 5.86809 71.0706C7.12161 71.6447 10.2485 71.8497 11.3781 71.0706C12.1219 70.565 12.9484 68.8155 13.0861 67.9408C13.5132 65.344 12.7555 57.4032 12.7555 57.4032C12.7555 57.4032 16.9293 58.2779 18.2655 58.77C24.0785 60.9021 34.7954 66.9704 41.2558 67.9408C42.3027 68.1048 41.6829 66.205 41.6829 65.6037C41.6553 61.8451 42.3165 54.287 41.7931 50.5695C41.4487 48.0957 39.6717 43.3121 38.9279 41.0023C38.2254 38.8155 36.1729 32.8019 36.1729 32.8019C36.1729 32.8019 33.4179 35.5353 32.0404 35.5353C31.269 35.5353 30.3186 34.5103 30.6629 34.1686Z" fill="#FEECD8"/>
</g>
<defs>
<clipPath id="clip0_101_2001">
<rect width="47" height="78" fill="white"/>
</clipPath>
</defs>
</svg>
