<svg width="74" height="61" viewBox="0 0 74 61" fill="none" xmlns="http://www.w3.org/2000/svg">
<g clip-path="url(#clip0_172_2027)">
<path d="M0 60.0041C1.58651 57.6382 3.17178 55.2723 4.7589 52.9064C5.14429 52.3318 5.542 51.7648 5.91569 51.1822C6.04867 50.9749 6.19519 50.9027 6.44022 50.9027C26.6375 50.9089 46.8342 50.912 67.0316 50.8909C67.7106 50.8902 68.0985 51.0776 68.4796 51.6583C70.2243 54.3187 72.0281 56.9398 73.8116 59.574C73.8689 59.6587 73.9378 59.7359 74.0006 59.8168V60.5015C73.8362 60.6677 73.6725 60.8332 73.5081 60.9994H48.7594C48.8357 60.5556 49.0241 60.0969 48.9687 59.6705C48.7575 58.0515 47.935 56.7743 46.6532 55.7846C45.22 54.6778 43.5769 54.061 41.8426 53.662C39.3524 53.0887 36.8338 52.9792 34.3023 53.2991C32.1303 53.5736 30.0254 54.0865 28.1372 55.2742C26.5347 56.2825 25.3773 57.6326 25.112 59.5827C25.0498 60.0378 25.2326 60.5264 25.3034 61.0001H0.615641C0.410632 60.855 0.205008 60.7094 0 60.5643C0 60.3776 0 60.1909 0 60.0041Z" fill="#FEECD8"/>
<path d="M50.4825 2.41948e-05C50.9387 0.224728 51.0643 0.60629 51.0637 1.09865C51.0551 7.73644 51.0594 14.3749 51.052 21.0127C51.052 21.2529 51.0101 21.5119 50.9135 21.7285C50.791 22.003 50.5447 22.1766 50.2283 22.1773C48.5765 22.181 46.9253 22.1785 45.2736 22.1773C45.2342 22.1773 45.1948 22.1648 45.1141 22.1517C45.1658 21.9345 45.2096 21.7279 45.2637 21.5237C45.9354 18.981 46.8724 16.5422 48.0766 14.2093C48.2003 13.9703 48.3524 13.7425 48.5155 13.5283C48.7544 13.2159 48.7089 12.8592 48.7126 12.5069C48.7255 11.1929 48.2477 10.0874 47.3446 9.15251C46.5855 8.36636 45.6633 7.84662 44.6881 7.38974C42.6072 6.41561 40.4082 5.99608 38.1352 5.8859C34.9419 5.73091 31.86 6.20273 28.9437 7.57212C27.5936 8.20577 26.4553 9.09961 25.7701 10.4802C25.1889 11.651 25.1834 12.7833 25.8397 13.9703C27.2427 16.5055 28.2776 19.197 28.9209 22.0353C28.9277 22.0646 28.9216 22.0963 28.9216 22.1648C28.8255 22.1692 28.7282 22.1779 28.631 22.1779C27.0617 22.1791 25.4918 22.181 23.9226 22.1779C23.4066 22.1773 23.0323 21.8094 23.0077 21.289C23.0003 21.1235 23.0046 20.9573 23.0046 20.7911C23.0046 14.2155 23.0071 7.63934 22.9985 1.06379C22.9979 0.578279 23.137 0.216014 23.5784 -0.0012207H50.4819L50.4825 2.41948e-05Z" fill="#FEECD8"/>
<path d="M46.6656 61H27.396C27.2489 60.8793 27.0211 60.7846 26.9718 60.6321C26.8604 60.2861 26.7834 59.9101 26.7908 59.5485C26.8031 58.9609 27.0796 58.453 27.441 58.0023C28.213 57.0375 29.254 56.4655 30.364 56.0092C32.1894 55.2592 34.1083 54.9461 36.0624 54.8683C38.315 54.7786 40.5449 54.9666 42.7113 55.6538C44.0528 56.0796 45.3192 56.6516 46.3325 57.6755C46.8607 58.209 47.2726 58.8358 47.2738 59.6063C47.2744 60.1248 47.2978 60.7292 46.6662 61H46.6656Z" fill="#FEECD8"/>
<path d="M66.6542 49.1729H7.43634C7.48313 49.0826 7.51206 49.0104 7.55454 48.9475C9.69574 45.7936 11.8382 42.6396 13.9806 39.4863C14.1573 39.2261 14.4171 39.0998 14.7151 39.0998C18.1934 39.0954 21.6712 39.0985 25.1496 39.1004C25.1693 39.1004 25.189 39.1103 25.2228 39.1203C25.2111 39.2672 25.208 39.4185 25.1853 39.5666C24.8953 41.4887 25.6981 42.9434 27.1147 44.1173C28.458 45.2303 30.0316 45.872 31.6944 46.3065C33.228 46.7073 34.7893 46.9028 36.3745 46.9513C38.7201 47.0235 41.0183 46.754 43.258 46.0432C44.8913 45.5247 46.3978 44.7665 47.605 43.5017C48.2909 42.7834 48.6886 41.9257 48.896 40.9372C49.0284 40.3048 48.8843 39.7297 48.8111 39.0942C48.9176 39.0942 49.0161 39.0942 49.114 39.0942C52.4588 39.0942 55.8035 39.0967 59.1483 39.0917C59.6217 39.0911 59.9486 39.2765 60.2207 39.6799C62.1779 42.5842 64.1516 45.4774 66.1204 48.3743C66.2879 48.6201 66.4517 48.8691 66.6542 49.1722V49.1729Z" fill="#FEECD8"/>
<path d="M37.8625 26.4279H36.212C36.212 26.543 36.2132 26.6507 36.212 26.7584C36.1966 27.8041 36.1935 28.8505 36.1591 29.8956C36.1461 30.279 35.7238 30.6319 35.3366 30.6518C34.8884 30.6755 34.5602 30.4346 34.4617 29.992C34.426 29.8321 34.4149 29.6634 34.4137 29.4991C34.4094 28.5965 34.4119 27.694 34.4119 26.7914C34.4119 26.6794 34.4119 26.5673 34.4119 26.4354H33.159C33.1535 26.5536 33.1486 26.6738 33.1424 26.7939C33.0969 27.641 33.0661 28.4888 33.0002 29.3341C32.9516 29.9572 32.5785 30.2678 32.0072 30.2186C31.5307 30.1781 31.1828 29.7262 31.2333 29.1604C31.4691 26.53 31.1625 23.9505 30.5315 21.4016C29.7976 18.4375 28.6587 15.6377 27.1824 12.973C26.8715 12.4122 27.058 11.8315 27.2871 11.2993C27.7451 10.2349 28.6224 9.59003 29.6074 9.07837C31.325 8.18578 33.1787 7.82414 35.0817 7.65732C37.1256 7.47806 39.1572 7.56022 41.1679 7.97664C42.7261 8.29907 44.2252 8.78956 45.5143 9.77925C46.3257 10.4023 46.9008 11.171 47.0171 12.2441C47.0565 12.6108 46.934 12.8896 46.7709 13.1809C45.6707 15.1454 44.7916 17.2094 44.1082 19.3562C43.3356 21.7838 42.8024 24.2593 42.7729 26.8225C42.7636 27.5969 42.7969 28.3724 42.8277 29.1467C42.848 29.6509 42.4928 30.1439 42.0261 30.2124C41.5915 30.2765 41.1402 29.9827 41.0786 29.5607C41.0134 29.1106 40.9721 28.655 40.9481 28.2006C40.9216 27.694 40.9167 27.1848 40.9217 26.6775C40.9235 26.4708 40.8558 26.4017 40.6563 26.4123C40.4107 26.4254 40.1632 26.4266 39.9182 26.4123C39.7162 26.4005 39.6122 26.4565 39.6134 26.6812C39.6196 27.5794 39.6177 28.4782 39.6183 29.3764C39.6183 29.5513 39.6417 29.73 39.614 29.8999C39.5346 30.3904 39.2342 30.6525 38.7841 30.6537C38.3594 30.6543 37.9419 30.3362 37.9038 29.8943C37.8367 29.1119 37.8121 28.3251 37.7942 27.5396C37.7862 27.1804 37.8361 26.8194 37.8613 26.4279H37.8625ZM36.9274 15.4977C38.3988 15.3134 39.8067 15.5002 41.1414 14.9755C41.5102 14.8304 41.9251 14.8099 42.3031 14.6835C43.3879 14.3213 44.4585 13.9546 44.9744 12.7496C45.2305 12.1514 45.2785 12.0518 44.8445 11.5588C44.7836 11.4891 44.714 11.4263 44.6444 11.3659C43.9894 10.792 43.2205 10.4297 42.4072 10.1571C40.0622 9.37217 37.6514 9.23461 35.2097 9.43877C33.6682 9.56762 32.1648 9.86951 30.7463 10.5181C30.1535 10.7889 29.5976 11.1231 29.1623 11.6217C28.7788 12.0605 28.7757 12.195 29.0576 12.6836C29.1506 12.8448 29.2319 13.0135 29.3353 13.1672C29.4658 13.3608 29.5834 13.5805 29.7582 13.7237C30.8134 14.587 32.1371 14.8398 33.3893 15.1504C34.5578 15.4404 35.8063 15.4006 36.9268 15.4977H36.9274ZM34.3577 17.1752C34.5418 17.7603 34.7406 18.3672 34.9204 18.9803C34.9856 19.2019 35.1057 19.2567 35.3212 19.2535C36.2028 19.243 37.085 19.2535 37.9666 19.2479C38.3224 19.2461 38.7805 19.3556 39.0064 19.1757C39.249 18.9822 39.2785 18.5103 39.393 18.1574C39.5026 17.82 39.6023 17.4802 39.6959 17.1739H34.3577V17.1752ZM36.0667 24.6421C36.6682 24.6421 37.2808 24.6477 37.8933 24.6327C37.9469 24.6315 38.0306 24.5002 38.0429 24.4205C38.1113 23.9705 38.1507 23.5155 38.2208 23.066C38.3249 22.3963 38.4462 21.7284 38.5631 21.0456H35.5182C35.7004 22.2407 35.8814 23.4227 36.0673 24.6427L36.0667 24.6421ZM41.7324 21.0331C41.3643 21.0331 41.0066 21.0213 40.6508 21.0431C40.5812 21.0474 40.4827 21.1732 40.4605 21.2591C40.3276 21.7701 40.1989 22.2836 40.0961 22.8015C39.9779 23.3966 39.888 23.9972 39.7809 24.6247H41.0128C41.2522 23.4296 41.4893 22.2469 41.7324 21.0325V21.0331ZM34.2623 24.6271C34.1274 23.4196 33.8683 22.2849 33.5691 21.1589C33.5555 21.1078 33.4755 21.04 33.425 21.0387C33.0605 21.0281 32.6961 21.0331 32.3285 21.0331C32.5729 22.2525 32.8094 23.4333 33.0488 24.6271H34.2629H34.2623ZM33.1116 19.2486C32.8808 18.5751 32.653 17.9676 32.4664 17.3476C32.3538 16.9723 32.1734 16.7289 31.7763 16.6268C31.4396 16.5403 31.1225 16.3753 30.7605 16.2303C31.1213 17.2281 31.458 18.168 31.8059 19.1035C31.8299 19.1676 31.9327 19.2392 32.001 19.2423C32.3464 19.2567 32.693 19.2486 33.1116 19.2486ZM43.3226 16.221C42.9323 16.3766 42.6122 16.5366 42.2736 16.6299C41.9098 16.7308 41.7208 16.938 41.6124 17.2997C41.4209 17.9389 41.1839 18.5639 40.9469 19.2504C41.331 19.2504 41.6555 19.2399 41.9787 19.2548C42.1683 19.2635 42.244 19.1832 42.3013 19.0108C42.4829 18.4624 42.6793 17.9184 42.8769 17.3756C43.0099 17.0115 43.1552 16.6523 43.3226 16.2216V16.221Z" fill="#FEECD8"/>
<path d="M37.0314 39.0967C40.0271 39.0967 43.0228 39.1153 46.0179 39.0867C47.1119 39.0761 47.2867 39.6015 47.2664 40.5463C47.2467 41.4626 46.6889 42.1485 46.024 42.7181C44.8223 43.7476 43.3879 44.2935 41.8851 44.6819C39.992 45.1711 38.0626 45.3087 36.1202 45.2334C34.0074 45.1512 31.9394 44.8039 29.9891 43.9312C28.9776 43.4787 28.0424 42.9073 27.3609 41.9904C27.0402 41.5591 26.797 41.0829 26.7871 40.5407C26.781 40.199 26.8388 39.8324 26.9675 39.5187C27.1036 39.1869 27.4496 39.0967 27.798 39.0967C29.1007 39.0967 30.4034 39.0967 31.7067 39.0967C33.4816 39.0967 35.2559 39.0967 37.0308 39.0967H37.0314Z" fill="#FEECD8"/>
<path d="M43.3048 12.3711C42.6356 12.8442 41.9793 13.1486 41.2781 13.2743C40.2229 13.4629 39.1541 13.5918 38.0866 13.6864C36.7685 13.8034 35.448 13.7692 34.1366 13.5631C33.0285 13.3888 31.9437 13.1343 30.9753 12.5243C30.9322 12.4969 30.891 12.467 30.7783 12.3904C32.2214 11.6964 33.7051 11.369 35.2245 11.1897C37.993 10.8629 40.6587 11.2663 43.3041 12.3718L43.3048 12.3711Z" fill="#FEECD8"/>
</g>
<defs>
<clipPath id="clip0_172_2027">
<rect width="74" height="61" fill="white"/>
</clipPath>
</defs>
</svg>
