<svg width="63" height="49" viewBox="0 0 63 49" fill="none" xmlns="http://www.w3.org/2000/svg">
<g clip-path="url(#clip0_116_62)">
<path d="M31.8315 37.6247C25.1785 37.6199 19.489 37.3001 13.8493 36.3309C10.8093 35.8081 7.81102 35.1161 4.96627 33.881C3.70783 33.3348 2.50965 32.6815 1.50113 31.7292C-0.188038 30.1341 -0.461262 28.2643 0.75057 26.2809C1.51962 25.0225 2.34733 23.8004 3.15414 22.5654C4.89314 19.9052 6.6458 17.2539 8.36872 14.5833C8.82436 13.8768 9.42867 13.3878 10.1704 13.0381C11.9705 12.1898 13.8959 11.7854 15.8374 11.4511C19.9245 10.7478 24.051 10.4851 28.1912 10.3724C32.9083 10.2443 37.619 10.3635 42.3169 10.8146C45.3175 11.103 48.3045 11.4938 51.1959 12.4017C51.6676 12.5499 52.1329 12.7256 52.5861 12.9237C53.4604 13.3056 54.1708 13.8591 54.7076 14.6929C57.112 18.4245 59.5654 22.1231 61.9794 25.8482C62.3258 26.3824 62.6271 26.9713 62.8176 27.5763C63.2925 29.0852 62.8079 30.379 61.7472 31.4795C60.5289 32.7435 58.9941 33.508 57.3933 34.1469C54.4288 35.3303 51.3285 35.9934 48.1888 36.4888C42.4575 37.3935 36.6844 37.6658 31.8307 37.6247H31.8315ZM58.8663 32.2271C58.7948 32.0668 58.7618 31.9806 58.72 31.9C56.6154 27.8252 54.4931 23.7601 52.423 19.6684C52.0839 18.9981 51.6363 18.5872 50.9564 18.3713C50.9307 18.3633 50.9058 18.3544 50.8801 18.3455C48.6798 17.5431 46.3936 17.1041 44.088 16.7609C39.7068 16.11 35.2966 15.8949 30.872 15.9263C25.6807 15.9633 20.5111 16.2679 15.4308 17.4175C14.0671 17.726 12.7435 18.2215 11.4144 18.6686C11.1926 18.7435 10.9716 18.9771 10.8583 19.1939C9.05258 22.6524 7.26296 26.1205 5.47173 29.5871C5.02975 30.4419 4.5942 31.2998 4.14499 32.1764C4.40053 32.3093 4.62152 32.4325 4.84974 32.5421C6.65705 33.4098 8.55837 34.0067 10.5007 34.4748C14.9028 35.5358 19.3813 36.0627 23.8959 36.2649C31.584 36.6081 39.2648 36.6016 46.9087 35.5269C50.1488 35.0717 53.3487 34.4289 56.4225 33.2688C57.2438 32.9586 58.0394 32.5816 58.8655 32.2271H58.8663Z" fill="#FEECD8"/>
<path d="M0.0200901 35.6743C0.901642 36.919 2.02508 37.7456 3.26664 38.4239C5.28127 39.5244 7.44859 40.2099 9.66251 40.7594C13.7946 41.7857 17.9975 42.34 22.2389 42.6324C27.6704 43.007 33.106 43.0215 38.5408 42.7645C43.9546 42.5084 49.3227 41.8929 54.5662 40.4411C56.5583 39.8893 58.4942 39.1868 60.2734 38.1073C61.2554 37.5111 62.1353 36.7965 62.8104 35.8516C62.8369 35.8137 62.8771 35.7863 62.9647 35.7017C62.9647 35.8862 62.9647 36.0014 62.9647 36.1166C62.9647 37.1905 62.8996 38.27 62.9799 39.3383C63.1286 41.3072 62.2004 42.6727 60.6977 43.7563C58.9217 45.0364 56.9023 45.7856 54.8282 46.3995C51.2714 47.4516 47.6231 48.0204 43.9442 48.4079C37.8577 49.0492 31.7527 49.1112 25.6454 48.8768C20.2452 48.6697 14.8795 48.13 9.62153 46.8023C7.25331 46.2045 4.93733 45.4521 2.84636 44.1405C2.00097 43.6104 1.23915 42.9796 0.674222 42.1386C0.259564 41.5215 0.0225009 40.844 0.0152684 40.0996C0.0016072 38.7018 0.00401801 37.3057 0 35.9096C0 35.862 0.00803602 35.8153 0.0200901 35.6743Z" fill="#FEECD8"/>
<path d="M62.9526 31.0413C62.9526 31.9871 62.988 32.8048 62.9438 33.6176C62.8891 34.6327 62.3764 35.4488 61.6813 36.1545C60.578 37.2743 59.2183 37.9937 57.7927 38.5963C55.0628 39.75 52.1964 40.4154 49.2906 40.9197C43.5328 41.9187 37.7235 42.2361 31.8886 42.2377C28.0835 42.2377 24.2825 42.1531 20.4919 41.8011C15.8583 41.3701 11.2633 40.724 6.82984 39.2271C5.14951 38.66 3.51498 37.9776 2.11189 36.8626C1.60401 36.459 1.154 35.9668 0.738533 35.4641C0.303785 34.9388 0.062704 34.2968 0.0361851 33.6104C0.00404105 32.783 0.0281491 31.954 0.0281491 31.0832C0.266819 31.3643 0.474952 31.6358 0.709604 31.8815C2.00099 33.2309 3.62186 34.051 5.32389 34.731C8.09953 35.8387 11.0005 36.4792 13.9329 36.9795C21.3863 38.2507 28.9008 38.4529 36.437 38.2048C41.8934 38.0251 47.3121 37.4975 52.6424 36.2608C55.2043 35.6663 57.7155 34.9195 60.0211 33.6047C61.1365 32.9683 62.1329 32.1933 62.9518 31.0429L62.9526 31.0413Z" fill="#FEECD8"/>
<path d="M31.4755 6.19761C29.8562 6.19761 28.237 6.19922 26.6169 6.1968C25.618 6.19519 25.0467 5.62884 25.0402 4.62988C25.0338 3.60997 25.0306 2.59006 25.0378 1.57095C25.0442 0.568765 25.6204 0 26.6113 0C29.8498 0 33.0891 0 36.3276 0C37.4077 0 37.9678 0.547819 37.9758 1.62573C37.983 2.63195 37.9814 3.63816 37.9726 4.64438C37.9646 5.61192 37.3747 6.19438 36.4128 6.196C34.7662 6.19841 33.1204 6.196 31.4739 6.196L31.4755 6.19761ZM25.8744 4.62827H37.0951V1.5637H25.8744V4.62907V4.62827Z" fill="#FEECD8"/>
<path d="M30.7329 6.90576V9.62472H29.9864V6.90576H30.7329Z" fill="#FEECD8"/>
<path d="M32.4069 9.62069V6.89771H33.143V9.62069H32.4069Z" fill="#FEECD8"/>
<path d="M7.82306 33.0504C8.13004 32.3205 8.4129 31.6421 8.70059 30.9662C9.0365 30.1759 9.40133 29.3977 9.70188 28.5945C9.85698 28.1788 10.0892 28.0636 10.5408 28.1844C10.1374 29.1472 9.73724 30.1042 9.30972 31.1265C11.056 31.4133 12.7652 31.6945 14.5259 31.9837C14.7284 30.7092 14.9269 29.4549 15.1302 28.174H24.0534C24.3467 29.9616 25.5553 30.9977 27.0701 31.6768C30.1536 33.0584 33.2788 33.0407 36.3758 31.6865C37.3056 31.2796 38.1446 30.7012 38.7095 29.8376C39.0326 29.3429 39.231 28.7677 39.5252 28.145C39.5493 28.145 39.6939 28.145 39.8378 28.145C42.5564 28.145 45.2757 28.1514 47.9943 28.1377C48.3294 28.1361 48.4154 28.2537 48.4588 28.5639C48.6163 29.6909 48.8068 30.814 48.9924 31.9813C50.7346 31.6961 52.4423 31.4174 54.2086 31.1282C53.7883 30.1219 53.3881 29.1657 52.9775 28.1836C53.3809 28.1015 53.6356 28.1015 53.8124 28.555C54.3315 29.8923 54.9158 31.2039 55.4743 32.5259C55.5201 32.6347 55.5619 32.7442 55.6302 32.9166C54.6112 33.2018 53.63 33.5039 52.6359 33.7512C49.223 34.5996 45.7507 35.0789 42.251 35.3705C36.0737 35.8853 29.8892 35.8966 23.7046 35.5776C18.5881 35.3141 13.515 34.7027 8.57041 33.2751C8.33978 33.2083 8.11155 33.1366 7.82386 33.0504H7.82306Z" fill="#FEECD8"/>
<path d="M47.6721 23.5402C47.8834 24.9105 48.0892 26.2414 48.2981 27.5981H39.4151C38.9627 25.4019 37.353 24.3369 35.4308 23.7021C32.435 22.7136 29.4681 22.8312 26.6306 24.32C26.1621 24.5657 25.7338 24.9073 25.3328 25.2577C24.6368 25.8676 24.1981 26.6402 24.0695 27.594H15.2226C15.4316 26.2406 15.6365 24.9105 15.8478 23.5402C14.7871 23.4677 13.7754 23.3895 12.7612 23.3444C12.6648 23.3404 12.5185 23.5192 12.4647 23.6433C11.9648 24.8002 11.4634 25.9578 11.0013 27.13C10.8414 27.5368 10.6429 27.7358 10.1616 27.5707C10.2074 27.4482 10.2516 27.3153 10.3054 27.1864C11.2079 25.0491 12.1127 22.9126 13.0152 20.7753C13.3189 20.0551 13.527 19.9165 14.3258 19.9165C17.4599 19.9165 20.5931 19.9165 23.7272 19.9165C32.2317 19.9165 40.7354 19.9165 49.2399 19.9165C49.9567 19.9165 50.2396 20.1074 50.5217 20.7753C51.4177 22.9005 52.3153 25.0249 53.2113 27.1509C53.2676 27.2839 53.315 27.4208 53.3672 27.5586C52.9649 27.6434 52.6906 27.5129 52.5443 27.1671C52.0493 25.9933 51.5463 24.8227 51.0657 23.6425C50.9604 23.3831 50.8311 23.3114 50.557 23.3347C49.6136 23.4177 48.667 23.4701 47.6697 23.5386L47.6721 23.5402Z" fill="#FEECD8"/>
<path d="M38.8148 28.1862C38.7899 28.7581 38.544 29.2262 38.2097 29.6492C37.3145 30.7819 36.093 31.4022 34.7365 31.7583C32.083 32.4551 29.4858 32.3246 27.001 31.0783C26.1516 30.6521 25.4196 30.064 24.9583 29.2077C24.796 28.9072 24.7027 28.5688 24.5541 28.1862H38.8156H38.8148Z" fill="#FEECD8"/>
<path d="M38.8727 27.598H24.6208C24.6899 26.9019 25.0113 26.3589 25.4453 25.8723C26.1131 25.1231 26.9504 24.6285 27.885 24.3006C30.6952 23.3129 33.4821 23.354 36.2152 24.5769C37.2365 25.0337 38.0996 25.708 38.5938 26.7577C38.7103 27.0058 38.7698 27.2805 38.8735 27.598H38.8727Z" fill="#FEECD8"/>
</g>
<defs>
<clipPath id="clip0_116_62">
<rect width="63" height="49" fill="white"/>
</clipPath>
</defs>
</svg>
