<svg width="50" height="77" viewBox="0 0 50 77" fill="none" xmlns="http://www.w3.org/2000/svg">
<g clip-path="url(#clip0_13_51)">
<path d="M6.83443 6.25892C5.97211 6.46035 5.36602 6.60283 4.83384 6.72565C4.67616 7.84088 4.83877 9.08876 4.29181 9.752C3.83847 10.3022 2.54745 10.1647 1.55701 10.3465C0.389179 8.21426 0.423672 5.88554 -9.8723e-05 3.67473C-0.0543019 3.3947 0.472948 2.89358 0.837587 2.68233C1.13817 2.50546 1.65556 2.71672 1.98078 2.55459C3.18311 1.96504 3.62659 2.58898 3.89268 3.61578C4.01094 4.07759 4.16862 4.52958 4.35094 5.13878C5.05558 5.01104 5.67646 4.89805 6.3466 4.77522C6.9724 4.10216 6.39588 2.68233 7.71647 2.44651C9.00749 2.2156 9.29329 3.36031 9.95851 4.20041C10.466 4.09233 11.0081 3.97442 11.7029 3.82212V0.589426C12.235 0.515733 12.6194 0.47643 12.9988 0.412562C15.2803 0.0342679 15.2606 0.0342678 15.6745 2.37281C15.9012 3.65999 16.2165 4.92752 16.453 6.21471C16.6058 7.03516 16.4383 7.66401 15.4183 7.76719C14.7185 7.84088 14.0336 8.03248 13.122 8.21426C12.8116 7.34467 12.4962 6.46035 12.1266 5.42373C11.5452 5.48268 10.9292 5.54655 10.1704 5.62516C10.1704 6.13119 10.1063 6.53405 10.1802 6.90251C10.7124 9.46214 11.2495 12.0218 11.8408 14.5666C11.9443 15.0186 12.2153 15.4903 12.5406 15.8244C15.1571 18.497 18.1875 20.2509 22.1 20.1084C24.2337 20.0298 26.3673 20.0642 28.5009 20.0888C32.1424 20.133 34.9068 18.325 37.3656 15.9226C37.7894 15.505 37.9914 14.7877 38.1393 14.1736C38.7848 11.4764 39.3711 8.76451 40.0265 5.86098C39.3662 5.67429 38.701 5.49251 37.9274 5.27634C37.5282 6.38174 37.1882 7.32011 36.8581 8.23882C33.4137 7.3152 33.3447 7.30046 33.941 4.16111C34.2071 2.76584 34.1233 1.21337 35.1926 -0.0050354C36.1633 0.201307 37.0946 0.397823 38.2871 0.653294C38.2082 1.61131 38.1294 2.54476 38.0358 3.66982C38.5975 3.85651 39.2627 4.0825 39.9477 4.31341C40.7903 3.68947 40.81 2.11734 42.2932 2.44651C43.5152 2.72163 43.0816 3.91547 43.5448 4.71136C44.2051 4.84892 44.8949 4.9963 45.6834 5.16334C45.9642 4.16111 46.1958 3.321 46.457 2.39738C47.4425 2.50546 48.3787 2.5202 49.2558 2.75602C49.5811 2.84445 50.0245 3.47822 49.9802 3.80247C49.7338 5.65955 49.379 7.50189 49.0045 9.33932C48.8518 10.091 48.3442 10.43 47.546 10.2433C46.866 10.0861 46.1761 9.9436 45.1857 9.73235C45.2399 8.85785 45.299 7.93914 45.368 6.83865C44.7816 6.67161 44.1213 6.48 43.2245 6.21962C42.8894 9.43757 42.4213 12.4246 42.3178 15.4264C42.239 17.6863 41.692 19.5238 39.9329 21.0517C38.7059 22.1178 37.6761 23.4148 36.5772 24.6283C34.4042 27.0356 33.2265 29.8114 33.3398 33.1031C33.3989 34.8177 33.3891 36.5421 33.3102 38.2567C33.0836 43.032 33.9213 47.7091 34.5126 52.4108C35.2468 58.2473 36.0007 64.0838 36.7497 69.9204C36.9271 71.296 37.203 72.6667 37.2868 74.0472C37.3755 75.4769 36.6659 76.3956 35.5474 76.6167C34.2908 76.8623 33.4088 76.4693 32.8865 75.02C32.0833 72.7993 31.4821 70.505 30.812 68.2402C29.2401 62.9146 27.678 57.589 26.1012 52.2634C25.9189 51.6493 25.6479 51.0646 25.2537 50.0231C24.6377 53.3884 24.0858 56.292 23.5734 59.2053C22.6864 64.2705 21.8192 69.3407 20.9421 74.4059C20.8878 74.7252 20.7893 75.0396 20.6907 75.3541C20.3557 76.4202 19.5919 76.9606 18.5029 77.0048C17.4829 77.0441 16.458 76.2138 16.251 75.0838C16.1081 74.2929 16.182 73.4528 16.1919 72.6372C16.3446 59.7114 16.4432 46.7855 16.6846 33.8596C16.7585 29.9244 15.4922 26.6721 12.7278 23.9307C12.3237 23.5278 12.0034 23.0218 11.555 22.6729C8.14517 20.0003 7.28284 16.3353 7.27791 12.2576C7.27791 10.3219 6.99212 8.3813 6.81965 6.26383L6.83443 6.25892Z" fill="#FEECD8"/>
<path d="M24.5146 17.2247C21.2673 17.151 19.0007 14.7633 19.1189 11.5502C19.2323 8.46494 21.834 6.092 24.9827 6.205C28.0822 6.31308 30.408 8.81375 30.3833 12.0219C30.3587 15.0777 27.8506 17.3033 24.5097 17.2296L24.5146 17.2247Z" fill="#FEECD8"/>
</g>
<defs>
<clipPath id="clip0_13_51">
<rect width="50" height="77" fill="white"/>
</clipPath>
</defs>
</svg>
