<svg width="59" height="57" viewBox="0 0 59 57" fill="none" xmlns="http://www.w3.org/2000/svg">
<g clip-path="url(#clip0_109_2116)">
<path d="M34.0806 30.3186C35.9703 31.9912 37.8132 33.5642 39.596 35.197C42.9346 38.2567 43.1616 41.3496 40.237 44.7346C38.0669 47.2501 35.8033 49.6859 33.5264 52.1085C31.5833 54.1726 29.3598 54.4846 27.6571 53.0775C26.2415 51.916 25.9077 49.2213 27.7506 47.1306C29.3398 45.3319 30.6819 43.3142 32.2911 41.1903C29.293 38.7279 26.4752 36.4248 23.6641 34.1151C19.4441 30.6505 19.2037 27.5509 22.8562 23.4359C24.9128 21.1195 27.0094 18.843 29.4266 16.1682C27.4835 15.3717 25.8275 14.6815 23.9846 13.9248C21.4339 15.6505 18.8766 17.3961 16.2991 19.1151C15.5646 19.6063 14.8235 20.1372 14.0088 20.4492C12.4798 21.0266 10.8973 20.5355 10.1828 19.2943C9.38821 17.9204 9.33479 16.3872 10.5701 15.3452C13.9554 12.4846 17.4142 9.7036 20.9732 7.06864C21.7544 6.49121 23.1233 6.35183 24.1382 6.51112C29.3398 7.34741 34.2943 8.63502 37.9534 12.9824C40.8046 16.3673 41.2453 18.2987 38.9483 22.1947C37.3792 24.8496 35.7699 27.4846 34.0672 30.3253L34.0806 30.3186Z" fill="#FEECD8"/>
<path d="M2.43972e-05 56.9933V54.5641C1.02164 54.5044 1.98316 54.4314 2.95136 54.4049C3.82608 54.3783 4.70747 54.4049 6.33672 54.4049C4.9345 52.7057 3.91956 51.4845 2.91797 50.25C2.43054 49.6526 1.84962 49.0818 1.52911 48.4049C1.34882 48.0133 1.46234 47.104 1.70272 46.9911C2.18348 46.7721 3.0849 46.6991 3.39206 46.9911C4.57393 48.1394 5.58887 49.4668 6.67725 50.7212C7.1046 51.219 7.55197 51.6969 7.95928 52.1482C11.5583 45.9093 15.1039 39.7633 18.7297 33.4845C21.1134 35.5155 23.357 37.4203 25.7407 39.4513C22.1818 44.3164 18.6762 49.1018 15.0171 54.0929C16.1255 54.3252 16.9802 54.4115 17.7548 54.7035C18.0553 54.8164 18.3491 55.4137 18.3223 55.7721C18.2956 56.1305 17.9417 56.615 17.6079 56.761C17.1271 56.9734 16.5328 56.9867 15.9853 56.9867C10.7771 57 5.57551 56.9933 -0.00665283 56.9933H2.43972e-05Z" fill="#FEECD8"/>
<path d="M41.1718 24.6704C42.1133 22.0022 42.8812 19.8451 43.6891 17.5553C44.8376 18.2987 46.113 19.1217 47.7222 20.1571C48.3899 19.3341 49.0643 18.531 49.6986 17.7013C50.9673 16.0354 52.1291 14.2766 53.5046 12.6969C54.6665 11.3562 56.3959 11.2567 57.7046 12.1726C58.8598 12.989 59.4006 14.5553 58.6461 15.9823C56.9367 19.1881 55.1873 22.3938 53.1775 25.4137C51.5616 27.8496 48.8373 28.4336 46.0929 27.239C44.3902 26.5022 42.7944 25.5266 41.1651 24.6637L41.1718 24.6704Z" fill="#FEECD8"/>
<path d="M45.1715 13.1615C41.6259 13.1217 38.6345 10.1217 38.6211 6.59734C38.6144 2.94689 41.8061 -0.132752 45.4719 0.00662871C49.0109 0.139372 51.9422 3.22566 51.8554 6.73672C51.7686 10.2544 48.7037 13.208 45.1648 13.1681L45.1715 13.1615Z" fill="#FEECD8"/>
</g>
<defs>
<clipPath id="clip0_109_2116">
<rect width="59" height="57" fill="white"/>
</clipPath>
</defs>
</svg>
