<svg width="73" height="51" viewBox="0 0 73 51" fill="none" xmlns="http://www.w3.org/2000/svg">
<g clip-path="url(#clip0_13_55)">
<path d="M43.2013 24.0982C38.624 22.551 34.1911 21.0561 29.3711 19.4275C29.348 20.5733 29.2902 21.4865 29.3191 22.3939C29.4925 28.8794 29.6832 35.3591 29.8623 41.8388C29.8797 42.4205 29.9317 43.0022 29.8855 43.5838C29.7352 45.5091 28.4117 46.7713 26.4987 46.8644C24.7764 46.9458 23.2333 45.893 22.9559 44.1306C22.2971 40.0241 21.7885 35.9001 21.2048 31.7819C20.9389 29.909 20.621 28.0419 20.2107 25.4476C18.8872 27.6929 17.922 29.2982 16.9858 30.9211C13.6626 36.6911 10.3625 42.4729 7.03359 48.2371C5.59451 50.7324 3.78555 51.5526 1.91301 50.6161C0.0404775 49.6738 -0.508568 47.6613 0.508611 45.0671C5.09748 33.3815 9.70947 21.7076 14.3099 10.0278C14.4544 9.6672 14.6278 9.32402 14.7607 8.95757C17.1245 2.25103 22.4936 -0.482778 29.0879 1.72753C35.9192 4.01346 42.762 6.25867 49.5355 8.71327C51.8242 9.53923 53.7603 9.4927 55.8236 8.2305C59.1872 6.17142 62.6259 4.22867 66.0416 2.25103C67.209 1.5763 68.3591 0.860858 69.5786 0.29083C70.8616 -0.302463 72.006 0.0523495 72.6186 1.04699C73.2659 2.09979 73.104 3.12933 72.0291 4.15306C71.4743 4.68237 70.827 5.11861 70.2028 5.57231C65.8509 8.75399 61.5799 12.0578 57.1181 15.0825C52.9627 17.9035 50.5932 21.7308 49.4662 26.5644C48.0849 32.4916 46.5187 38.378 45.0276 44.276C44.8889 44.8344 44.7328 45.3986 44.4901 45.9221C44.0335 46.8993 43.2013 47.4344 42.161 47.225C41.0282 46.9982 40.3058 46.2188 40.2711 44.9856C40.2538 44.4098 40.3058 43.8223 40.3867 43.2523C41.2941 37.0343 42.2188 30.8222 43.2071 24.1098L43.2013 24.0982Z" fill="#FEECD8"/>
<path d="M60.1755 17.8105C63.9668 17.8395 67.3304 21.3179 67.2322 25.1103C67.1397 28.7748 63.7645 32.1426 60.1639 32.1658C56.3321 32.1949 53.0437 28.8795 53.009 24.9649C52.9801 21.091 56.2917 17.7814 60.1755 17.8163V17.8105Z" fill="#FEECD8"/>
</g>
<defs>
<clipPath id="clip0_13_55">
<rect width="73" height="51" fill="white"/>
</clipPath>
</defs>
</svg>
