<svg width="92" height="48" viewBox="0 0 92 48" fill="none" xmlns="http://www.w3.org/2000/svg">
<g clip-path="url(#clip0_116_38)">
<path d="M51.24 19.4207C56.1618 13.2004 62.7168 12.1309 69.7785 14.0955C77.0824 16.1276 82.3703 20.5577 84.0991 28.4217C84.3019 29.3393 85.1691 30.3525 86.0025 30.8423C89.1392 32.6774 90.8962 35.3963 91.679 38.8413C92.9742 44.5099 90.2261 47.9887 84.392 47.9944C65.6282 48.0112 46.8644 48 28.095 47.9887C27.1602 47.9887 26.2197 47.9156 25.2962 47.7636C22.7452 47.347 21.388 45.799 21.0557 43.2433C20.3856 38.0757 23.0211 34.7264 27.0137 32.0188C27.7458 31.5234 28.6469 30.6227 28.6919 29.8684C29.317 18.9197 39.2001 13.2004 48.9536 18.2273C49.697 18.6101 50.4347 19.0041 51.2344 19.4207H51.24Z" fill="#FEECD8"/>
<path d="M17.722 37.0287C13.1211 35.2611 9.87744 30.5495 9.86618 25.1117C9.85492 19.0941 13.0029 14.3319 18.4372 12.1421C23.6687 10.0312 29.1987 11.2583 33.1914 15.5309C28.8777 18.8521 25.8762 22.9783 25.5045 28.6243C25.4764 29.0128 25.1103 29.4237 24.8063 29.7333C22.503 32.1257 20.1829 34.4956 17.7163 37.0287H17.722Z" fill="#FEECD8"/>
<path d="M16.3874 41.0704C13.7181 42.4271 11.5838 43.5191 8.90887 44.8758C9.34249 41.988 9.71416 39.5337 10.159 36.584C12.3328 38.1489 14.1573 39.4661 16.3874 41.0704Z" fill="#FEECD8"/>
<path d="M19.7042 7.34045C20.9713 4.85798 22.0863 2.68512 23.4604 0C24.8175 2.66823 25.9213 4.84672 27.1883 7.34045H19.7042Z" fill="#FEECD8"/>
<path d="M16.4324 8.55069C14.2249 10.1494 12.3834 11.4835 10.1928 13.0653C9.73106 10.1831 9.34813 7.76823 8.86383 4.74536C11.4937 6.06822 13.7294 7.18842 16.4324 8.54506V8.55069Z" fill="#FEECD8"/>
<path d="M8.18244 15.8743C7.36025 18.3736 6.67886 20.4677 5.94114 22.7137C4.12784 20.7998 2.46658 19.0379 0.585693 17.0508C2.92272 16.6905 5.37801 16.3077 8.18244 15.8743Z" fill="#FEECD8"/>
<path d="M30.5278 8.57324C33.1464 7.23913 35.3032 6.14144 37.9781 4.77917C37.5389 7.70072 37.1672 10.1888 36.7336 13.0822C34.5993 11.5286 32.7409 10.1832 30.5278 8.57324Z" fill="#FEECD8"/>
<path d="M6.02559 27.1776C6.65067 29.0972 7.33207 31.1856 8.15988 33.7187C5.37798 33.3134 2.95085 32.9644 0 32.5366C2.2075 30.572 4.02644 28.9564 6.02559 27.1776Z" fill="#FEECD8"/>
</g>
<defs>
<clipPath id="clip0_116_38">
<rect width="92" height="48" fill="white"/>
</clipPath>
</defs>
</svg>
