<svg width="80" height="83" viewBox="0 0 80 83" fill="none" xmlns="http://www.w3.org/2000/svg">
<g clip-path="url(#clip0_176_2045)">
<path d="M37.9322 61.1131V66.1458C37.7859 66.1529 37.6094 66.1701 37.4339 66.1701C26.3382 66.1711 15.2435 66.1721 4.14777 66.1701C1.69562 66.1701 0.0020174 64.4618 0.0020174 61.9915C0 44.585 0 27.1794 0 9.77384C0 7.46038 1.73799 5.71061 4.05397 5.70252C6.74417 5.69341 9.43336 5.70049 12.1236 5.70151C12.3203 5.70151 12.518 5.70151 12.7752 5.70151C12.7752 4.78969 12.755 3.93454 12.7802 3.0804C12.8176 1.80324 13.4137 0.851955 14.5717 0.313566C15.6913 -0.207619 16.7767 -0.0639139 17.7521 0.686997C18.5137 1.27396 18.9081 2.07851 18.9232 3.04802C18.9363 3.90519 18.9262 4.76236 18.9262 5.66001H44.3061C44.3061 4.78867 44.291 3.93251 44.3102 3.07635C44.3384 1.7911 44.9497 0.845883 46.0996 0.309518C47.2566 -0.229884 48.3722 -0.0558178 49.3577 0.750754C50.1364 1.38832 50.4673 2.25157 50.4643 3.25143C50.4612 4.04181 50.4643 4.83118 50.4643 5.69948H51.1391C53.7617 5.69948 56.3843 5.69948 59.0069 5.69948C61.5357 5.69948 63.2253 7.3774 63.2263 9.90742C63.2294 20.0275 63.2273 30.1466 63.2273 40.2667V40.7919H58.1869V27.0488H5.0788C5.06569 27.2249 5.04249 27.401 5.04249 27.5771C5.04047 38.5736 5.04451 49.5701 5.03039 60.5676C5.03039 61.0301 5.17665 61.1212 5.60535 61.1202C16.1463 61.1091 26.6862 61.1121 37.2271 61.1121H37.9332L37.9322 61.1131Z" fill="#FEECD8"/>
<path d="M80 63.6119C79.9919 74.3503 71.3443 83.0121 60.6441 83C50.0567 82.9878 41.4081 74.2815 41.4081 63.6372C41.4081 52.9736 50.0769 44.2703 60.6945 44.2754C71.3393 44.2805 80.0071 52.9635 80 63.6129V63.6119ZM60.753 49.4265C52.9083 49.4316 46.5505 55.7921 46.5535 63.6301C46.5565 71.463 52.9093 77.8488 60.6905 77.8428C68.4998 77.8367 74.8677 71.4721 74.8748 63.6685C74.8808 55.8477 68.5089 49.4205 60.754 49.4255L60.753 49.4265Z" fill="#FEECD8"/>
<path d="M25.8459 31.9745V37.9089H19.8704C19.8704 37.6994 19.8704 37.5021 19.8704 37.3057C19.8694 35.6895 19.8775 34.0734 19.8603 32.4562C19.8563 32.0807 19.9319 31.9218 20.3546 31.9279C22.032 31.9512 23.7105 31.936 25.389 31.939C25.5353 31.939 25.6815 31.9613 25.8459 31.9755V31.9745Z" fill="#FEECD8"/>
<path d="M28.753 37.9129V31.9694H34.6882V37.9129H28.753Z" fill="#FEECD8"/>
<path d="M43.5718 32.0028V37.917H37.6285C37.6154 37.7783 37.5892 37.6336 37.5892 37.4899C37.5872 35.7877 37.5912 34.0855 37.5862 32.3833C37.5862 32.1222 37.5932 31.9289 37.9453 31.9309C39.7599 31.9451 41.5736 31.941 43.3882 31.9461C43.4346 31.9461 43.482 31.9734 43.5728 32.0028H43.5718Z" fill="#FEECD8"/>
<path d="M10.8052 41.0219H16.7383V46.9806H10.8052V41.0219Z" fill="#FEECD8"/>
<path d="M28.6541 41.0309H34.5812V46.9886H28.6541V41.0309Z" fill="#FEECD8"/>
<path d="M52.4221 37.9352H46.496V31.9856H52.4221V37.9352Z" fill="#FEECD8"/>
<path d="M16.7414 56.0673H10.8153V50.1268H16.7414V56.0673Z" fill="#FEECD8"/>
<path d="M43.5163 41.035V46.9816H37.5731V41.035H43.5163Z" fill="#FEECD8"/>
<path d="M25.6472 46.9948H19.7332V41.0421H25.6472V46.9948Z" fill="#FEECD8"/>
<path d="M28.6985 50.0793C29.567 50.0793 30.4032 50.0793 31.2394 50.0793C32.2481 50.0793 33.2568 50.0824 34.2645 50.0773C34.4905 50.0763 34.6539 50.0965 34.6529 50.3931C34.6458 52.2622 34.6488 54.1324 34.6488 56.0431H28.6975V50.0783L28.6985 50.0793Z" fill="#FEECD8"/>
<path d="M25.6724 56.0552H19.7413V50.1117H25.6724V56.0552Z" fill="#FEECD8"/>
<path d="M42.2514 50.1025C42.1707 50.2473 42.1233 50.3525 42.0577 50.4466C40.9119 52.082 39.9829 53.8338 39.2979 55.7111C39.1961 55.9914 39.0599 56.1129 38.7563 56.0916C38.3921 56.0653 38.025 56.0855 37.6245 56.0855V50.1036H42.2514V50.1025Z" fill="#FEECD8"/>
<path d="M46.4738 45.6497V41.0441H52.4514C52.4514 41.3942 52.4726 41.7282 52.4403 42.0561C52.4282 42.1735 52.3071 42.3334 52.1972 42.3789C50.1979 43.2037 48.351 44.2876 46.6382 45.6072C46.614 45.6254 46.5757 45.6244 46.4738 45.6497Z" fill="#FEECD8"/>
<path d="M57.849 65.4406C59.1643 64.1149 60.4766 62.7891 61.793 61.4664C63.3121 59.9403 64.8251 58.4081 66.3564 56.8942C67.2137 56.0461 68.4676 55.9813 69.3895 56.6948C70.2923 57.3941 70.5586 58.653 69.9937 59.6448C69.8626 59.8755 69.6841 60.086 69.4954 60.2753C66.1748 63.6149 62.8511 66.9525 59.5224 70.2851C58.4814 71.3274 57.1177 71.3325 56.0797 70.3003C54.6716 68.9006 53.2705 67.496 51.8744 66.0842C50.8849 65.0844 50.8789 63.6412 51.8422 62.699C52.755 61.8075 54.1763 61.8591 55.1457 62.8235C55.992 63.6655 56.8352 64.5116 57.6805 65.3546C57.7027 65.3768 57.739 65.3849 57.848 65.4386L57.849 65.4406Z" fill="#FEECD8"/>
</g>
<defs>
<clipPath id="clip0_176_2045">
<rect width="80" height="83" fill="white"/>
</clipPath>
</defs>
</svg>
